<svg width="32" height="32" viewBox="0 0 32 32" fill="none" xmlns="http://www.w3.org/2000/svg">
<g clip-path="url(#clip0_3440_35088111-%[1]s-%[2]s)">
<path d="M16 31.1109C24.3456 31.1109 31.1111 24.3454 31.1111 15.9998C31.1111 7.65415 24.3456 0.888672 16 0.888672C7.65436 0.888672 0.888885 7.65415 0.888885 15.9998C0.888885 24.3454 7.65436 31.1109 16 31.1109Z" fill="white" stroke="#DEE1EB"/>
<path d="M14.3909 16.7965C14.7364 17.2584 15.1772 17.6406 15.6834 17.9171C16.1896 18.1938 16.7494 18.3582 17.3248 18.3993C17.9001 18.4405 18.4777 18.3575 19.0181 18.1559C19.5586 17.9543 20.0492 17.6389 20.4571 17.2309L22.8708 14.8173C23.6036 14.0586 24.0089 13.0425 23.9998 11.9877C23.9906 10.933 23.5676 9.92404 22.8217 9.17821C22.0759 8.43237 21.067 8.00931 20.0123 8.00015C18.9575 7.99098 17.9413 8.39644 17.1827 9.1292L15.7988 10.505" stroke="#2E3346" stroke-width="2" stroke-linecap="round" stroke-linejoin="round"/>
<path d="M17.609 15.1874C17.2635 14.7255 16.8227 14.3433 16.3165 14.0667C15.8103 13.7902 15.2505 13.6257 14.6752 13.5845C14.0998 13.5433 13.5223 13.6263 12.9819 13.8279C12.4414 14.0295 11.9506 14.345 11.5428 14.753L9.1292 17.1666C8.39644 17.9252 7.99098 18.9414 8.00015 19.9962C8.00931 21.0509 8.43237 22.0598 9.17821 22.8056C9.92405 23.5515 10.933 23.9745 11.9877 23.9837C13.0425 23.9928 14.0586 23.5875 14.8173 22.8547L16.193 21.4788" stroke="#2E3346" stroke-width="2" stroke-linecap="round" stroke-linejoin="round"/>
</g>
<defs>
<clipPath id="clip0_3440_35088111-%[1]s-%[2]s">
<rect width="32" height="32" fill="white"/>
</clipPath>
</defs>
</svg>
