<svg width="32" height="32" viewBox="0 0 32 32" fill="none" xmlns="http://www.w3.org/2000/svg">
<g clip-path="url(#clip0_3427_35082111-%[1]s-%[2]s)">
<path d="M16 31.1109C24.3456 31.1109 31.1111 24.3454 31.1111 15.9998C31.1111 7.65415 24.3456 0.888672 16 0.888672C7.65436 0.888672 0.888885 7.65415 0.888885 15.9998C0.888885 24.3454 7.65436 31.1109 16 31.1109Z" fill="white" stroke="#DEE1EB"/>
<path d="M16 26C21.5228 26 26 21.5228 26 16C26 10.4772 21.5228 6 16 6C10.4772 6 6 10.4772 6 16C6 21.5228 10.4772 26 16 26Z" stroke="#2E3346" stroke-width="2" stroke-linecap="round" stroke-linejoin="round"/>
<path d="M16 19.998V15.998" stroke="#2E3346" stroke-width="2" stroke-linecap="round" stroke-linejoin="round"/>
<path d="M16 12H16.0098" stroke="#2E3346" stroke-width="2" stroke-linecap="round" stroke-linejoin="round"/>
</g>
<defs>
<clipPath id="clip0_3427_35082111-%[1]s-%[2]s">
<rect width="32" height="32" fill="white"/>
</clipPath>
</defs>
</svg>
