<svg xmlns="http://www.w3.org/2000/svg" xmlns:xlink="http://www.w3.org/1999/xlink" width="718" height="1200" viewBox="0 0 718 1200" role="img"><title>D2 isometric diagram</title><rect width="100%" height="100%" fill="#f5f7fb"/><defs><filter id="ground-softness" filterUnits="userSpaceOnUse" x="0" y="0" width="718" height="1200" color-interpolation-filters="sRGB"><feGaussianBlur stdDeviation="0.674779 0.453584"/></filter></defs><g filter="url(#ground-softness)"><g opacity="0.079373"><path d="M147.10564 83.742717L419.322673 138.93995L152.004137 117.612029L136.244634 114.416487ZM419.322673 138.93995L367.927841 161.394709L152.004137 117.612029ZM419.322673 138.93995L359.889808 306.790889L355.637377 196.105571L367.927841 161.394709ZM359.889808 306.790889L319.355982 298.571877L355.637377 196.105571ZM308.494976 329.245647L252.201648 317.831093L87.672775 251.593656L359.889808 306.790889ZM252.201648 317.831093L36.277944 274.048414L87.672775 251.593656ZM36.277944 274.048414L48.568408 239.337551L147.10564 83.742717L87.672775 251.593656ZM48.568408 239.337551L95.710809 106.197475L147.10564 83.742717ZM594.722005 836.221175L55.212906 721.525194L603.007676 832.601108ZM594.722005 836.221175L46.927235 725.145261L55.212906 721.525194ZM46.927235 725.145261L141.660709 477.378374L55.212906 721.525194ZM46.927235 725.145261L133.375039 480.998441L141.660709 477.378374ZM141.660709 477.378374L689.455479 588.454288L55.212906 721.525194ZM689.455479 588.454288L603.007676 832.601108L55.212906 721.525194ZM486.536755 152.568897L664.654073 188.685605L475.896767 182.618466ZM475.896767 182.618466L664.654073 188.685605L613.259241 211.140363L475.675749 183.242667ZM664.654073 188.685605L605.221208 356.536544L600.968777 245.851226L613.259241 211.140363ZM605.221208 356.536544L564.687382 348.317532L600.968777 245.851226ZM553.826376 378.991302L516.99247 371.52252L427.10389 320.419836L605.221208 356.536544ZM516.99247 371.52252L375.709059 342.874594L427.10389 320.419836ZM375.709059 342.874594L387.999523 308.163731L486.536755 152.568897L427.10389 320.419836ZM387.999523 308.163731L435.141923 175.023655L486.536755 152.568897ZM214.586374 920.614102L392.703691 956.73081L203.946386 950.663671ZM203.946386 950.663671L392.703691 956.73081L341.30886 979.185568L203.725368 951.287872ZM392.703691 956.73081L333.270826 1124.581749L329.018395 1013.896431L341.30886 979.185568ZM333.270826 1124.581749L292.737001 1116.362737L329.018395 1013.896431ZM281.875995 1147.036507L245.042089 1139.567725L155.153509 1088.465041L333.270826 1124.581749ZM245.042089 1139.567725L103.758677 1110.919799L155.153509 1088.465041ZM103.758677 1110.919799L116.049142 1076.208936L214.586374 920.614102L155.153509 1088.465041ZM116.049142 1076.208936L163.191542 943.06886L214.586374 920.614102Z" fill="#243754"/><defs><g id="surface-0"><defs></defs><g transform="matrix(0.01818181818181818 0 0 0.014705882352941178 0.01818181818181818 0.014705882352941178)"><g transform="matrix(1 0 0 1 0 0)"><g transform="matrix(1 0 0 1 0 0)"><rect x="-1" y="-1" width="55" height="68" rx="0" ry="0" fill="#000000" fill-opacity="0" stroke="none"/></g><g transform="matrix(1 0 0 1 0 0)"><g transform="matrix(1 0 0 1 0 0)"><rect x="0" y="0" width="53" height="66" rx="0" ry="0" fill="#dce5eb" fill-opacity="1" stroke="none"/></g></g></g></g></g></defs><defs><clipPath id="shadow-clip-39"><path d="M668.955519 186.806273L607.721659 359.743604L484.116793 149.32667Z"/></clipPath><filter id="shadow-ink-39" color-interpolation-filters="sRGB"><feColorMatrix values="0 0 0 0 0.14117647 0 0 0 0 0.21568627 0 0 0 0 0.32941176 0 0 0 1 0"/></filter></defs><g clip-path="url(#shadow-clip-39)"><g transform="matrix(184.838726 37.479603 -61.233861 172.937331 484.116793 149.32667)" filter="url(#shadow-ink-39)"><use xlink:href="#surface-0"/></g></g><defs><clipPath id="shadow-clip-38"><path d="M607.721659 359.743604L422.882933 322.264001L484.116793 149.32667Z"/></clipPath><filter id="shadow-ink-38" color-interpolation-filters="sRGB"><feColorMatrix values="0 0 0 0 0.14117647 0 0 0 0 0.21568627 0 0 0 0 0.32941176 0 0 0 1 0"/></filter></defs><g clip-path="url(#shadow-clip-38)"><g transform="matrix(184.838726 37.479603 -61.233861 172.937331 484.116793 149.32667)" filter="url(#shadow-ink-38)"><use xlink:href="#surface-0"/></g></g><defs><g id="surface-1"><defs></defs><g transform="matrix(0.012048192771084338 0 0 0.014705882352941178 0.012048192771084338 0.014705882352941178)"><g transform="matrix(1 0 0 1 0 0)"><g transform="matrix(1 0 0 1 0 0)"><rect x="-1" y="-1" width="83" height="68" rx="0" ry="0" fill="#000000" fill-opacity="0" stroke="none"/></g><g transform="matrix(1 0 0 1 0 0)"><g transform="matrix(1 0 0 1 0 0)"><rect x="0" y="0" width="81" height="66" rx="0" ry="0" fill="#dce5eb" fill-opacity="1" stroke="none"/></g></g></g></g></g></defs><defs><clipPath id="shadow-clip-9"><path d="M423.62412 137.060619L362.390259 309.997949L144.685679 80.50049Z"/></clipPath><filter id="shadow-ink-9" color-interpolation-filters="sRGB"><feColorMatrix values="0 0 0 0 0.14117647 0 0 0 0 0.21568627 0 0 0 0 0.32941176 0 0 0 1 0"/></filter></defs><g clip-path="url(#shadow-clip-9)"><g transform="matrix(278.938441 56.560128 -61.233861 172.937331 144.685679 80.50049)" filter="url(#shadow-ink-9)"><use xlink:href="#surface-1"/></g></g><defs><clipPath id="shadow-clip-8"><path d="M362.390259 309.997949L83.451818 253.437821L144.685679 80.50049Z"/></clipPath><filter id="shadow-ink-8" color-interpolation-filters="sRGB"><feColorMatrix values="0 0 0 0 0.14117647 0 0 0 0 0.21568627 0 0 0 0 0.32941176 0 0 0 1 0"/></filter></defs><g clip-path="url(#shadow-clip-8)"><g transform="matrix(278.938441 56.560128 -61.233861 172.937331 144.685679 80.50049)" filter="url(#shadow-ink-8)"><use xlink:href="#surface-1"/></g></g><defs><g id="surface-2"><defs></defs><g transform="matrix(0.01818181818181818 0 0 0.014705882352941178 0.01818181818181818 0.014705882352941178)"><g transform="matrix(1 0 0 1 0 0)"><g transform="matrix(1 0 0 1 0 0)"><rect x="-1" y="-1" width="55" height="68" rx="0" ry="0" fill="#000000" fill-opacity="0" stroke="none"/></g><g transform="matrix(1 0 0 1 0 0)"><g transform="matrix(1 0 0 1 0 0)"><rect x="0" y="0" width="53" height="66" rx="0" ry="0" fill="#dce5eb" fill-opacity="1" stroke="none"/></g></g></g></g></g></defs><defs><clipPath id="shadow-clip-49"><path d="M397.005138 954.851478L335.771277 1127.788809L212.166412 917.371875Z"/></clipPath><filter id="shadow-ink-49" color-interpolation-filters="sRGB"><feColorMatrix values="0 0 0 0 0.14117647 0 0 0 0 0.21568627 0 0 0 0 0.32941176 0 0 0 1 0"/></filter></defs><g clip-path="url(#shadow-clip-49)"><g transform="matrix(184.838726 37.479603 -61.233861 172.937331 212.166412 917.371875)" filter="url(#shadow-ink-49)"><use xlink:href="#surface-2"/></g></g><defs><clipPath id="shadow-clip-48"><path d="M335.771277 1127.788809L150.932551 1090.309206L212.166412 917.371875Z"/></clipPath><filter id="shadow-ink-48" color-interpolation-filters="sRGB"><feColorMatrix values="0 0 0 0 0.14117647 0 0 0 0 0.21568627 0 0 0 0 0.32941176 0 0 0 1 0"/></filter></defs><g clip-path="url(#shadow-clip-48)"><g transform="matrix(184.838726 37.479603 -61.233861 172.937331 212.166412 917.371875)" filter="url(#shadow-ink-48)"><use xlink:href="#surface-2"/></g></g></g></g><g opacity="1"><defs><pattern id="paint-cover-2" patternUnits="userSpaceOnUse" x="30.164501" y="102.652202" width="333.649897" height="232.101969" viewBox="30.164501 102.652202 333.649897 232.101969" preserveAspectRatio="none"><path d="M362.814399 165.903233L303.381534 271.503141L362.814399 103.652202ZM362.814399 165.903233L303.381534 333.754171L303.381534 271.503141Z" fill="#a1a8ac" stroke="#a1a8ac" stroke-width="0.8" stroke-linejoin="round"/><path d="M303.381534 333.754171L31.164501 216.305908L303.381534 271.503141ZM303.381534 333.754171L31.164501 278.556938L31.164501 216.305908Z" fill="#b8c0c5" stroke="#b8c0c5" stroke-width="0.8" stroke-linejoin="round"/></pattern></defs><path d="M362.814399 165.903233L303.381534 271.503141L362.814399 103.652202ZM362.814399 165.903233L303.381534 333.754171L303.381534 271.503141ZM303.381534 333.754171L31.164501 216.305908L303.381534 271.503141ZM303.381534 333.754171L31.164501 278.556938L31.164501 216.305908Z" fill="url(#paint-cover-2)" fill-opacity="1"/><defs><clipPath id="face-3" clipPathUnits="userSpaceOnUse"><path d="M305.84174 274.689119L26.903299 218.128991L88.13716 45.19166ZM367.075601 101.751788L305.84174 274.689119L88.13716 45.19166Z"/></clipPath></defs><defs><filter id="light-3" color-interpolation-filters="linearRGB"><feComponentTransfer><feFuncR type="linear" slope="0.972121" intercept="0.008392"/><feFuncG type="linear" slope="0.974697" intercept="0.008443"/><feFuncB type="linear" slope="0.978132" intercept="0.00851"/></feComponentTransfer></filter></defs><g clip-path="url(#face-3)" opacity="1"><g transform="matrix(278.938441 56.560128 -61.233861 172.937331 88.13716 45.19166)" filter="url(#light-3)"><use xlink:href="#surface-1"/></g></g><path d="M28.056684 277.926768L27.685244 281.401514L27.685244 277.851452ZM32.852143 220.198171L33.771611 224.464681L28.056684 277.926768L27.685244 277.851452L27.685244 219.150483ZM31.164501 216.305908L30.473086 219.715772L27.685244 219.150483L27.685244 216.305908ZM34.198505 220.471172L33.771611 224.464681L32.852143 220.198171ZM31.164501 278.556938L27.685244 281.401514L28.056684 277.926768ZM31.333185 278.419026L31.164501 278.556938L28.056684 277.926768L33.771611 224.464681ZM34.292268 220.490184L33.771611 224.464681L34.198505 220.471172ZM34.494962 220.531285L31.333185 278.419026L33.771611 224.464681L34.292268 220.490184ZM34.643758 220.561456L34.643758 275.712362L31.333185 278.419026L34.494962 220.531285ZM162.169154 304.948532L302.690119 337.164036L27.685244 281.401514L31.333185 278.419026ZM31.333185 278.419026L34.643758 275.712362L162.169154 304.948532ZM299.902277 332.876569L299.902277 336.524902L162.169154 304.948532ZM299.902277 333.754171L303.381534 333.754171L302.690119 337.164036L299.902277 336.524902ZM299.902277 332.8422L34.643758 275.712362L287.857497 327.056313L299.902277 332.253043ZM299.902277 332.876569L162.169154 304.948532L34.643758 275.712362L299.902277 332.8422ZM299.902277 332.119502L287.857497 327.056313L299.902277 329.498623ZM299.902277 332.119502L299.902277 332.253043L287.857497 327.056313ZM35.02385 197.272699L31.164501 216.305908L27.884771 215.144617ZM31.855917 212.896044L35.02385 197.272699L92.868237 52.465493L35.780985 213.691927ZM88.326496 44.444444L92.868237 52.465493L27.884771 215.144617ZM358.231256 106.172023L358.197915 106.266184L92.868237 52.465493L88.326496 44.444444ZM360.543528 99.641678L358.231256 106.172023L88.326496 44.444444ZM359.534668 102.490911L360.543528 99.641678L363.505814 100.242338L362.814399 103.652202ZM302.690119 274.913005L30.473086 219.715772L31.855917 212.896044ZM279.919669 263.195735L303.381534 271.503141L302.690119 274.913005L31.855917 212.896044ZM300.101804 270.34185L279.919669 263.195735L301.110664 267.492617ZM306.860791 334.287542L306.882072 334.291857L306.860791 334.351958ZM304.230361 333.754171L306.860791 334.287542L306.860791 334.351958L306.661264 334.915462L303.381534 333.754171ZM323.890065 275.66164L332.651263 250.918172L366.293656 166.501019L327.390603 276.371441ZM306.860791 334.287542L306.860791 323.7559L323.890065 275.66164L327.390603 276.371441L306.882072 334.291857ZM306.860791 333.754171L306.860791 334.287542L304.230361 333.754171ZM306.860791 323.7559L306.860791 315.632896L332.651263 250.918172ZM362.756951 165.893362L366.293656 166.501019L332.651263 250.918172ZM362.756951 165.893362L362.650075 166.195203L352.86236 183.585948ZM359.335142 165.305446L362.756951 165.893362L352.86236 183.585948ZM306.860791 314.105891L306.860791 313.504075L352.86236 183.585948L362.650075 166.195203ZM306.860791 315.07824L306.860791 314.105891L362.650075 166.195203ZM332.651263 250.918172L306.860791 315.632896L306.860791 315.07824L362.650075 166.195203ZM362.814399 134.478824L366.293656 103.652202L366.293656 166.501019L362.814399 165.903233ZM362.814399 147.807653L362.814399 165.903233L362.756951 165.893362ZM359.335142 165.305446L362.814399 134.478824L362.814399 147.807653ZM362.756951 165.893362L359.335142 165.305446L362.814399 147.807653ZM363.295823 103.822666L362.814399 103.652202L366.293656 103.652202L366.274416 103.822666ZM366.094129 104.813493L363.295823 103.822666L366.274416 103.822666L366.18962 104.573975ZM362.814399 114.076144L366.094129 104.813493L366.18962 104.573975L362.814399 134.478824ZM362.789484 114.146507L362.814399 114.076144L362.814399 121.40355ZM362.066401 116.188648L359.335142 165.305446L359.335142 123.902298ZM362.774451 114.188965L362.814399 134.478824L359.335142 165.305446L362.066401 116.188648ZM362.789484 114.146507L362.814399 121.40355L362.814399 134.478824L362.774451 114.188965ZM306.728326 272.688177L306.860791 272.735081L306.860791 333.754171L299.902277 333.754171ZM306.728326 272.688177L306.763142 272.376707L306.860791 272.100927L306.860791 272.735081ZM299.902277 274.347717L306.395642 275.664371L299.902277 333.754171ZM305.652404 275.513666L306.763142 272.376707L306.395642 275.664371ZM306.661264 272.664432L305.652404 275.513666L302.690119 274.913005L303.381534 271.503141ZM300.101804 270.34185L359.534668 102.490911L366.094129 104.813493ZM306.661264 272.664432L300.101804 270.34185L366.094129 104.813493ZM27.685244 215.708122L27.884771 215.144617L31.164501 216.305908ZM27.685244 216.305908L27.685244 215.708122L31.164501 216.305908ZM305.652404 337.764696L302.690119 337.164036L303.381534 333.754171ZM306.661264 334.915462L305.652404 337.764696L303.381534 333.754171ZM366.293656 100.807627L366.293656 103.652202L362.814399 103.652202ZM363.505814 100.242338L366.293656 100.807627L362.814399 103.652202Z" fill="#263c4e" fill-opacity="1"/><defs><g id="surface-3"><defs></defs><g transform="matrix(0.005405405405405406 0 0 0.009259259259259259 0 0)"><g transform="matrix(1 0 0 1 0 0)"><g transform="matrix(1 0 0 1 0 0)"><path d="M6.617231369018555 82.08954620361328L6.617231369018555 28.91649627685547L18.610586166381836 28.91649627685547L18.610586166381836 50.69534683227539L18.928817749023438 50.69534683227539L34.7409553527832 28.91649627685547L47.927677154541016 28.91649627685547L31.876869201660156 50.1180305480957L50.87132263183594 82.08954620361328L37.744266510009766 82.08954620361328L24.796215057373047 59.673648834228516L18.610586166381836 67.81583404541016L18.610586166381836 82.08954620361328L6.617231369018555 82.08954620361328ZM66.92212677001953 83.06501007080078Q60.318824768066406 83.06501007080078 57.295623779296875 78.74507904052734Q54.37186813354492 74.34551239013672 54.37186813354492 66.76073455810547L54.37186813354492 41.63741683959961L66.3453369140625 41.63741683959961L66.3453369140625 65.20794677734375Q66.3453369140625 69.52788543701172 67.55859375 71.23992919921875Q68.79174041748047 72.87235260009766 71.39726257324219 72.87235260009766Q73.68455505371094 72.87235260009766 75.2160415649414 71.81725311279297Q76.76742553710938 70.76215362548828 78.5574722290039 68.39315032958984L78.5574722290039 41.63741683959961L90.53094482421875 41.63741683959961L90.53094482421875 82.08954620361328L80.76520538330078 82.08954620361328L79.87017822265625 76.4557113647461L79.63150787353516 76.4557113647461Q77.10554504394531 79.48165893554688 74.08234405517578 81.27333068847656Q71.05914306640625 83.06501007080078 66.92212677001953 83.06501007080078ZM122.23477172851562 83.06501007080078Q119.54969024658203 83.06501007080078 116.7850570678711 81.7710189819336Q114.0999755859375 80.37749481201172 111.73312377929688 77.76960754394531L111.39500427246094 77.76960754394531L110.42041778564453 82.08954620361328L101.05247497558594 82.08954620361328L101.05247497558594 24.934986114501953L113.02593994140625 24.934986114501953L113.02593994140625 38.94989776611328L112.70771026611328 45.16105270385742Q115.07455444335938 43.03094482421875 117.83919525146484 41.89621353149414Q120.60383605957031 40.66194534301758 123.38835906982422 40.66194534301758Q128.2612762451172 40.66194534301758 131.8612823486328 43.19020462036133Q135.44139099121094 45.71846389770508 137.3109893798828 50.376827239990234Q139.26016235351562 54.93565368652344 139.26016235351562 61.12689971923828Q139.26016235351562 68.05472564697266 136.81375122070312 73.03160858154297Q134.38723754882812 77.92886352539062 130.46900939941406 80.53675842285156Q126.6303482055664 83.06501007080078 122.23477172851562 83.06501007080078ZM119.47013092041016 73.29041290283203Q122.57289123535156 73.29041290283203 124.76073455810547 70.42372131347656Q126.96846771240234 67.57694244384766 126.96846771240234 61.38570022583008Q126.96846771240234 50.456459045410156 119.96736907958984 50.456459045410156Q116.36737060546875 50.456459045410156 113.02593994140625 54.11944580078125L113.02593994140625 70.6825180053711Q114.65687561035156 72.13577270507812 116.2878189086914 72.71308898925781Q117.91875457763672 73.29041290283203 119.47013092041016 73.29041290283203ZM165.83250427246094 83.06501007080078Q160.04466247558594 83.06501007080078 155.39053344726562 80.53675842285156Q150.75628662109375 78.00849914550781 148.07119750976562 73.29041290283203Q145.36624145507812 68.55241394042969 145.36624145507812 61.86347961425781Q145.36624145507812 55.25417709350586 148.07119750976562 50.53608703613281Q150.83584594726562 45.798091888427734 155.23141479492188 43.269832611083984Q159.62698364257812 40.66194534301758 164.44024658203125 40.66194534301758Q170.22808837890625 40.66194534301758 173.96730041503906 43.269832611083984Q177.80596923828125 45.798091888427734 179.6755828857422 50.19765853881836Q181.624755859375 54.53750228881836 181.624755859375 60.071800231933594Q181.624755859375 61.62458801269531 181.46563720703125 63.17737579345703Q181.3065185546875 64.63063049316406 181.14739990234375 65.3672103881836L156.94190979003906 65.3672103881836Q157.75738525390625 69.78668212890625 160.60157775878906 71.89688110351562Q163.4656524658203 73.92745208740234 167.4435577392578 73.92745208740234Q171.7794647216797 73.92745208740234 176.17503356933594 71.23992919921875L180.15293884277344 78.50618743896484Q177.070068359375 80.61638641357422 173.2313995361328 81.85065460205078Q169.41261291503906 83.06501007080078 165.83250427246094 83.06501007080078ZM156.8623504638672 57.46391296386719L171.44134521484375 57.46391296386719Q171.44134521484375 54.11944580078125 169.81040954589844 52.009246826171875Q168.25901794433594 49.79950714111328 164.67892456054688 49.79950714111328Q161.91427612304688 49.79950714111328 159.70654296875 51.75044631958008Q157.51870727539062 53.62175750732422 156.8623504638672 57.46391296386719Z" fill-rule="nonzero" fill="#253650" fill-opacity="1" stroke="none"/></g></g></g></g></defs><defs><clipPath id="face-5" clipPathUnits="userSpaceOnUse"><path d="M248.026896 198.83267L127.041548 174.300566L145.952005 120.893449ZM266.937353 145.425553L248.026896 198.83267L145.952005 120.893449Z"/></clipPath></defs><g clip-path="url(#face-5)" opacity="1"><g transform="matrix(120.985348 24.532104 -18.910457 53.407117 145.952005 120.893449)"><use xlink:href="#surface-3"/></g></g></g><g opacity="1"><path d="M122.722034 461.771343L670.516803 572.847257L36.27423 705.918163ZM670.516803 572.847257L584.069 816.994077L36.27423 705.918163Z" fill="#fdfbf5" fill-opacity="1"/><defs><pattern id="paint-cover-142" patternUnits="userSpaceOnUse" x="35.27423" y="571.847257" width="636.242573" height="254.10731" viewBox="35.27423 571.847257 636.242573 254.10731" preserveAspectRatio="none"><path d="M670.516803 580.807747L584.069 816.994077L670.516803 572.847257ZM670.516803 580.807747L584.069 824.954567L584.069 816.994077Z" fill="#a6a8a5" stroke="#a6a8a5" stroke-width="0.8" stroke-linejoin="round"/><path d="M584.069 824.954567L36.27423 705.918163L584.069 816.994077ZM584.069 824.954567L36.27423 713.878653L36.27423 705.918163Z" fill="#bfc1bc" stroke="#bfc1bc" stroke-width="0.8" stroke-linejoin="round"/></pattern></defs><path d="M670.516803 580.807747L584.069 816.994077L670.516803 572.847257ZM670.516803 580.807747L584.069 824.954567L584.069 816.994077ZM584.069 824.954567L36.27423 705.918163L584.069 816.994077ZM584.069 824.954567L36.27423 713.878653L36.27423 705.918163Z" fill="url(#paint-cover-142)" fill-opacity="1"/><defs><pattern id="paint-cover-76" patternUnits="userSpaceOnUse" x="54.44964" y="716.766835" width="521.507267" height="112.872242" viewBox="54.44964 716.766835 521.507267 112.872242" preserveAspectRatio="none"><path d="M574.956907 823.106915L572.998072 828.639077L572.998072 822.709724Z" fill="#848c8c" stroke="#848c8c" stroke-width="0.8" stroke-linejoin="round"/><path d="M572.998072 822.709724L572.998072 828.639077L404.344089 788.511888ZM404.344089 788.511888L572.998072 828.639077L55.44964 723.696189L55.44964 717.766835Z" fill="#98a1a1" stroke="#98a1a1" stroke-width="0.8" stroke-linejoin="round"/></pattern></defs><path d="M574.956907 823.106915L572.998072 828.639077L572.998072 822.709724ZM572.998072 822.709724L572.998072 828.639077L404.344089 788.511888ZM404.344089 788.511888L572.998072 828.639077L55.44964 723.696189L55.44964 717.766835Z" fill="url(#paint-cover-76)" fill-opacity="1"/><path d="M54.725096 719.394951L53.710011 725.118477L53.710011 719.189123ZM55.44964 723.696189L53.710011 725.118477L54.01389 723.405063ZM55.923393 719.637929L55.618323 723.558277L55.44964 723.696189L54.01389 723.405063L54.725096 719.394951ZM55.966602 719.64669L55.618323 723.558277L55.923393 719.637929ZM57.189268 719.894609L57.189268 722.273901L55.618323 723.558277L55.966602 719.64669ZM289.929855 771.069441L572.652364 830.344009L53.710011 725.118477L55.618323 723.558277ZM55.618323 723.558277L57.189268 722.273901L289.929855 771.069441ZM484.112343 810.443672L477.733522 810.443672L289.929855 771.069441ZM571.258444 828.639077L572.998072 828.639077L572.652364 830.344009L570.998727 829.997314ZM484.112343 810.443672L571.258444 828.114218L571.258444 828.639077L570.998727 829.997314L477.733522 810.443672ZM57.189268 722.273901L522.509255 816.626468L568.10242 827.474273ZM289.929855 771.069441L57.189268 722.273901L568.10242 827.474273ZM571.258444 828.058988L522.509255 816.626468L571.258444 826.511303ZM571.258444 828.058988L571.258444 828.114218L568.10242 827.474273L522.509255 816.626468ZM574.737701 828.819704L574.776771 828.827626L574.737701 828.93797ZM573.846899 828.639077L574.737701 828.819704L574.737701 828.93797L574.637937 829.219723L572.998072 828.639077ZM574.737701 824.837498L576.092342 825.112177L574.776771 828.827626L574.737701 828.819704ZM574.737701 828.639077L574.737701 828.819704L573.846899 828.639077ZM572.0881 824.30024L574.737701 824.837498L574.737701 828.639077L571.258444 828.639077ZM571.258444 824.132011L572.0881 824.30024L571.258444 828.639077ZM574.133507 830.644339L572.652364 830.344009L572.998072 828.639077ZM574.637937 829.219723L574.133507 830.644339L572.998072 828.639077Z" fill="#7b8a90" fill-opacity="1"/><path d="M35.146777 713.65004L34.534602 715.300941L34.534602 713.52591ZM37.280029 707.897139L35.146777 713.65004L34.534602 713.52591L34.534602 707.340451ZM36.27423 705.918163L35.928523 707.623095L34.534602 707.340451L34.534602 705.918163ZM36.27423 713.878653L34.534602 715.300941L35.146777 713.65004ZM37.495879 707.940907L36.442914 713.740741L36.27423 713.878653L35.146777 713.65004L37.280029 707.897139ZM37.659778 707.97414L36.442914 713.740741L37.495879 707.940907ZM38.013859 708.045937L38.013859 712.456365L36.442914 713.740741L37.659778 707.97414ZM284.411195 764.021074L583.723292 826.659499L34.534602 715.300941L36.442914 713.740741ZM36.442914 713.740741L38.013859 712.456365L284.411195 764.021074ZM545.658959 816.994077L537.537941 816.994077L284.411195 764.021074ZM545.658959 816.994077L582.329371 824.429708L582.329371 824.954567L581.763463 826.249357L537.537941 816.994077ZM582.329371 824.954567L584.069 824.954567L583.723292 826.659499L581.763463 826.249357ZM38.013859 712.456365L461.921658 798.411816L572.224973 822.380847ZM284.411195 764.021074L38.013859 712.456365L572.224973 822.380847ZM547.993678 816.994077L461.921658 798.411816L553.564079 816.994077ZM582.329371 824.406879L547.993678 816.994077L553.564079 816.994077L582.329371 822.826793ZM547.435545 816.994077L461.921658 798.411816L547.993678 816.994077ZM582.329371 824.406879L582.329371 824.429708L572.224973 822.380847L547.435545 816.994077L547.993678 816.994077ZM38.531258 694.787144L36.27423 705.918163L34.634365 705.337518ZM36.619938 704.213231L38.531258 694.787144L123.857469 463.776605L38.582472 704.611172ZM121.586598 459.766081L123.857469 463.776605L34.634365 705.337518ZM668.212748 574.142423L668.208561 574.154248L123.857469 463.776605L121.586598 459.766081ZM669.381368 570.841995L668.212748 574.142423L121.586598 459.766081ZM668.876938 572.266612L669.381368 570.841995L670.862511 571.142325L670.516803 572.847257ZM583.723292 818.699009L35.928523 707.623095L36.619938 704.213231ZM572.338067 812.840374L584.069 816.994077L583.723292 818.699009L36.619938 704.213231ZM582.429135 816.413432L572.338067 812.840374L582.933565 814.988815ZM585.808628 825.135194L585.847699 825.143116L585.808628 825.25346ZM584.917827 824.954567L585.808628 825.135194L585.808628 825.25346L585.708865 825.535212L584.069 824.954567ZM586.641985 817.515799L625.85959 706.757015L672.256432 581.10664L588.420684 817.876465ZM585.808628 819.869373L586.51949 817.86175L588.213509 818.46157L585.847699 825.143116L585.808628 825.135194ZM585.808628 824.954567L585.808628 825.135194L584.917827 824.954567ZM586.51949 817.86175L586.641985 817.515799L588.420684 817.876465L588.213509 818.46157ZM585.808628 817.610047L586.51949 817.86175L585.808628 819.869373ZM586.51949 817.86175L585.808628 817.610047L585.808628 817.29297L603.657687 766.883467L625.85959 706.757015ZM670.459355 580.797876L672.256432 581.10664L625.85959 706.757015ZM641.554491 659.854902L670.459355 580.797876L668.64769 585.914399L640.66896 662.355828ZM669.599415 580.650126L670.459355 580.797876L641.554491 659.854902ZM625.410568 705.448744L640.66896 662.355828L668.64769 585.914399ZM623.713941 710.240377L625.410568 705.448744L668.64769 585.914399ZM625.85959 706.757015L603.657687 766.883467L623.713941 710.240377L668.64769 585.914399ZM672.015457 573.377902L672.256432 572.847257L672.256432 573.15774L672.156668 573.427903ZM670.491643 578.130284L672.156668 573.427903L672.256432 573.15774L672.256432 581.10664L670.459355 580.797876ZM670.491643 578.130284L670.459355 580.797876L669.599415 580.650126ZM670.984644 573.012911L670.516803 572.847257L672.256432 572.847257L672.181206 573.012911ZM670.984644 573.012911L672.181206 573.012911L672.015457 573.377902ZM585.575489 817.527497L585.808628 817.610047L585.808628 824.954567L582.329371 824.954567ZM585.708865 817.574723L585.808628 817.29297L585.808628 817.610047ZM582.329371 818.416365L584.954359 818.948632L582.329371 824.954567ZM583.723292 818.699009L584.069 816.994077L585.575489 817.527497L584.954359 818.948632ZM582.429135 816.413432L668.876938 572.266612L672.156668 573.427903ZM585.708865 817.574723L582.429135 816.413432L672.156668 573.427903ZM34.534602 705.61927L34.634365 705.337518L36.27423 705.918163ZM34.534602 705.918163L34.534602 705.61927L36.27423 705.918163ZM585.204435 826.959829L583.723292 826.659499L584.069 824.954567ZM585.708865 825.535212L585.204435 826.959829L584.069 824.954567ZM672.256432 571.424969L672.256432 572.847257L670.516803 572.847257ZM670.862511 571.142325L672.256432 571.424969L670.516803 572.847257Z" fill="#304552" fill-opacity="1"/><defs><g id="surface-4"><defs><clipPath id="surface-4--clip-1" clipPathUnits="userSpaceOnUse"><path transform="matrix(1 0 0 1 0 0)" d="M0 0L163 0L163 96L0 96Z" clip-rule="nonzero"/></clipPath><path id="surface-4--glyph-2" d="M1.4375 0L1.4375 -10.5L2.765625 -10.5L2.765625 -5.234375L2.8125 -5.234375L7.1875 -10.5L8.6875 -10.5L5.40625 -6.5L9.203125 0L7.71875 0L4.578125 -5.453125L2.765625 -3.328125L2.765625 0L1.4375 0Z"/><path id="surface-4--glyph-3" d="M3.578125 0.1875Q2.359375 0.1875 1.78125 -0.578125Q1.203125 -1.359375 1.203125 -2.84375L1.203125 -7.78125L2.53125 -7.78125L2.53125 -3.03125Q2.53125 -1.9375 2.859375 -1.4375Q3.21875 -0.9375 3.984375 -0.9375Q4.59375 -0.9375 5.0625 -1.25Q5.53125 -1.5625 6.078125 -2.25L6.078125 -7.78125L7.390625 -7.78125L7.390625 0L6.296875 0L6.1875 -1.21875L6.140625 -1.21875Q5.59375 -0.578125 4.984375 -0.1875Q4.390625 0.1875 3.578125 0.1875Z"/><path id="surface-4--glyph-4" d="M4.75 0.1875Q4.203125 0.1875 3.609375 -0.0625Q3.046875 -0.34375 2.53125 -0.796875L2.484375 -0.796875L2.375 0L1.3125 0L1.3125 -11.390625L2.625 -11.390625L2.625 -8.28125L2.59375 -6.875Q3.125 -7.34375 3.75 -7.640625Q4.390625 -7.96875 5.03125 -7.96875Q6.546875 -7.96875 7.328125 -6.890625Q8.109375 -5.828125 8.109375 -4.015625Q8.109375 -2.6875 7.625 -1.75Q7.171875 -0.796875 6.40625 -0.296875Q5.640625 0.1875 4.75 0.1875ZM4.53125 -0.90625Q5.484375 -0.90625 6.109375 -1.734375Q6.75 -2.5625 6.75 -4Q6.75 -5.28125 6.265625 -6.0625Q5.8125 -6.859375 4.703125 -6.859375Q4.203125 -6.859375 3.703125 -6.59375Q3.1875 -6.3125 2.625 -5.8125L2.625 -1.734375Q3.140625 -1.28125 3.625 -1.09375Q4.140625 -0.90625 4.53125 -0.90625Z"/><path id="surface-4--glyph-5" d="M4.46875 0.1875Q3.421875 0.1875 2.578125 -0.28125Q1.734375 -0.78125 1.234375 -1.703125Q0.734375 -2.609375 0.734375 -3.875Q0.734375 -5.15625 1.234375 -6.0625Q1.75 -6.96875 2.546875 -7.46875Q3.34375 -7.96875 4.21875 -7.96875Q5.71875 -7.96875 6.515625 -6.96875Q7.328125 -5.984375 7.328125 -4.3125Q7.328125 -4.109375 7.3125 -3.90625Q7.3125 -3.71875 7.28125 -3.5625L2.03125 -3.5625Q2.109375 -2.34375 2.796875 -1.59375Q3.5 -0.859375 4.625 -0.859375Q5.1875 -0.859375 5.640625 -1.03125Q6.125 -1.203125 6.5625 -1.46875L7.03125 -0.609375Q6.53125 -0.28125 5.890625 -0.046875Q5.265625 0.1875 4.46875 0.1875ZM2.015625 -4.515625L6.171875 -4.515625Q6.171875 -5.703125 5.65625 -6.296875Q5.171875 -6.921875 4.25 -6.921875Q3.4375 -6.921875 2.78125 -6.28125Q2.140625 -5.65625 2.015625 -4.515625Z"/><path id="surface-4--glyph-6" d=""/><path id="surface-4--glyph-7" d="M1.3125 0L1.3125 -7.78125L2.625 -7.78125L2.625 0L1.3125 0ZM1.984375 -9.375Q1.59375 -9.375 1.359375 -9.59375Q1.109375 -9.84375 1.109375 -10.234375Q1.109375 -10.625 1.359375 -10.859375Q1.59375 -11.109375 1.984375 -11.109375Q2.375 -11.109375 2.609375 -10.859375Q2.859375 -10.625 2.859375 -10.234375Q2.859375 -9.84375 2.609375 -9.59375Q2.375 -9.375 1.984375 -9.375Z"/><path id="surface-4--glyph-8" d="M3.34375 0.1875Q2.515625 0.1875 1.765625 -0.109375Q1.015625 -0.4375 0.453125 -0.875L1.109375 -1.765625Q1.609375 -1.359375 2.15625 -1.09375Q2.703125 -0.828125 3.390625 -0.828125Q4.15625 -0.828125 4.546875 -1.1875Q4.921875 -1.546875 4.921875 -2.046875Q4.921875 -2.453125 4.65625 -2.71875Q4.40625 -2.984375 3.984375 -3.171875Q3.578125 -3.359375 3.15625 -3.515625Q2.609375 -3.734375 2.078125 -3.984375Q1.546875 -4.25 1.21875 -4.671875Q0.875 -5.109375 0.875 -5.765625Q0.875 -6.703125 1.578125 -7.328125Q2.296875 -7.96875 3.5625 -7.96875Q4.28125 -7.96875 4.90625 -7.71875Q5.53125 -7.453125 5.984375 -7.09375L5.34375 -6.25Q4.9375 -6.5625 4.515625 -6.75Q4.078125 -6.9375 3.5625 -6.9375Q2.828125 -6.9375 2.484375 -6.609375Q2.140625 -6.265625 2.140625 -5.828125Q2.140625 -5.453125 2.390625 -5.21875Q2.625 -4.984375 3.015625 -4.8125Q3.390625 -4.65625 3.828125 -4.484375Q4.390625 -4.265625 4.921875 -4Q5.46875 -3.75 5.828125 -3.296875Q6.1875 -2.859375 6.1875 -2.125Q6.1875 -1.5 5.859375 -0.96875Q5.53125 -0.453125 4.890625 -0.125Q4.265625 0.1875 3.34375 0.1875Z"/><path id="surface-4--glyph-9" d="M3.109375 0.1875Q2.125 0.1875 1.46875 -0.390625Q0.828125 -0.96875 0.828125 -2.015625Q0.828125 -3.296875 1.96875 -3.96875Q3.125 -4.65625 5.59375 -4.921875Q5.59375 -5.421875 5.453125 -5.875Q5.328125 -6.3125 4.96875 -6.59375Q4.640625 -6.875 4 -6.875Q3.328125 -6.875 2.734375 -6.625Q2.140625 -6.375 1.6875 -6.046875L1.171875 -6.953125Q1.71875 -7.3125 2.5 -7.625Q3.296875 -7.96875 4.21875 -7.96875Q5.640625 -7.96875 6.28125 -7.09375Q6.921875 -6.21875 6.921875 -4.765625L6.921875 0L5.84375 0L5.734375 -0.921875L5.6875 -0.921875Q5.140625 -0.484375 4.484375 -0.140625Q3.84375 0.1875 3.109375 0.1875ZM3.484375 -0.859375Q4.046875 -0.859375 4.546875 -1.140625Q5.046875 -1.40625 5.59375 -1.90625L5.59375 -4.0625Q3.65625 -3.828125 2.875 -3.34375Q2.109375 -2.859375 2.109375 -2.109375Q2.109375 -1.453125 2.515625 -1.15625Q2.90625 -0.859375 3.484375 -0.859375Z"/><path id="surface-4--glyph-10" d="M1.3125 0L1.3125 -7.78125L2.40625 -7.78125L2.515625 -6.375L2.5625 -6.375Q2.953125 -7.109375 3.53125 -7.53125Q4.109375 -7.96875 4.765625 -7.96875Q5.234375 -7.96875 5.59375 -7.8125L5.34375 -6.65625Q5.15625 -6.71875 4.984375 -6.75Q4.828125 -6.78125 4.59375 -6.78125Q4.09375 -6.78125 3.546875 -6.390625Q3.03125 -5.984375 2.625 -4.984375L2.625 0L1.3125 0Z"/><path id="surface-4--glyph-11" d="M2.984375 0L0.1875 -7.78125L1.546875 -7.78125L3.03125 -3.359375Q3.203125 -2.78125 3.375 -2.203125Q3.5625 -1.625 3.75 -1.078125L3.8125 -1.078125Q3.984375 -1.625 4.15625 -2.203125Q4.359375 -2.78125 4.515625 -3.359375L5.984375 -7.78125L7.28125 -7.78125L4.53125 0L2.984375 0Z"/><path id="surface-4--glyph-12" d="M4.390625 0.1875Q3.359375 0.1875 2.53125 -0.28125Q1.703125 -0.765625 1.21875 -1.6875Q0.734375 -2.59375 0.734375 -3.875Q0.734375 -5.1875 1.25 -6.09375Q1.78125 -7.015625 2.625 -7.484375Q3.484375 -7.96875 4.484375 -7.96875Q5.25 -7.96875 5.796875 -7.703125Q6.359375 -7.421875 6.75 -7.0625L6.078125 -6.1875Q5.75 -6.5 5.359375 -6.6875Q4.984375 -6.875 4.53125 -6.875Q3.828125 -6.875 3.265625 -6.5Q2.71875 -6.125 2.40625 -5.4375Q2.09375 -4.765625 2.09375 -3.875Q2.09375 -2.546875 2.75 -1.71875Q3.421875 -0.890625 4.5 -0.890625Q5.046875 -0.890625 5.5 -1.125Q5.96875 -1.359375 6.3125 -1.6875L6.890625 -0.796875Q6.375 -0.34375 5.734375 -0.0625Q5.09375 0.1875 4.390625 0.1875Z"/><path id="surface-4--glyph-13" d="M1.828125 0L1.828125 -8.921875L2.9375 -8.921875L2.9375 -0.96875L7.359375 -0.96875L7.359375 0L1.828125 0Z"/><path id="surface-4--glyph-14" d="M4.328125 -5.890625Q3.5 -5.890625 2.875 -5.359375Q2.234375 -4.84375 2.078125 -3.859375L6.296875 -3.859375Q6.21875 -4.875 5.703125 -5.390625Q5.171875 -5.890625 4.328125 -5.890625ZM4.484375 0.15625Q3.5 0.15625 2.671875 -0.25Q1.875 -0.65625 1.40625 -1.421875Q0.921875 -2.21875 0.921875 -3.3125Q0.921875 -4.390625 1.40625 -5.171875Q1.875 -5.9375 2.640625 -6.34375Q3.40625 -6.765625 4.296875 -6.765625Q5.71875 -6.765625 6.515625 -5.90625Q7.3125 -5.078125 7.3125 -3.671875Q7.3125 -3.484375 7.296875 -3.296875Q7.28125 -3.125 7.265625 -2.984375L2.046875 -2.984375Q2.15625 -1.875 2.875 -1.3125Q3.59375 -0.734375 4.625 -0.734375Q5.21875 -0.734375 5.703125 -0.890625Q6.1875 -1.078125 6.640625 -1.359375L7.046875 -0.625Q6.546875 -0.296875 5.90625 -0.0625Q5.28125 0.15625 4.484375 0.15625Z"/><path id="surface-4--glyph-15" d="M5.359375 0.15625Q4.390625 0.15625 3.828125 -0.171875Q3.28125 -0.53125 3.03125 -1.140625Q2.796875 -1.75 2.796875 -2.5625L2.796875 -5.703125L0.9375 -5.703125L0.9375 -6.53125L2.84375 -6.609375L2.984375 -8.734375L3.921875 -8.734375L3.921875 -6.609375L7.15625 -6.609375L7.15625 -5.703125L3.921875 -5.703125L3.921875 -2.5625Q3.921875 -1.671875 4.265625 -1.203125Q4.640625 -0.75 5.59375 -0.75Q6.0625 -0.75 6.4375 -0.828125Q6.828125 -0.90625 7.171875 -1.046875L7.421875 -0.234375Q6.96875 -0.0625 6.46875 0.046875Q5.984375 0.15625 5.359375 0.15625Z"/><path id="surface-4--glyph-16" d=""/><path id="surface-4--glyph-17" d="M1.15625 -1.53125L1.6875 -2.3125Q2.203125 -1.9375 2.828125 -1.65625Q3.453125 -1.390625 4.21875 -1.390625Q5.015625 -1.390625 5.4375 -1.71875Q5.859375 -2.046875 5.859375 -2.5625Q5.859375 -2.984375 5.546875 -3.265625Q5.234375 -3.546875 4.75 -3.765625Q4.25 -3.984375 3.703125 -4.1875Q3.15625 -4.40625 2.671875 -4.65625Q2.171875 -4.9375 1.859375 -5.328125Q1.546875 -5.734375 1.546875 -6.328125Q1.546875 -7.171875 2.140625 -7.71875Q2.765625 -8.28125 3.75 -8.375L3.75 -10.171875L4.5625 -10.171875L4.5625 -8.390625Q5.3125 -8.328125 5.8125 -8.03125Q6.328125 -7.75 6.734375 -7.359375L6.125 -6.703125Q5.671875 -7.0625 5.234375 -7.265625Q4.8125 -7.484375 4.125 -7.484375Q3.453125 -7.484375 3.046875 -7.15625Q2.640625 -6.859375 2.640625 -6.34375Q2.640625 -5.984375 2.953125 -5.71875Q3.265625 -5.484375 3.75 -5.28125Q4.234375 -5.078125 4.796875 -4.859375Q5.359375 -4.65625 5.84375 -4.375Q6.328125 -4.109375 6.640625 -3.6875Q6.953125 -3.28125 6.953125 -2.65625Q6.953125 -1.78125 6.296875 -1.1875Q5.640625 -0.59375 4.5625 -0.484375L4.5625 1.5L3.75 1.5L3.75 -0.46875Q3 -0.546875 2.3125 -0.84375Q1.625 -1.140625 1.15625 -1.53125Z"/><path id="surface-4--glyph-18" d="M6 2.0625Q4.71875 2.0625 4.09375 1.6875Q3.484375 1.3125 3.484375 0.265625Q3.484375 -0.484375 3.53125 -1.09375Q3.609375 -1.6875 3.609375 -2.359375Q3.609375 -2.640625 3.4375 -2.875Q3.296875 -3.109375 2.859375 -3.265625Q2.4375 -3.421875 1.625 -3.421875L1.625 -4.125Q2.4375 -4.140625 2.859375 -4.296875Q3.296875 -4.4375 3.4375 -4.6875Q3.609375 -4.9375 3.609375 -5.1875Q3.609375 -5.828125 3.53125 -6.46875Q3.484375 -7.109375 3.484375 -7.8125Q3.484375 -8.859375 4.09375 -9.25Q4.71875 -9.625 6 -9.625L6.828125 -9.625L6.828125 -8.984375L6.125 -8.984375Q5.421875 -8.984375 5.0625 -8.859375Q4.6875 -8.734375 4.546875 -8.46875Q4.4375 -8.203125 4.4375 -7.75Q4.4375 -7.15625 4.46875 -6.53125Q4.515625 -5.921875 4.515625 -5.28125Q4.515625 -4.625 4.234375 -4.265625Q3.984375 -3.921875 3.28125 -3.8125L3.28125 -3.75Q3.984375 -3.625 4.234375 -3.28125Q4.515625 -2.9375 4.515625 -2.265625Q4.515625 -1.578125 4.46875 -1Q4.4375 -0.4375 4.4375 0.1875Q4.4375 0.625 4.546875 0.890625Q4.6875 1.1875 5.0625 1.3125Q5.421875 1.421875 6.125 1.421875L6.828125 1.421875L6.828125 2.0625L6 2.0625Z"/><path id="surface-4--glyph-19" d="M1.78125 2.84375Q1.296875 2.84375 0.90625 2.703125L1.140625 1.828125Q1.28125 1.859375 1.421875 1.890625Q1.59375 1.921875 1.734375 1.921875Q2.4375 1.921875 2.875 1.515625Q3.296875 1.109375 3.546875 0.5L3.75 0.015625L0.671875 -6.609375L1.796875 -6.609375L3.40625 -2.953125Q3.609375 -2.515625 3.8125 -2.015625Q4.03125 -1.515625 4.234375 -1.03125L4.28125 -1.03125Q4.453125 -1.515625 4.640625 -2Q4.828125 -2.5 4.984375 -2.953125L6.4375 -6.609375L7.484375 -6.609375L4.578125 0.546875Q4.34375 1.203125 3.96875 1.71875Q3.609375 2.234375 3.0625 2.53125Q2.53125 2.84375 1.78125 2.84375Z"/><path id="surface-4--glyph-20" d="M1.34375 2.0625L1.34375 1.421875L2.046875 1.421875Q2.734375 1.421875 3.09375 1.3125Q3.46875 1.1875 3.609375 0.890625Q3.734375 0.625 3.734375 0.1875Q3.734375 -0.4375 3.703125 -1Q3.65625 -1.578125 3.65625 -2.265625Q3.65625 -2.9375 3.921875 -3.28125Q4.171875 -3.625 4.875 -3.75L4.875 -3.8125Q4.171875 -3.921875 3.921875 -4.265625Q3.65625 -4.625 3.65625 -5.28125Q3.65625 -5.921875 3.703125 -6.53125Q3.734375 -7.15625 3.734375 -7.75Q3.734375 -8.203125 3.609375 -8.46875Q3.46875 -8.734375 3.09375 -8.859375Q2.734375 -8.984375 2.046875 -8.984375L1.34375 -8.984375L1.34375 -9.625L2.171875 -9.625Q3.453125 -9.625 4.0625 -9.25Q4.671875 -8.859375 4.671875 -7.8125Q4.671875 -7.109375 4.609375 -6.46875Q4.546875 -5.828125 4.546875 -5.1875Q4.546875 -4.9375 4.703125 -4.6875Q4.859375 -4.4375 5.28125 -4.296875Q5.71875 -4.140625 6.53125 -4.125L6.53125 -3.421875Q5.71875 -3.421875 5.28125 -3.265625Q4.859375 -3.109375 4.703125 -2.875Q4.546875 -2.640625 4.546875 -2.359375Q4.546875 -1.6875 4.609375 -1.09375Q4.671875 -0.484375 4.671875 0.265625Q4.671875 1.3125 4.0625 1.6875Q3.453125 2.0625 2.171875 2.0625L1.34375 2.0625Z"/><path id="surface-4--glyph-21" d="M4.34375 0.15625Q3.875 0.15625 3.3125 -0.0625Q2.765625 -0.3125 2.296875 -0.734375L2.25 -0.734375L2.15625 0L1.265625 0L1.265625 -9.671875L2.375 -9.671875L2.375 -7.046875L2.34375 -5.765625L2.375 -5.765625Q2.828125 -6.21875 3.40625 -6.5Q4.015625 -6.765625 4.59375 -6.765625Q5.921875 -6.765625 6.640625 -5.859375Q7.34375 -4.953125 7.34375 -3.40625Q7.34375 -2.28125 6.921875 -1.484375Q6.5 -0.6875 5.8125 -0.265625Q5.140625 0.15625 4.34375 0.15625ZM4.171875 -0.78125Q5.046875 -0.78125 5.609375 -1.46875Q6.1875 -2.171875 6.1875 -3.40625Q6.1875 -4.484375 5.75 -5.15625Q5.3125 -5.828125 4.328125 -5.828125Q3.890625 -5.828125 3.390625 -5.59375Q2.890625 -5.359375 2.375 -4.84375L2.375 -1.546875Q2.859375 -1.125 3.328125 -0.953125Q3.8125 -0.78125 4.171875 -0.78125Z"/><path id="surface-4--glyph-22" d="M0.875 0L3.390625 -3.421875L1.0625 -6.609375L2.296875 -6.609375L3.34375 -5.15625Q3.515625 -4.890625 3.71875 -4.59375Q3.921875 -4.3125 4.125 -4.03125L4.171875 -4.03125Q4.359375 -4.3125 4.546875 -4.609375Q4.75 -4.90625 4.921875 -5.171875L5.90625 -6.609375L7.09375 -6.609375L4.75 -3.328125L7.265625 0L6.046875 0L4.890625 -1.515625Q4.6875 -1.8125 4.453125 -2.125Q4.234375 -2.4375 4.03125 -2.71875L3.96875 -2.71875Q3.765625 -2.421875 3.5625 -2.125Q3.359375 -1.828125 3.15625 -1.515625L2.0625 0L0.875 0Z"/></defs><g transform="matrix(0.0011933174224343676 0 0 0.0020242914979757085 0 0)"><g transform="matrix(1 0 0 1 0 0)"><g transform="matrix(5.141104294478528 0 0 5.141104294478527 3.019806626980426e-14 0.22699386503069263)"><g transform="matrix(1 0 0 1 0 0)"><g transform="matrix(1 0 0 1 0 0)"><rect x="0" y="0" width="163" height="96" rx="0" ry="0" fill="#000000" fill-opacity="0" stroke="none"/></g><g transform="matrix(1 0 0 1 0 0)"><g transform="matrix(1 0 0 1 0 0)" clip-path="url(#surface-4--clip-1)"><g transform="matrix(1 0 0 1 0 0)"><use href="#surface-4--glyph-2" transform="translate(0 18)" fill="#253650" fill-opacity="1" stroke="none"/><use href="#surface-4--glyph-3" transform="translate(9.046875 18)" fill="#253650" fill-opacity="1" stroke="none"/><use href="#surface-4--glyph-4" transform="translate(17.75 18)" fill="#253650" fill-opacity="1" stroke="none"/><use href="#surface-4--glyph-5" transform="translate(26.59375 18)" fill="#253650" fill-opacity="1" stroke="none"/><use href="#surface-4--glyph-6" transform="translate(34.53125 18)" fill="#253650" fill-opacity="1" stroke="none"/><use href="#surface-4--glyph-7" transform="translate(37.734375 18)" fill="#253650" fill-opacity="1" stroke="none"/><use href="#surface-4--glyph-8" transform="translate(41.671875 18)" fill="#253650" fill-opacity="1" stroke="none"/><use href="#surface-4--glyph-6" transform="translate(48.375 18)" fill="#253650" fill-opacity="1" stroke="none"/><use href="#surface-4--glyph-9" transform="translate(51.578125 18)" fill="#253650" fill-opacity="1" stroke="none"/><use href="#surface-4--glyph-6" transform="translate(59.640625 18)" fill="#253650" fill-opacity="1" stroke="none"/><use href="#surface-4--glyph-8" transform="translate(62.84375 18)" fill="#253650" fill-opacity="1" stroke="none"/><use href="#surface-4--glyph-5" transform="translate(69.546875 18)" fill="#253650" fill-opacity="1" stroke="none"/><use href="#surface-4--glyph-10" transform="translate(77.484375 18)" fill="#253650" fill-opacity="1" stroke="none"/><use href="#surface-4--glyph-11" transform="translate(83.421875 18)" fill="#253650" fill-opacity="1" stroke="none"/><use href="#surface-4--glyph-7" transform="translate(90.890625 18)" fill="#253650" fill-opacity="1" stroke="none"/><use href="#surface-4--glyph-12" transform="translate(94.828125 18)" fill="#253650" fill-opacity="1" stroke="none"/><use href="#surface-4--glyph-5" transform="translate(101.796875 18)" fill="#253650" fill-opacity="1" stroke="none"/></g><g transform="matrix(1 0 0 1 0 0)"><rect x="0" y="40" width="163" height="51.72" rx="6" ry="6" fill="#eef1f8" fill-opacity="1" stroke="none"/></g><g transform="matrix(1 0 0 1 0 0)"><use href="#surface-4--glyph-13" transform="translate(16 70.36)" fill="#253650" fill-opacity="1" stroke="none"/><use href="#surface-4--glyph-14" transform="translate(24.40625 70.36)" fill="#253650" fill-opacity="1" stroke="none"/><use href="#surface-4--glyph-15" transform="translate(32.8125 70.36)" fill="#253650" fill-opacity="1" stroke="none"/><use href="#surface-4--glyph-16" transform="translate(41.21875 70.36)" fill="#253650" fill-opacity="1" stroke="none"/><use href="#surface-4--glyph-17" transform="translate(49.625 70.36)" fill="#253650" fill-opacity="1" stroke="none"/><use href="#surface-4--glyph-18" transform="translate(58.03125 70.36)" fill="#253650" fill-opacity="1" stroke="none"/><use href="#surface-4--glyph-19" transform="translate(66.4375 70.36)" fill="#253650" fill-opacity="1" stroke="none"/><use href="#surface-4--glyph-20" transform="translate(74.84375 70.36)" fill="#253650" fill-opacity="1" stroke="none"/><use href="#surface-4--glyph-16" transform="translate(83.25 70.36)" fill="#253650" fill-opacity="1" stroke="none"/><use href="#surface-4--glyph-21" transform="translate(91.65625 70.36)" fill="#253650" fill-opacity="1" stroke="none"/><use href="#surface-4--glyph-14" transform="translate(100.0625 70.36)" fill="#253650" fill-opacity="1" stroke="none"/><use href="#surface-4--glyph-16" transform="translate(108.46875 70.36)" fill="#253650" fill-opacity="1" stroke="none"/><use href="#surface-4--glyph-17" transform="translate(116.875 70.36)" fill="#253650" fill-opacity="1" stroke="none"/><use href="#surface-4--glyph-18" transform="translate(125.28125 70.36)" fill="#253650" fill-opacity="1" stroke="none"/><use href="#surface-4--glyph-22" transform="translate(133.6875 70.36)" fill="#253650" fill-opacity="1" stroke="none"/><use href="#surface-4--glyph-20" transform="translate(142.09375 70.36)" fill="#253650" fill-opacity="1" stroke="none"/></g></g></g></g></g></g></g></g></defs><defs><clipPath id="face-13" clipPathUnits="userSpaceOnUse"><path d="M584.069 816.652913L36.27423 705.576999L122.722034 461.430179ZM670.516803 572.506093L584.069 816.652913L122.722034 461.430179Z"/></clipPath></defs><g clip-path="url(#face-13)" opacity="1"><g transform="matrix(547.794769 111.075914 -86.447803 244.14682 122.722034 461.430179)"><use xlink:href="#surface-4"/></g></g></g><g opacity="1"><defs><pattern id="paint-cover-211" patternUnits="userSpaceOnUse" x="369.595616" y="152.397857" width="239.550182" height="232.101969" viewBox="369.595616 152.397857 239.550182 232.101969" preserveAspectRatio="none"><path d="M608.145799 215.648887L548.712934 321.248796L608.145799 153.397857ZM608.145799 215.648887L548.712934 383.499826L548.712934 321.248796Z" fill="#a1a8ac" stroke="#a1a8ac" stroke-width="0.8" stroke-linejoin="round"/><path d="M548.712934 383.499826L370.595616 285.132088L548.712934 321.248796ZM460.968192 335.041586L450.837201 363.653641L370.595616 347.383118L370.595616 285.132088ZM475.429833 343.028226L548.712934 383.499826L466.96858 366.924588ZM451.588585 361.531573L460.968192 335.041586L475.429833 343.028226L467.719965 364.80252Z" fill="#b8c0c5" stroke="#b8c0c5" stroke-width="0.8" stroke-linejoin="round"/></pattern></defs><path d="M608.145799 215.648887L548.712934 321.248796L608.145799 153.397857ZM608.145799 215.648887L548.712934 383.499826L548.712934 321.248796ZM548.712934 383.499826L370.595616 285.132088L548.712934 321.248796ZM460.968192 335.041586L450.837201 363.653641L370.595616 347.383118L370.595616 285.132088ZM475.429833 343.028226L548.712934 383.499826L466.96858 366.924588ZM451.588585 361.531573L460.968192 335.041586L475.429833 343.028226L467.719965 364.80252Z" fill="url(#paint-cover-211)" fill-opacity="1"/><defs><clipPath id="face-16" clipPathUnits="userSpaceOnUse"><path d="M551.17314 324.434774L366.334414 286.955171L427.568275 114.01784ZM612.407001 151.497443L551.17314 324.434774L427.568275 114.01784Z"/></clipPath></defs><defs><filter id="light-16" color-interpolation-filters="linearRGB"><feComponentTransfer><feFuncR type="linear" slope="0.972121" intercept="0.008392"/><feFuncG type="linear" slope="0.974697" intercept="0.008443"/><feFuncB type="linear" slope="0.978132" intercept="0.00851"/></feComponentTransfer></filter></defs><g clip-path="url(#face-16)" opacity="1"><g transform="matrix(184.838726 37.479603 -61.233861 172.937331 427.568275 114.01784)" filter="url(#light-16)"><use xlink:href="#surface-0"/></g></g><path d="M367.487799 346.752948L367.116359 350.227694L367.116359 346.677632ZM372.283258 289.024351L373.202726 293.290861L367.487799 346.752948L367.116359 346.677632L367.116359 287.976663ZM370.595616 285.132088L369.904201 288.541952L367.116359 287.976663L367.116359 285.132088ZM372.283258 289.024351L373.62962 289.297352L373.202726 293.290861ZM370.595616 347.383118L367.116359 350.227694L367.487799 346.752948ZM370.764299 347.245206L370.595616 347.383118L367.487799 346.752948L373.202726 293.290861ZM373.757503 289.323283L373.202726 293.290861L373.62962 289.297352ZM373.947913 289.361892L370.764299 347.245206L373.202726 293.290861L373.757503 289.323283ZM374.074873 289.387636L374.074873 344.538542L370.764299 347.245206L373.947913 289.361892ZM450.894061 363.493054L449.664394 366.965894L367.116359 350.227694L370.764299 347.245206ZM466.889808 367.147057L548.021518 386.90969L465.795774 370.236841ZM450.894061 363.493054L370.764299 347.245206L374.074873 344.538542L450.973061 363.269944ZM545.233677 383.499826L548.712934 383.499826L548.021518 386.90969L544.936517 386.158224ZM467.025441 366.764002L545.233677 382.622224L545.233677 383.499826L544.936517 386.158224L466.889808 367.147057ZM545.233677 382.564289L467.542436 365.3039L468.141387 363.612335L538.55523 377.890095L545.233677 381.578359ZM467.663104 364.963106L451.551892 361.696249L451.860539 360.31108L468.141387 363.612335ZM451.588585 361.531573L451.513769 361.742868L374.074873 344.538542L451.860539 360.31108ZM451.531725 361.692159L451.588585 361.531573L451.551892 361.696249ZM545.233677 382.622224L467.025441 366.764002L467.542436 365.3039L545.233677 382.564289ZM450.973061 363.269944L374.074873 344.538542L451.513769 361.742868ZM545.233677 381.465197L538.55523 377.890095L545.233677 379.244278ZM545.233677 381.465197L545.233677 381.578359L538.55523 377.890095ZM374.454965 266.098879L370.595616 285.132088L367.315886 283.970797ZM371.287032 281.722224L374.454965 266.098879L432.299351 121.291673L375.2121 282.518106ZM427.757611 113.270624L432.299351 121.291673L367.315886 283.970797ZM603.57989 155.869005L603.529315 156.011838L432.299351 121.291673L427.757611 113.270624ZM605.874928 149.387333L603.57989 155.869005L427.757611 113.270624ZM604.866068 152.236566L605.874928 149.387333L608.837214 149.987993L608.145799 153.397857ZM548.021518 324.65866L369.904201 288.541952L371.287032 281.722224ZM546.442063 317.238271L544.147861 323.717582L371.287032 281.722224ZM545.433203 320.087505L548.712934 321.248796L548.021518 324.65866L544.147861 323.717582ZM552.192191 384.033196L552.213471 384.037511L552.192191 384.097612ZM549.561761 383.499826L552.192191 384.033196L552.192191 384.097612L551.992664 384.661117L548.712934 383.499826ZM569.221465 325.407295L577.982663 300.663826L611.625056 216.246674L572.722003 326.117096ZM552.192191 373.501555L569.221465 325.407295L572.722003 326.117096L552.213471 384.037511L552.192191 384.033196ZM552.192191 383.499826L552.192191 384.033196L549.561761 383.499826ZM552.192191 373.501555L552.192191 365.378551L577.982663 300.663826ZM608.088351 215.639017L611.625056 216.246674L577.982663 300.663826ZM608.088351 215.639017L607.981474 215.940858L598.19376 233.331603ZM604.666542 215.051101L608.088351 215.639017L598.19376 233.331603ZM552.192191 363.851546L552.192191 363.24973L598.19376 233.331603L607.981474 215.940858ZM552.192191 364.823895L552.192191 363.851546L607.981474 215.940858ZM577.982663 300.663826L552.192191 365.378551L552.192191 364.823895L607.981474 215.940858ZM608.145799 184.224479L611.625056 153.397857L611.625056 216.246674L608.145799 215.648887ZM608.145799 197.553308L608.145799 215.648887L608.088351 215.639017ZM604.666542 215.051101L608.145799 184.224479L608.145799 197.553308ZM608.088351 215.639017L604.666542 215.051101L608.145799 197.553308ZM608.627223 153.56832L608.145799 153.397857L611.625056 153.397857L611.605816 153.56832ZM608.627223 153.56832L611.605816 153.56832L611.491355 154.582456ZM608.145799 163.821798L611.425529 154.559148L611.491355 154.582456L608.145799 184.224479ZM608.120884 163.892162L608.145799 163.821798L608.145799 171.149205ZM607.3978 165.934303L604.666542 215.051101L604.666542 173.647953ZM608.105851 163.93462L608.145799 184.224479L604.666542 215.051101L607.3978 165.934303ZM608.120884 163.892162L608.145799 171.149205L608.145799 184.224479L608.105851 163.93462ZM552.059726 322.433832L552.192191 322.480735L552.192191 383.499826L545.233677 383.499826ZM552.059726 322.433832L552.094542 322.122362L552.192191 321.846582L552.192191 322.480735ZM545.233677 324.093372L551.727042 325.410026L545.233677 383.499826ZM548.021518 324.65866L548.712934 321.248796L552.059726 322.433832L551.727042 325.410026ZM551.992664 322.410087L552.094542 322.122362L552.059726 322.433832ZM545.433203 320.087505L604.866068 152.236566L611.425529 154.559148ZM551.992664 322.410087L545.433203 320.087505L611.425529 154.559148ZM367.116359 284.534301L367.315886 283.970797L370.595616 285.132088ZM367.116359 285.132088L367.116359 284.534301L370.595616 285.132088ZM550.983804 387.510351L548.021518 386.90969L548.712934 383.499826ZM551.992664 384.661117L550.983804 387.510351L548.712934 383.499826ZM611.625056 150.553281L611.625056 153.397857L608.145799 153.397857ZM608.837214 149.987993L611.625056 150.553281L608.145799 153.397857Z" fill="#263c4e" fill-opacity="1"/><defs><g id="surface-5"><defs></defs><g transform="matrix(0.024390243902439025 0 0 0.009259259259259259 0 0)"><g transform="matrix(1 0 0 1 0 0)"><g transform="matrix(1 0 0 1 0 0)"><path d="M23.229150772094727 79.35523986816406Q20.88987922668457 79.35523986816406 18.481294631958008 78.22640991210938Q16.14202117919922 77.01074981689453 14.079996109008789 74.73572540283203L13.785421371459961 74.73572540283203L12.936351776123047 78.5042724609375L4.774889945983887 78.5042724609375L4.774889945983887 28.644760131835938L15.206313133239746 28.644760131835938L15.206313133239746 40.870849609375L14.929065704345703 46.28923034667969Q16.991090774536133 44.43100357055664 19.399675369262695 43.441104888916016Q21.808259963989258 42.364376068115234 24.234172821044922 42.364376068115234Q28.47951889038086 42.364376068115234 31.615877151489258 44.5699348449707Q34.73490524291992 46.77549362182617 36.36373519897461 50.83927917480469Q38.06187057495117 54.81623077392578 38.06187057495117 60.21724319458008Q38.06187057495117 66.26081848144531 35.93053436279297 70.60247039794922Q33.816524505615234 74.8746566772461 30.40291976928711 77.1496810913086Q27.05862808227539 79.35523986816406 23.229150772094727 79.35523986816406ZM20.820566177368164 70.82823944091797Q23.523725509643555 70.82823944091797 25.429800033569336 68.32744598388672Q27.35320281982422 65.84402465820312 27.35320281982422 60.44300842285156Q27.35320281982422 50.90874481201172 21.253765106201172 50.90874481201172Q18.117406845092773 50.90874481201172 15.206313133239746 54.10419845581055L15.206313133239746 68.55321502685547Q16.62720489501953 69.82097625732422 18.048095703125 70.3246078491211Q19.46898651123047 70.82823944091797 20.820566177368164 70.82823944091797Z" fill-rule="nonzero" fill="#253650" fill-opacity="1" stroke="none"/></g></g></g></g></defs><defs><clipPath id="face-18" clipPathUnits="userSpaceOnUse"><path d="M493.358295 248.578324L466.472662 243.126746L485.383119 189.719629ZM512.268752 195.171208L493.358295 248.578324L485.383119 189.719629Z"/></clipPath></defs><g clip-path="url(#face-18)" opacity="1"><g transform="matrix(26.885633 5.451579 -18.910457 53.407117 485.383119 189.719629)"><use xlink:href="#surface-5"/></g></g></g><g opacity="1"><defs><pattern id="paint-cover-284" patternUnits="userSpaceOnUse" x="97.645235" y="920.443062" width="239.550182" height="232.101969" viewBox="97.645235 920.443062 239.550182 232.101969" preserveAspectRatio="none"><path d="M336.195417 983.694092L276.762552 1089.294001L336.195417 921.443062ZM336.195417 983.694092L276.762552 1151.545031L276.762552 1089.294001Z" fill="#a1a8ac" stroke="#a1a8ac" stroke-width="0.8" stroke-linejoin="round"/><path d="M276.762552 1151.545031L98.645235 1053.177292L276.762552 1089.294001ZM276.762552 1151.545031L98.645235 1115.428323L98.645235 1053.177292Z" fill="#b8c0c5" stroke="#b8c0c5" stroke-width="0.8" stroke-linejoin="round"/></pattern></defs><path d="M336.195417 983.694092L276.762552 1089.294001L336.195417 921.443062ZM336.195417 983.694092L276.762552 1151.545031L276.762552 1089.294001ZM276.762552 1151.545031L98.645235 1053.177292L276.762552 1089.294001ZM276.762552 1151.545031L98.645235 1115.428323L98.645235 1053.177292Z" fill="url(#paint-cover-284)" fill-opacity="1"/><defs><clipPath id="face-21" clipPathUnits="userSpaceOnUse"><path d="M279.222759 1092.479979L94.384033 1055.000376L155.617893 882.063045ZM340.456619 919.542648L279.222759 1092.479979L155.617893 882.063045Z"/></clipPath></defs><defs><filter id="light-21" color-interpolation-filters="linearRGB"><feComponentTransfer><feFuncR type="linear" slope="0.972121" intercept="0.008392"/><feFuncG type="linear" slope="0.974697" intercept="0.008443"/><feFuncB type="linear" slope="0.978132" intercept="0.00851"/></feComponentTransfer></filter></defs><g clip-path="url(#face-21)" opacity="1"><g transform="matrix(184.838726 37.479603 -61.233861 172.937331 155.617893 882.063045)" filter="url(#light-21)"><use xlink:href="#surface-2"/></g></g><path d="M95.537417 1114.798153L95.165978 1118.272899L95.165978 1114.722837ZM100.332877 1057.069556L101.252345 1061.336066L95.537417 1114.798153L95.165978 1114.722837L95.165978 1056.021868ZM98.645235 1053.177292L97.953819 1056.587157L95.165978 1056.021868L95.165978 1053.177292ZM100.332877 1057.069556L101.679238 1057.342557L101.252345 1061.336066ZM98.645235 1115.428323L95.165978 1118.272899L95.537417 1114.798153ZM98.813918 1115.290411L98.645235 1115.428323L95.537417 1114.798153L101.252345 1061.336066ZM101.807121 1057.368488L101.252345 1061.336066L101.679238 1057.342557ZM101.997532 1057.407097L98.813918 1115.290411L101.252345 1061.336066L101.807121 1057.368488ZM102.124492 1057.432841L102.124492 1112.583747L98.813918 1115.290411L101.997532 1057.407097ZM184.881127 1132.742191L276.071137 1154.954895L95.165978 1118.272899L98.813918 1115.290411ZM98.813918 1115.290411L102.124492 1112.583747L184.881127 1132.742191ZM273.283296 1151.545031L276.762552 1151.545031L276.071137 1154.954895L272.986136 1154.203429ZM273.283296 1150.667429L273.283296 1151.545031L272.986136 1154.203429L184.881127 1132.742191ZM273.283296 1150.609493L102.124492 1112.583747L266.604849 1145.9353L273.283296 1149.623564ZM273.283296 1150.667429L184.881127 1132.742191L102.124492 1112.583747L273.283296 1150.609493ZM273.283296 1149.510401L266.604849 1145.9353L273.283296 1147.289483ZM273.283296 1149.510401L273.283296 1149.623564L266.604849 1145.9353ZM102.504584 1034.144084L98.645235 1053.177292L95.365504 1052.016001ZM99.33665 1049.767428L102.504584 1034.144084L160.34897 889.336878L103.261718 1050.563311ZM155.807229 881.315829L160.34897 889.336878L95.365504 1052.016001ZM331.629508 923.91421L331.578934 924.057043L160.34897 889.336878L155.807229 881.315829ZM333.924547 917.432537L331.629508 923.91421L155.807229 881.315829ZM332.915687 920.281771L333.924547 917.432537L336.886833 918.033198L336.195417 921.443062ZM276.071137 1092.703865L97.953819 1056.587157L99.33665 1049.767428ZM274.491682 1085.283476L272.19748 1091.762786L99.33665 1049.767428ZM273.482822 1088.13271L276.762552 1089.294001L276.071137 1092.703865L272.19748 1091.762786ZM280.241809 1152.078401L280.26309 1152.082716L280.241809 1152.142817ZM277.61138 1151.545031L280.241809 1152.078401L280.241809 1152.142817L280.042283 1152.706322L276.762552 1151.545031ZM297.271084 1093.452499L306.032281 1068.709031L339.674674 984.291878L300.771621 1094.162301ZM280.241809 1152.078401L280.241809 1141.54676L297.271084 1093.452499L300.771621 1094.162301L280.26309 1152.082716ZM280.241809 1151.545031L280.241809 1152.078401L277.61138 1151.545031ZM280.241809 1141.54676L280.241809 1133.423755L306.032281 1068.709031ZM336.137969 983.684222L339.674674 984.291878L306.032281 1068.709031ZM336.137969 983.684222L336.031093 983.986062L326.243378 1001.376807ZM332.71616 983.096306L336.137969 983.684222L326.243378 1001.376807ZM280.241809 1131.896751L280.241809 1131.294935L326.243378 1001.376807L336.031093 983.986062ZM280.241809 1132.869099L280.241809 1131.896751L336.031093 983.986062ZM306.032281 1068.709031L280.241809 1133.423755L280.241809 1132.869099L336.031093 983.986062ZM336.195417 952.269684L339.674674 921.443062L339.674674 984.291878L336.195417 983.694092ZM336.195417 965.598512L336.195417 983.694092L336.137969 983.684222ZM332.71616 983.096306L336.195417 952.269684L336.195417 965.598512ZM336.137969 983.684222L332.71616 983.096306L336.195417 965.598512ZM336.676841 921.613525L336.195417 921.443062L339.674674 921.443062L339.655435 921.613525ZM336.676841 921.613525L339.655435 921.613525L339.540974 922.627661ZM336.195417 931.867003L339.475148 922.604353L339.540974 922.627661L336.195417 952.269684ZM336.170503 931.937367L336.195417 931.867003L336.195417 939.19441ZM334.759249 935.923046L336.170503 931.937367L336.195417 939.19441ZM332.71616 983.096306L332.71616 941.693158L334.759249 935.923046L336.195417 939.19441ZM336.195417 952.269684L332.71616 983.096306L336.195417 939.19441ZM280.109344 1090.479037L280.241809 1090.52594L280.241809 1151.545031L273.283296 1151.545031ZM280.109344 1090.479037L280.144161 1090.167567L280.241809 1089.891787L280.241809 1090.52594ZM278.994623 1093.414106L280.144161 1090.167567L279.76046 1093.600161ZM280.042283 1090.455292L278.994623 1093.414106L276.071137 1092.703865L276.762552 1089.294001ZM273.283296 1092.138576L276.071137 1092.703865L279.76046 1093.600161L273.283296 1151.545031ZM273.482822 1088.13271L332.915687 920.281771L339.475148 922.604353ZM280.042283 1090.455292L273.482822 1088.13271L339.475148 922.604353ZM95.165978 1052.579506L95.365504 1052.016001L98.645235 1053.177292ZM95.165978 1053.177292L95.165978 1052.579506L98.645235 1053.177292ZM279.033423 1155.555556L276.071137 1154.954895L276.762552 1151.545031ZM280.042283 1152.706322L279.033423 1155.555556L276.762552 1151.545031ZM339.674674 918.598486L339.674674 921.443062L336.195417 921.443062ZM336.886833 918.033198L339.674674 918.598486L336.195417 921.443062Z" fill="#263c4e" fill-opacity="1"/><defs><g id="surface-6"><defs></defs><g transform="matrix(0.024390243902439025 0 0 0.009259259259259259 0 0)"><g transform="matrix(1 0 0 1 0 0)"><g transform="matrix(1 0 0 1 0 0)"><path d="M14.820699691772461 74.10596466064453Q9.584064483642578 74.10596466064453 6.494826793670654 70.78328704833984Q3.4055891036987305 67.38510131835938 3.4055891036987305 62.51435852050781Q3.4055891036987305 56.47312927246094 8.49152946472168 53.07493591308594Q13.596306800842285 49.6767463684082 24.93606948852539 48.506256103515625Q24.785375595092773 45.95761489868164 23.391450881958008 44.48506546020508Q22.072874069213867 42.9370002746582 18.908288955688477 42.9370002746582Q16.516014099121094 42.9370002746582 14.04839038848877 43.880943298339844Q11.580767631530762 44.80600357055664 8.811755180358887 46.42958450317383L4.724166393280029 38.91580581665039Q8.340834617614746 36.68810272216797 12.428423881530762 35.29106903076172Q16.591360092163086 33.89403533935547 21.074522018432617 33.89403533935547Q28.40204429626465 33.89403533935547 32.33893966674805 38.16065216064453Q36.27583312988281 42.40839385986328 36.27583312988281 51.22481155395508L36.27583312988281 73.18090057373047L27.008119583129883 73.18090057373047L26.235811233520508 69.23522186279297L25.93442153930664 69.23522186279297Q23.542146682739258 71.40628814697266 20.773134231567383 72.8033218383789Q18.060632705688477 74.10596466064453 14.820699691772461 74.10596466064453ZM18.682247161865234 65.28954315185547Q20.60360336303711 65.28954315185547 21.997526168823242 64.43999481201172Q23.466798782348633 63.51493453979492 24.93606948852539 62.04238510131836L24.93606948852539 55.32151794433594Q18.908288955688477 56.095550537109375 16.591360092163086 57.794647216796875Q14.293269157409668 59.41822814941406 14.293269157409668 61.66481018066406Q14.293269157409668 63.51493453979492 15.442315101623535 64.43999481201172Q16.685544967651367 65.28954315185547 18.682247161865234 65.28954315185547Z" fill-rule="nonzero" fill="#253650" fill-opacity="1" stroke="none"/></g></g></g></g></defs><defs><clipPath id="face-23" clipPathUnits="userSpaceOnUse"><path d="M221.407914 1016.623529L194.522281 1011.171951L213.432738 957.764834ZM240.318371 963.216412L221.407914 1016.623529L213.432738 957.764834Z"/></clipPath></defs><g clip-path="url(#face-23)" opacity="1"><g transform="matrix(26.885633 5.451579 -18.910457 53.407117 213.432738 957.764834)"><use xlink:href="#surface-6"/></g></g></g><g opacity="1"><path d="M449.664394 366.965894L448.026883 371.590571L448.909371 366.812798ZM465.795774 370.236841L469.658139 371.02001L426.100432 494.036155L425.435252 493.901277L429.172188 473.669569ZM448.909371 366.812798L448.026883 371.590571L406.106688 489.982039L405.129639 489.783924L448.687345 366.767778ZM429.172188 473.669569L425.435252 493.901277L422.238067 493.252986Z" fill="#f5f7fb" fill-opacity="1"/></g><g opacity="1"><path d="M467.542436 365.3039L422.238067 493.252986L451.540196 361.748739ZM467.663104 364.963106L467.542436 365.3039L451.540196 361.748739L451.551892 361.696249ZM451.540196 361.748739L422.238067 493.252986L406.106688 489.982039L451.513769 361.742868ZM451.551892 361.696249L451.540196 361.748739L451.513769 361.742868L451.531725 361.692159ZM434.336602 495.706197L405.167398 517.049473L394.008153 487.528829Z" fill="#8c606b" fill-opacity="1"/></g><g opacity="1"><path d="M300.663267 787.776487L299.127116 792.1149L299.686218 787.578371ZM316.794647 791.047434L320.657012 791.830602L289.128647 880.873352L288.211063 880.687294L289.89617 867.014401ZM299.127116 792.1149L269.134902 876.819236L268.157853 876.621121L299.686218 787.578371ZM289.89617 867.014401L288.211063 880.687294L285.266282 880.090183Z" fill="#f5f7fb" fill-opacity="1"/></g><g opacity="1"><path d="M318.237305 786.973063L285.266282 880.090183L302.105925 783.702116ZM285.266282 880.090183L269.134902 876.819236L302.105925 783.702116ZM297.364816 882.543393L268.195612 903.88667L257.036367 874.366026Z" fill="#3d6d8f" fill-opacity="1"/></g></svg>