<svg xmlns="http://www.w3.org/2000/svg" xmlns:xlink="http://www.w3.org/1999/xlink" width="867" height="1200" viewBox="0 0 867 1200" role="img"><title>D2 isometric diagram</title><rect width="100%" height="100%" fill="#f5f7fb"/><defs><filter id="ground-softness" filterUnits="userSpaceOnUse" x="0" y="0" width="867" height="1200" color-interpolation-filters="sRGB"><feGaussianBlur stdDeviation="0.633827 0.426056"/></filter></defs><g filter="url(#ground-softness)"><g opacity="0.079373"><path d="M220.49082 512.012549L821.99144 633.978356L805.31212 631.202567L220.290534 512.5782ZM821.99144 633.978356L821.043675 634.392442L805.31212 631.202567ZM821.99144 633.978356L645.975082 1131.085658L649.630821 1118.498475L821.043675 634.392442ZM645.975082 1131.085658L645.227603 1130.934092L649.630821 1118.498475ZM645.027316 1131.499743L59.258251 1012.723811L44.474461 1009.119851L645.975082 1131.085658ZM59.258251 1012.723811L43.526696 1009.533936L44.474461 1009.119851ZM43.526696 1009.533936L214.93955 525.427902L220.49082 512.012549L44.474461 1009.119851ZM214.93955 525.427902L219.543055 512.426634L220.49082 512.012549ZM618.171628 90.718299L827.905397 133.24585L605.643005 126.101772ZM605.643005 126.101772L827.905397 133.24585L767.387802 159.686407L605.382756 126.836771ZM827.905397 133.24585L757.92299 330.890922L752.915737 200.55857L767.387802 159.686407ZM757.92299 330.890922L710.194267 321.213006L752.915737 200.55857ZM697.405395 357.331478L654.03334 348.536961L548.189221 288.36337L757.92299 330.890922ZM654.03334 348.536961L487.671626 314.803927L548.189221 288.36337ZM487.671626 314.803927L502.143691 273.931764L618.171628 90.718299L548.189221 288.36337ZM502.143691 273.931764L557.654033 117.158856L618.171628 90.718299ZM453.338676 663.414968L659.115204 705.140113L440.863537 698.647392ZM440.863537 698.647392L659.115204 705.140113L582.820106 738.47397L437.215625 708.949864ZM659.115204 705.140113L589.132797 902.785185L582.820106 738.47397ZM589.132797 902.785185L528.96075 890.584146L582.820106 738.47397ZM512.837699 936.119042L383.356269 861.06004L589.132797 902.785185ZM512.837699 936.119042L307.061171 894.393897L383.356269 861.06004ZM307.061171 894.393897L453.338676 663.414968L383.356269 861.06004ZM307.061171 894.393897L377.043578 696.748826L453.338676 663.414968Z" fill="#243754"/><defs><g id="surface-0"><defs></defs><g transform="matrix(0.01818181818181818 0 0 0.014705882352941175 0.01818181818181818 0.014705882352941175)"><g transform="matrix(1 0 0 1 0 0)"><g transform="matrix(1 0 0 1 0 0)"><rect x="-1" y="-1" width="55" height="68" rx="0" ry="0" fill="#000000" fill-opacity="0" stroke="none"/></g><g transform="matrix(1 0 0 1 0 0)"><g transform="matrix(1 0 0 1 0 0)"><rect x="0" y="0" width="53" height="66" rx="0" ry="0" fill="#dce5eb" fill-opacity="1" stroke="none"/></g></g></g></g></g></defs><defs><clipPath id="shadow-clip-19"><path d="M832.970366 131.03293L760.867279 334.667246L615.322115 86.900566Z"/></clipPath><filter id="shadow-ink-19" color-interpolation-filters="sRGB"><feColorMatrix values="0 0 0 0 0.14117647 0 0 0 0 0.21568627 0 0 0 0 0.32941176 0 0 0 1 0"/></filter></defs><g clip-path="url(#shadow-clip-19)"><g transform="matrix(217.648251 44.132364 -72.103087 203.634316 615.322115 86.900566)" filter="url(#shadow-ink-19)"><use xlink:href="#surface-0"/></g></g><defs><clipPath id="shadow-clip-18"><path d="M760.867279 334.667246L543.219029 290.534882L615.322115 86.900566Z"/></clipPath><filter id="shadow-ink-18" color-interpolation-filters="sRGB"><feColorMatrix values="0 0 0 0 0.14117647 0 0 0 0 0.21568627 0 0 0 0 0.32941176 0 0 0 1 0"/></filter></defs><g clip-path="url(#shadow-clip-18)"><g transform="matrix(217.648251 44.132364 -72.103087 203.634316 615.322115 86.900566)" filter="url(#shadow-ink-18)"><use xlink:href="#surface-0"/></g></g><defs><g id="surface-1"><defs></defs><g transform="matrix(0.006493506493506494 0 0 0.005952380952380952 0.006493506493506494 0.005952380952380952)"><g transform="matrix(1 0 0 1 0 0)"><g transform="matrix(1 0 0 1 0 0)"><rect x="-1" y="-1" width="154" height="168" rx="0" ry="0" fill="#000000" fill-opacity="0" stroke="none"/></g><g transform="matrix(1 0 0 1 0 0)"><g transform="matrix(1 0 0 1 0 0)"><rect x="0" y="0" width="152" height="166" rx="0" ry="0" fill="#e3e9fd" fill-opacity="1" stroke="#0d32b2" stroke-opacity="1" stroke-width="2" stroke-linecap="butt" stroke-linejoin="round" stroke-miterlimit="4"/></g></g></g></g></g></defs><defs><clipPath id="shadow-clip-9"><path d="M428.646768 551.01054L366.954287 725.24311L217.593919 508.21552ZM377.043578 696.748826L428.646768 551.01054L621.232493 590.060996ZM694.595342 604.936723L827.009021 631.786141L648.871983 1134.882687L555.16391 998.720481ZM589.132797 902.785185L555.16391 998.720481L512.25595 936.373212ZM512.837699 936.119042L512.25595 936.373212L511.958312 935.940729ZM453.338676 663.414968L577.846471 609.01665L580.930373 689.286636ZM582.820106 738.47397L567.975353 780.398682L442.608561 835.172303L423.857341 807.925904ZM437.215625 708.949864L582.820106 738.47397L423.857341 807.925904L409.537551 787.118581ZM567.975353 780.398682L528.96075 890.584146L472.923654 879.221548L442.608561 835.172303ZM580.930373 689.286636L577.846471 609.01665L621.232493 590.060996L694.595342 604.936723L659.115204 705.140113Z"/></clipPath><filter id="shadow-ink-9" color-interpolation-filters="sRGB"><feColorMatrix values="0 0 0 0 0.14117647 0 0 0 0 0.21568627 0 0 0 0 0.32941176 0 0 0 1 0"/></filter></defs><g clip-path="url(#shadow-clip-9)"><g transform="matrix(609.415102 123.57062 -178.137038 503.096546 217.593919 508.21552)" filter="url(#shadow-ink-9)"><use xlink:href="#surface-1"/></g></g><defs><g id="surface-2"><defs></defs><g transform="matrix(0.018518518518518517 0 0 0.014705882352941175 0.018518518518518517 0.014705882352941175)"><g transform="matrix(1 0 0 1 0 0)"><g transform="matrix(1 0 0 1 0 0)"><rect x="-1" y="-1" width="54" height="68" rx="0" ry="0" fill="#000000" fill-opacity="0" stroke="none"/></g><g transform="matrix(1 0 0 1 0 0)"><g transform="matrix(1 0 0 1 0 0)"><rect x="0" y="0" width="52" height="66" rx="0" ry="0" fill="#dce5eb" fill-opacity="1" stroke="none"/></g></g></g></g></g></defs><defs><clipPath id="shadow-clip-29"><path d="M664.180173 702.927193L592.077086 906.561509L450.489163 659.597235Z"/></clipPath><filter id="shadow-ink-29" color-interpolation-filters="sRGB"><feColorMatrix values="0 0 0 0 0.14117647 0 0 0 0 0.21568627 0 0 0 0 0.32941176 0 0 0 1 0"/></filter></defs><g clip-path="url(#shadow-clip-29)"><g transform="matrix(213.69101 43.329958 -72.103087 203.634316 450.489163 659.597235)" filter="url(#shadow-ink-29)"><use xlink:href="#surface-2"/></g></g><defs><clipPath id="shadow-clip-8"><path d="M366.954287 725.24311L250.50973 1054.107086L39.456881 1011.312066L217.593919 508.21552ZM367.233217 906.594936L511.958312 935.940729L648.871983 1134.882687L310.681777 1066.308125ZM383.356269 861.06004L409.537551 787.118581L442.608561 835.172303ZM383.356269 861.06004L442.608561 835.172303L472.923654 879.221548ZM307.061171 894.393897L367.233217 906.594936L310.681777 1066.308125L250.50973 1054.107086Z"/></clipPath><filter id="shadow-ink-8" color-interpolation-filters="sRGB"><feColorMatrix values="0 0 0 0 0.14117647 0 0 0 0 0.21568627 0 0 0 0 0.32941176 0 0 0 1 0"/></filter></defs><g clip-path="url(#shadow-clip-8)"><g transform="matrix(609.415102 123.57062 -178.137038 503.096546 217.593919 508.21552)" filter="url(#shadow-ink-8)"><use xlink:href="#surface-1"/></g></g><defs><clipPath id="shadow-clip-28"><path d="M592.077086 906.561509L378.386077 863.231551L450.489163 659.597235Z"/></clipPath><filter id="shadow-ink-28" color-interpolation-filters="sRGB"><feColorMatrix values="0 0 0 0 0.14117647 0 0 0 0 0.21568627 0 0 0 0 0.32941176 0 0 0 1 0"/></filter></defs><g clip-path="url(#shadow-clip-28)"><g transform="matrix(213.69101 43.329958 -72.103087 203.634316 450.489163 659.597235)" filter="url(#shadow-ink-28)"><use xlink:href="#surface-2"/></g></g></g></g><g opacity="1"><defs><pattern id="paint-cover-0" patternUnits="userSpaceOnUse" x="36.5056" y="500.666572" width="779.516979" height="655.888983" viewBox="36.5056 500.666572 779.516979 655.888983" preserveAspectRatio="none"><path d="M213.521958 501.666572L815.022579 623.632379L213.521958 536.482447ZM815.022579 623.632379L803.520727 656.116033L213.521958 536.482447ZM639.00622 1155.555556L37.5056 998.773873L639.00622 1120.739681ZM639.00622 1155.555556L37.5056 1033.589748L37.5056 998.773873Z" fill="#a0a5b3" stroke="#a0a5b3" stroke-width="0.8" stroke-linejoin="round"/><path d="M815.022579 658.448254L639.00622 1120.739681L815.022579 623.632379ZM815.022579 658.448254L639.00622 1155.555556L639.00622 1120.739681ZM37.5056 998.773873L213.521958 501.666572L48.301959 1000.963043ZM48.301959 1000.963043L213.521958 501.666572L213.521958 536.482447L49.007451 1001.106095Z" fill="#8b909d" stroke="#8b909d" stroke-width="0.8" stroke-linejoin="round"/></pattern></defs><path d="M213.521958 501.666572L815.022579 623.632379L213.521958 536.482447ZM815.022579 623.632379L803.520727 656.116033L213.521958 536.482447ZM639.00622 1155.555556L37.5056 998.773873L639.00622 1120.739681ZM639.00622 1155.555556L37.5056 1033.589748L37.5056 998.773873ZM815.022579 658.448254L639.00622 1120.739681L815.022579 623.632379ZM815.022579 658.448254L639.00622 1155.555556L639.00622 1120.739681ZM37.5056 998.773873L213.521958 501.666572L48.301959 1000.963043ZM48.301959 1000.963043L213.521958 501.666572L213.521958 536.482447L49.007451 1001.106095Z" fill="url(#paint-cover-0)" fill-opacity="1"/></g><g opacity="1"><defs><pattern id="paint-cover-14" patternUnits="userSpaceOnUse" x="480.650529" y="90.694402" width="281.716177" height="272.945879" viewBox="480.650529 90.694402 281.716177 272.945879" preserveAspectRatio="none"><path d="M761.366706 164.99521L691.384298 289.339474L761.366706 91.694402ZM761.366706 164.99521L691.384298 362.640281L691.384298 289.339474Z" fill="#a1a8ac" stroke="#a1a8ac" stroke-width="0.8" stroke-linejoin="round"/><path d="M691.384298 362.640281L481.650529 246.811923L691.384298 289.339474ZM589.838372 306.560147L578.113898 339.672532L481.650529 320.11273L481.650529 246.811923ZM606.867005 315.964444L691.384298 362.640281L597.108654 343.524083ZM578.998656 337.173789L589.838372 306.560147L606.867005 315.964444L597.993412 341.025341Z" fill="#b8c0c5" stroke="#b8c0c5" stroke-width="0.8" stroke-linejoin="round"/></pattern></defs><path d="M761.366706 164.99521L691.384298 289.339474L761.366706 91.694402ZM761.366706 164.99521L691.384298 362.640281L691.384298 289.339474ZM691.384298 362.640281L481.650529 246.811923L691.384298 289.339474ZM589.838372 306.560147L578.113898 339.672532L481.650529 320.11273L481.650529 246.811923ZM606.867005 315.964444L691.384298 362.640281L597.108654 343.524083ZM578.998656 337.173789L589.838372 306.560147L606.867005 315.964444L597.993412 341.025341Z" fill="url(#paint-cover-14)" fill-opacity="1"/><defs><clipPath id="face-5" clipPathUnits="userSpaceOnUse"><path d="M694.281199 293.090974L476.632949 248.95861L548.736035 45.324294ZM766.384286 89.456658L694.281199 293.090974L548.736035 45.324294Z"/></clipPath></defs><defs><filter id="light-5" color-interpolation-filters="linearRGB"><feComponentTransfer><feFuncR type="linear" slope="0.972121" intercept="0.008392"/><feFuncG type="linear" slope="0.974697" intercept="0.008443"/><feFuncB type="linear" slope="0.978132" intercept="0.00851"/></feComponentTransfer></filter></defs><g clip-path="url(#face-5)" opacity="1"><g transform="matrix(217.648251 44.132364 -72.103087 203.634316 548.736035 45.324294)" filter="url(#light-5)"><use xlink:href="#surface-0"/></g></g><path d="M477.991063 319.370703L477.553692 323.462228L477.553692 319.282018ZM483.637734 251.395077L484.72041 256.418908L477.991063 319.370703L477.553692 319.282018L477.553692 250.161421ZM481.650529 246.811923L480.836385 250.82705L477.553692 250.161421L477.553692 246.811923ZM485.223079 251.716536L484.72041 256.418908L483.637734 251.395077ZM481.650529 320.11273L477.553692 323.462228L477.991063 319.370703ZM481.849154 319.950338L481.650529 320.11273L477.991063 319.370703L484.72041 256.418908ZM485.373662 251.74707L484.72041 256.418908L485.223079 251.716536ZM485.597871 251.792533L481.849154 319.950338L484.72041 256.418908L485.373662 251.74707ZM485.747366 251.822846L485.747366 316.763232L481.849154 319.950338L485.597871 251.792533ZM578.180852 339.483441L576.732914 343.572721L477.553692 323.462228L481.849154 319.950338ZM596.989574 343.860392L690.570154 366.655408L595.727671 347.424273ZM578.180852 339.483441L481.849154 319.950338L485.747366 316.763232L578.247547 339.295077ZM597.175608 343.334992L687.287461 361.606902L687.287461 365.855787L596.989574 343.860392ZM687.287461 362.640281L691.384298 362.640281L690.570154 366.655408L687.287461 365.855787ZM687.287461 361.538683L597.771772 341.651299L598.489638 339.623894L679.423567 356.034803L687.287461 360.377747ZM597.926459 341.214432L578.952031 337.367002L579.344216 335.741792L598.489638 339.623894ZM578.998656 337.173789L578.897962 337.458171L485.747366 316.763232L579.344216 335.741792ZM578.931702 337.36288L578.998656 337.173789L578.952031 337.367002ZM687.287461 361.606902L597.175608 343.334992L597.771772 341.651299L687.287461 361.538683ZM578.247547 339.295077L485.747366 316.763232L578.897962 337.458171ZM687.287461 360.244498L679.423567 356.034803L687.287461 357.629359ZM687.287461 360.244498L687.287461 360.377747L679.423567 356.034803ZM486.194926 224.400253L481.650529 246.811923L477.788635 245.444499ZM482.464673 242.796796L486.194926 224.400253L554.306895 53.889258L487.086455 243.733951ZM548.958979 44.444444L554.306895 53.889258L477.788635 245.444499ZM755.990332 94.604188L755.93078 94.772374L554.306895 53.889258L548.958979 44.444444ZM758.692748 86.971996L755.990332 94.604188L548.958979 44.444444ZM757.504812 90.326978L758.692748 86.971996L762.18085 87.679275L761.366706 91.694402ZM690.570154 293.354601L480.836385 250.82705L482.464673 242.796796ZM688.71034 284.617067L686.008909 292.246478L482.464673 242.796796ZM687.522404 287.97205L691.384298 289.339474L690.570154 293.354601L686.008909 292.246478ZM695.481135 363.268327L695.506193 363.273408L695.481135 363.344177ZM692.383795 362.640281L695.481135 363.268327L695.481135 363.344177L695.246192 364.007706L691.384298 362.640281ZM715.533166 294.236121L725.849507 265.1006L765.463543 165.699105L719.655061 295.071914ZM695.481135 350.867282L715.533166 294.236121L719.655061 295.071914L695.506193 363.273408L695.481135 363.268327ZM695.481135 362.640281L695.481135 363.268327L692.383795 362.640281ZM695.481135 350.867282L695.481135 341.302416L725.849507 265.1006ZM761.29906 164.983587L765.463543 165.699105L725.849507 265.1006ZM761.29906 164.983587L761.173213 165.339006L749.648145 185.816669ZM757.269868 164.291314L761.29906 164.983587L749.648145 185.816669ZM695.481135 339.504362L695.481135 338.795722L749.648145 185.816669L761.173213 165.339006ZM695.481135 340.649306L695.481135 339.504362L761.173213 165.339006ZM725.849507 265.1006L695.481135 341.302416L695.481135 340.649306L761.173213 165.339006ZM761.366706 127.992858L765.463543 91.694402L765.463543 165.699105L761.366706 164.99521ZM761.366706 143.687601L761.366706 164.99521L761.29906 164.983587ZM757.269868 164.291314L761.366706 127.992858L761.366706 143.687601ZM761.29906 164.983587L757.269868 164.291314L761.366706 143.687601ZM761.933584 91.895123L761.366706 91.694402L765.463543 91.694402L765.440889 91.895123ZM761.933584 91.895123L765.440889 91.895123L765.306111 93.089272ZM761.366706 103.96863L765.2286 93.061827L765.306111 93.089272L761.366706 127.992858ZM761.337369 104.051483L761.366706 103.96863L761.366706 112.596677ZM760.485935 106.456112L757.269868 164.291314L757.269868 115.538962ZM761.319667 104.101478L761.366706 127.992858L757.269868 164.291314L760.485935 106.456112ZM761.337369 104.051483L761.366706 112.596677L761.366706 127.992858L761.319667 104.101478ZM695.366154 290.368101L695.481135 290.043369L695.481135 362.640281L687.287461 362.640281ZM694.012568 294.190912L695.366154 290.368101L694.914345 294.409993ZM695.246192 290.706898L694.012568 294.190912L690.570154 293.354601L691.384298 289.339474ZM687.287461 292.688972L690.570154 293.354601L694.914345 294.409993L687.287461 362.640281ZM687.522404 287.97205L757.504812 90.326978L765.2286 93.061827ZM695.246192 290.706898L687.522404 287.97205L765.2286 93.061827ZM477.553692 246.108027L477.788635 245.444499L481.650529 246.811923ZM477.553692 246.811923L477.553692 246.108027L481.650529 246.811923ZM694.058256 367.362688L690.570154 366.655408L691.384298 362.640281ZM695.246192 364.007706L694.058256 367.362688L691.384298 362.640281ZM765.463543 88.344904L765.463543 91.694402L761.366706 91.694402ZM762.18085 87.679275L765.463543 88.344904L761.366706 91.694402Z" fill="#263c4e" fill-opacity="1"/><defs><g id="surface-3"><defs></defs><g transform="matrix(0.020833333333333332 0 0 0.007874015748031496 0 0)"><g transform="matrix(1 0 0 1 0 0)"><g transform="matrix(1 0 0 1 0 0)"><path d="M1.4604721069335938 86.68820190429688L15.566073417663574 62.56425476074219L2.2982044219970703 40.311798095703125L16.94719886779785 40.311798095703125L21.04529571533203 47.797752380371094Q21.97359275817871 49.760536193847656 22.992456436157227 51.81460952758789Q24.011320114135742 53.77738952636719 24.939619064331055 55.740169525146484L25.301881790161133 55.740169525146484Q26.049047470092773 53.77738952636719 26.88677978515625 51.81460952758789Q27.724512100219727 49.760536193847656 28.449037551879883 47.797752380371094L31.61883544921875 40.311798095703125L45.7017936706543 40.311798095703125L32.343360900878906 64.161865234375L46.539527893066406 86.68820190429688L31.890533447265625 86.68820190429688L27.430173873901367 79.01966094970703Q26.32074546813965 77.05687713623047 25.211315155029297 75.0028076171875Q24.19245147705078 72.94873809814453 23.083023071289062 70.98595428466797L22.698118209838867 70.98595428466797Q21.86038589477539 72.94873809814453 20.954729080200195 75.0028076171875Q20.026432037353516 76.96559143066406 19.18869972229004 79.01966094970703L15.566073417663574 86.68820190429688L1.4604721069335938 86.68820190429688Z" fill-rule="nonzero" fill="#253650" fill-opacity="1" stroke="none"/></g></g></g></g></defs><defs><clipPath id="face-7" clipPathUnits="userSpaceOnUse"><path d="M626.204016 203.769738L594.546089 197.350485L616.813219 134.463417ZM648.471146 140.88267L626.204016 203.769738L616.813219 134.463417Z"/></clipPath></defs><g clip-path="url(#face-7)" opacity="1"><g transform="matrix(31.657927 6.419253 -22.26713 62.887068 616.813219 134.463417)"><use xlink:href="#surface-3"/></g></g></g><g opacity="1"><path d="M576.732914 343.572721L574.385191 350.203187L575.80624 343.38482ZM595.727671 347.424273L600.275619 348.346457L545.731097 502.391686L543.689746 497.48366L545.256846 489.96452ZM575.80624 343.38482L574.385191 350.203187L532.101354 469.621655L531.4353 468.020258L575.582436 343.339439ZM532.101354 469.621655L524.103365 492.209663L522.468462 493.344497L531.4353 468.020258ZM543.098121 496.061215L545.256846 489.96452L543.689746 497.48366Z" fill="#f5f7fb" fill-opacity="1"/></g><g opacity="1"><path d="M597.771772 341.651299L543.098121 496.061215L541.553323 492.347052L578.928399 337.464933ZM597.926459 341.214432L597.771772 341.651299L578.928399 337.464933L578.952031 337.367002ZM578.928399 337.464933L541.553323 492.347052L532.101354 469.621655L578.897962 337.458171ZM578.952031 337.367002L578.928399 337.464933L578.897962 337.458171L578.931702 337.36288ZM537.599738 482.841435L524.103365 492.209663L532.101354 469.621655ZM537.599738 482.841435L553.636689 521.399127L498.235317 510.165434ZM553.636689 521.399127L514.272268 548.723126L498.235317 510.165434Z" fill="#3d6d8f" fill-opacity="1"/></g><g opacity="1"><defs><clipPath id="face-10" clipPathUnits="userSpaceOnUse"><path d="M273.924556 589.846671L184.479546 571.709977L210.625057 497.869543ZM468.564344 918.629995L505.326282 926.084184L641.903121 1124.53671L412.15203 1077.950262ZM187.522876 861.643438L468.564344 918.629995L412.15203 1077.950262L32.488019 1000.966089L55.359856 936.371201ZM273.924556 589.846671L330.814152 672.509911L284.522727 803.246652L282.690388 807.833716L55.359856 936.371201L184.479546 571.709977ZM497.789147 921.668025L499.317147 917.352631L505.09921 925.754239ZM282.762093 807.654211L282.942988 807.690891L282.690388 807.833716ZM284.287784 881.264382L187.522876 861.643438L192.96451 858.566623L284.287784 877.084172ZM284.287784 807.963575L284.287784 877.084172L192.96451 858.566623L282.942988 807.690891ZM284.287784 806.930515L284.287784 807.963575L282.942988 807.690891ZM282.762093 807.654211L284.287784 803.834807L284.287784 806.930515L282.942988 807.690891ZM496.835107 924.362435L497.789147 921.668025L505.09921 925.754239L505.326282 926.084184ZM284.287784 803.910181L284.287784 803.834807L284.522727 803.246652ZM678.055676 1022.434274L641.903121 1124.53671L505.09921 925.754239ZM579.557361 572.677656L564.957701 644.679023L355.693071 602.246598L267.748921 580.873185L210.625057 497.869543ZM354.312087 606.146788L330.814152 672.509911L273.924556 589.846671ZM355.693071 602.246598L354.312087 606.146788L273.924556 589.846671L267.748921 580.873185ZM564.143557 860.529499L564.143557 734.269185L592.41432 654.42659L793.894648 695.280597L723.912241 892.925669ZM522.431912 852.071662L723.912241 892.925669L678.055676 1022.434274L505.09921 925.754239L499.317147 917.352631ZM564.143557 734.269185L564.143557 860.529499L522.431912 852.071662ZM568.240394 628.489715L579.557361 572.677656L820.040159 621.440164L793.894648 695.280597L568.240394 649.524862ZM568.240394 722.698852L568.240394 649.524862L592.41432 654.42659ZM564.957701 644.679023L568.240394 628.489715L568.240394 645.344652Z"/></clipPath></defs><defs><filter id="light-10" color-interpolation-filters="linearRGB"><feComponentTransfer><feFuncR type="linear" slope="0.972121" intercept="0"/><feFuncG type="linear" slope="0.974697" intercept="0"/><feFuncB type="linear" slope="0.978132" intercept="0"/></feComponentTransfer></filter></defs><g clip-path="url(#face-10)" opacity="1"><g transform="matrix(609.415102 123.57062 -178.137038 503.096546 210.625057 497.869543)" filter="url(#light-10)"><use xlink:href="#surface-1"/></g></g></g><g opacity="1"><defs><pattern id="paint-cover-87" patternUnits="userSpaceOnUse" x="287.384621" y="647.69415" width="277.758936" height="272.945879" viewBox="287.384621 647.69415 277.758936 272.945879" preserveAspectRatio="none"><path d="M564.143557 721.994957L494.161149 846.339221L564.143557 648.69415ZM564.143557 721.994957L494.161149 919.640029L494.161149 846.339221Z" fill="#a1a8ac" stroke="#a1a8ac" stroke-width="0.8" stroke-linejoin="round"/><path d="M494.161149 919.640029L288.384621 804.614077L494.161149 846.339221ZM494.161149 919.640029L288.384621 877.914884L288.384621 804.614077Z" fill="#b8c0c5" stroke="#b8c0c5" stroke-width="0.8" stroke-linejoin="round"/></pattern></defs><path d="M564.143557 721.994957L494.161149 846.339221L564.143557 648.69415ZM564.143557 721.994957L494.161149 919.640029L494.161149 846.339221ZM494.161149 919.640029L288.384621 804.614077L494.161149 846.339221ZM494.161149 919.640029L288.384621 877.914884L288.384621 804.614077Z" fill="url(#paint-cover-87)" fill-opacity="1"/><defs><clipPath id="face-13" clipPathUnits="userSpaceOnUse"><path d="M497.058051 850.090722L283.367041 806.760764L355.470128 603.126448ZM569.161137 646.456405L497.058051 850.090722L355.470128 603.126448Z"/></clipPath></defs><defs><filter id="light-13" color-interpolation-filters="linearRGB"><feComponentTransfer><feFuncR type="linear" slope="0.972121" intercept="0.008392"/><feFuncG type="linear" slope="0.974697" intercept="0.008443"/><feFuncB type="linear" slope="0.978132" intercept="0.00851"/></feComponentTransfer></filter></defs><g clip-path="url(#face-13)" opacity="1"><g transform="matrix(213.69101 43.329958 -72.103087 203.634316 355.470128 603.126448)" filter="url(#light-13)"><use xlink:href="#surface-2"/></g></g><path d="M284.725155 877.172857L284.287784 881.264382L284.287784 877.084172ZM290.371826 809.197231L291.454502 814.221061L284.725155 877.172857L284.287784 877.084172L284.287784 807.963575ZM288.384621 804.614077L287.570477 808.629204L284.287784 807.963575L284.287784 804.614077ZM291.957171 809.51869L291.454502 814.221061L290.371826 809.197231ZM288.384621 877.914884L284.287784 881.264382L284.725155 877.172857ZM288.583246 877.752492L288.384621 877.914884L284.725155 877.172857L291.454502 814.221061ZM292.110144 809.549708L291.454502 814.221061L291.957171 809.51869ZM292.333404 809.594979L288.583246 877.752492L291.454502 814.221061L292.110144 809.549708ZM292.481459 809.624999L292.481459 874.565386L288.583246 877.752492L292.333404 809.594979ZM388.044996 897.920273L493.347005 923.655156L284.287784 881.264382L288.583246 877.752492ZM288.583246 877.752492L292.481459 874.565386L388.044996 897.920273ZM490.064312 919.640029L494.161149 919.640029L493.347005 923.655156L489.714723 922.767458ZM490.064312 918.606649L490.064312 919.640029L489.714723 922.767458L388.044996 897.920273ZM490.064312 918.536875L292.481459 874.565386L482.426092 913.08031L490.064312 917.349959ZM490.064312 918.606649L388.044996 897.920273L292.481459 874.565386L490.064312 918.536875ZM490.064312 917.218045L482.426092 913.08031L490.064312 914.629106ZM490.064312 917.349959L482.426092 913.08031L490.064312 917.218045ZM285.901394 799.795308L289.198765 800.59895L288.384621 804.614077L284.522727 803.246652ZM289.198765 800.59895L285.901394 799.795308L361.040987 611.691412L293.820547 801.536105ZM355.693071 602.246598L361.040987 611.691412L284.522727 803.246652ZM558.768303 651.600772L558.707631 651.772122L361.040987 611.691412L355.693071 602.246598ZM561.469599 643.971743L558.768303 651.600772L355.693071 602.246598ZM560.281663 647.326725L561.469599 643.971743L564.957701 644.679023L564.143557 648.69415ZM493.347005 850.354348L287.570477 808.629204L289.198765 800.59895ZM466.53472 836.557222L494.161149 846.339221L493.347005 850.354348L289.198765 800.59895ZM490.299255 844.971797L466.53472 836.557222L491.487191 841.616814ZM498.257987 920.268074L498.283045 920.273155L498.257987 920.343924ZM495.160646 919.640029L498.257987 920.268074L498.257987 920.343924L498.023043 921.007453L494.161149 919.640029ZM518.310017 851.235868L528.626358 822.100347L568.240394 722.698852L522.431912 852.071662ZM498.257987 907.867029L518.310017 851.235868L522.431912 852.071662L498.283045 920.273155L498.257987 920.268074ZM498.257987 919.640029L498.257987 920.268074L495.160646 919.640029ZM498.257987 907.867029L498.257987 898.302163L528.626358 822.100347ZM564.075912 721.983335L568.240394 722.698852L528.626358 822.100347ZM564.075912 721.983335L563.950065 722.338753L552.424996 742.816416ZM560.04672 721.291062L564.075912 721.983335L552.424996 742.816416ZM498.257987 896.504109L498.257987 895.795469L552.424996 742.816416L563.950065 722.338753ZM498.257987 897.649053L498.257987 896.504109L563.950065 722.338753ZM528.626358 822.100347L498.257987 898.302163L498.257987 897.649053L563.950065 722.338753ZM564.143557 684.992606L568.240394 648.69415L568.240394 722.698852L564.143557 721.994957ZM564.143557 700.687348L564.143557 721.994957L564.075912 721.983335ZM560.04672 721.291062L564.143557 684.992606L564.143557 700.687348ZM564.075912 721.983335L560.04672 721.291062L564.143557 700.687348ZM564.710435 648.894871L564.143557 648.69415L568.240394 648.69415L568.21774 648.894871ZM568.005451 650.061574L564.710435 648.894871L568.21774 648.894871L568.117891 649.779541ZM564.143557 660.968377L568.005451 650.061574L568.117891 649.779541L564.143557 684.992606ZM564.11422 661.051231L564.143557 660.968377L564.143557 669.596424ZM563.262786 663.455859L560.04672 721.291062L560.04672 672.538709ZM564.096518 661.101225L564.143557 684.992606L560.04672 721.291062L563.262786 663.455859ZM564.11422 661.051231L564.143557 669.596424L564.143557 684.992606L564.096518 661.101225ZM498.102008 847.734605L498.257987 847.789834L498.257987 919.640029L490.064312 919.640029ZM498.102008 847.734605L498.143005 847.367849L498.257987 847.043117L498.257987 847.789834ZM490.064312 866.543656L494.161149 846.339221L498.102008 847.734605L490.064312 919.640029ZM498.023043 847.706645L498.143005 847.367849L498.102008 847.734605ZM493.347005 850.354348L490.064312 866.543656L490.064312 849.688719ZM490.299255 844.971797L560.281663 647.326725L568.005451 650.061574ZM498.023043 847.706645L490.299255 844.971797L568.005451 650.061574ZM284.287784 803.910181L284.522727 803.246652L288.384621 804.614077ZM284.287784 804.614077L284.287784 803.910181L288.384621 804.614077ZM496.835107 924.362435L493.347005 923.655156L494.161149 919.640029ZM498.023043 921.007453L496.835107 924.362435L494.161149 919.640029ZM568.240394 645.344652L568.240394 648.69415L564.143557 648.69415ZM564.957701 644.679023L568.240394 645.344652L564.143557 648.69415Z" fill="#263c4e" fill-opacity="1"/><defs><g id="surface-4"><defs></defs><g transform="matrix(0.023809523809523808 0 0 0.007874015748031496 0 0)"><g transform="matrix(1 0 0 1 0 0)"><g transform="matrix(1 0 0 1 0 0)"><path d="M3.6104516983032227 86.12792205810547L3.6104516983032227 78.91192626953125L22.46019172668457 51.36199188232422L5.690117835998535 51.36199188232422L5.690117835998535 40.8720817565918L39.03114700317383 40.8720817565918L39.03114700317383 47.998985290527344L20.181407928466797 75.63800811767578L39.67274475097656 75.63800811767578L39.67274475097656 86.12792205810547L3.6104516983032227 86.12792205810547Z" fill-rule="nonzero" fill="#253650" fill-opacity="1" stroke="none"/></g></g></g></g></defs><defs><clipPath id="face-15" clipPathUnits="userSpaceOnUse"><path d="M428.980868 760.769485L401.280181 755.152639L423.547311 692.26557ZM451.247997 697.882417L428.980868 760.769485L423.547311 692.26557Z"/></clipPath></defs><g clip-path="url(#face-15)" opacity="1"><g transform="matrix(27.700686 5.616846 -22.26713 62.887068 423.547311 692.26557)"><use xlink:href="#surface-4"/></g></g></g><g opacity="1"><defs><g id="surface-5"><defs></defs><g transform="matrix(0.004347826086956522 0 0 0.0045871559633027525 0 0)"><g transform="matrix(1 0 0 1 0 0)"><g transform="matrix(1 0 0 1 0 0)"><path d="M49.335994720458984 168.5000762939453Q43.716827392578125 168.5000762939453 37.656150817871094 165.8913116455078Q31.71588706970215 163.0818634033203 26.457950592041016 158.30580139160156L25.976306915283203 158.30580139160156L24.812335968017578 166.53346252441406L13.975367546081543 166.53346252441406L13.975367546081543 49.499916076660156L27.46137237548828 49.499916076660156L27.46137237548828 81.36708068847656L27.140277862548828 95.85579681396484Q32.55876159667969 91.07974243164062 38.94053268432617 87.94921112060547Q45.522987365722656 84.65814208984375 52.10544204711914 84.65814208984375Q67.71870422363281 84.65814208984375 75.78622436523438 95.69525909423828Q83.85375213623047 106.6922378540039 83.85375213623047 125.27472686767578Q83.85375213623047 138.9206085205078 78.91690826416016 148.63327026367188Q74.14060974121094 158.30580139160156 66.233642578125 163.40293884277344Q58.52735137939453 168.5000762939453 49.335994720458984 168.5000762939453ZM47.008052825927734 157.18202209472656Q56.881736755371094 157.18202209472656 63.303646087646484 148.7938232421875Q69.88610076904297 140.2450714111328 69.88610076904297 125.43526458740234Q69.88610076904297 112.27099609375 64.94925689697266 104.24400329589844Q60.17296600341797 96.01634216308594 48.81421661376953 96.01634216308594Q43.716827392578125 96.01634216308594 38.45888900756836 98.78565216064453Q33.20095443725586 101.59510040283203 27.46137237548828 106.852783203125L27.46137237548828 148.7938232421875Q32.71931076049805 153.36920166015625 37.81669998168945 155.3358154296875Q43.07463455200195 157.18202209472656 47.008052825927734 157.18202209472656ZM121.02053833007812 168.5000762939453Q110.9863052368164 168.5000762939453 104.24330139160156 162.60025024414062Q97.66085052490234 156.49972534179688 97.66085052490234 145.82382202148438Q97.66085052490234 132.65956115722656 109.34069061279297 125.75634765625Q121.18108367919922 118.69259643554688 146.66802978515625 115.88314819335938Q146.66802978515625 110.78600311279297 145.18296813964844 106.21061706542969Q143.8584442138672 101.59510040283203 140.24612426757812 98.78565216064453Q136.79434204101562 95.85579681396484 130.21189880371094 95.85579681396484Q123.30834197998047 95.85579681396484 117.20752716064453 98.46456909179688Q111.14685821533203 101.11347961425781 106.37055969238281 104.40454864501953L101.11262512207031 95.0129623413086Q106.69165802001953 91.40081787109375 114.7591781616211 88.10974884033203Q122.98724365234375 84.65814208984375 132.49969482421875 84.65814208984375Q147.14967346191406 84.65814208984375 153.7321319580078 93.68851470947266Q160.31459045410156 102.59847259521484 160.31459045410156 117.52867889404297L160.31459045410156 166.53346252441406L149.1163787841797 166.53346252441406L147.95240783691406 156.98135375976562L147.47076416015625 156.98135375976562Q141.89173889160156 161.59686279296875 135.1487274169922 165.04847717285156Q128.5662841796875 168.5000762939453 121.02053833007812 168.5000762939453ZM124.9539566040039 157.6636505126953Q130.69354248046875 157.6636505126953 135.79092407226562 154.8542022705078Q140.88832092285156 152.0848846435547 146.66802978515625 146.9877471923828L146.66802978515625 124.79310607910156Q126.76011657714844 127.24134063720703 118.69259643554688 132.17794799804688Q110.82575988769531 137.1145477294922 110.82575988769531 144.82044982910156Q110.82575988769531 151.56312561035156 114.91972351074219 154.6936492919922Q119.0136947631836 157.6636505126953 124.9539566040039 157.6636505126953ZM185.44029235839844 166.53346252441406L185.44029235839844 86.624755859375L196.59835815429688 86.624755859375L197.7623291015625 101.11347961425781L198.2439727783203 101.11347961425781Q202.37808227539062 93.52796936035156 208.27821350097656 89.11312866210938Q214.21847534179688 84.65814208984375 220.9614715576172 84.65814208984375Q225.6976318359375 84.65814208984375 229.51063537597656 86.30368041992188L226.86160278320312 98.14349365234375Q224.8948974609375 97.50133514404297 223.24928283691406 97.14012145996094Q221.60366821289062 96.81903839111328 219.1553192138672 96.81903839111328Q214.05792236328125 96.81903839111328 208.43875122070312 100.95294189453125Q203.020263671875 105.04670715332031 198.92630004882812 115.2409896850586L198.92630004882812 166.53346252441406L185.44029235839844 166.53346252441406Z" fill-rule="nonzero" fill="#253650" fill-opacity="1" stroke="none"/></g></g></g></g></defs><defs><clipPath id="face-16" clipPathUnits="userSpaceOnUse"><path d="M741.588286 740.320783L591.213131 709.829332L629.385354 602.022929ZM779.760509 632.514381L741.588286 740.320783L629.385354 602.022929Z"/></clipPath></defs><g clip-path="url(#face-16)" opacity="1"><g transform="matrix(150.375155 30.491452 -38.172222 107.806403 629.385354 602.022929)"><use xlink:href="#surface-5"/></g></g></g><g opacity="1"><defs><g id="surface-6"><defs></defs><g transform="matrix(0.0027397260273972603 0 0 0.006134969325153374 0 0)"><g transform="matrix(1 0 0 1 0 0)"><g transform="matrix(1 0 0 1 0 0)"><path d="M114.8597640991211 122.35067749023438L114.8597640991211 74.28776550292969L107.26605987548828 74.28776550292969L107.26605987548828 67.17355346679688L114.8597640991211 66.58537292480469L114.8597640991211 57.76263427734375Q114.8597640991211 49.2760009765625 118.76911926269531 44.346473693847656Q122.819091796875 39.27689743041992 131.22842407226562 39.27689743041992Q133.87216186523438 39.27689743041992 136.2908935546875 39.865081787109375Q138.70962524414062 40.3132209777832 140.5658721923828 41.12547302246094L138.48463439941406 48.351715087890625Q135.36277770996094 46.97929000854492 132.1565399169922 46.97929000854492Q124.30970764160156 46.97929000854492 124.30970764160156 57.76263427734375L124.30970764160156 66.58537292480469L136.1783905029297 66.58537292480469L136.1783905029297 74.28776550292969L124.30970764160156 74.28776550292969L124.30970764160156 122.35067749023438L114.8597640991211 122.35067749023438ZM167.53758239746094 123.72309875488281Q160.7313690185547 123.72309875488281 154.74078369140625 120.27803039550781Q148.86270141601562 116.83296203613281 145.1783447265625 110.30693817138672Q141.6064910888672 103.7529067993164 141.6064910888672 94.59406280517578Q141.6064910888672 85.18314361572266 145.1783447265625 78.62911224365234Q148.86270141601562 72.10308074951172 154.74078369140625 68.65801239013672Q160.7313690185547 65.21294403076172 167.53758239746094 65.21294403076172Q174.456298828125 65.21294403076172 180.33438110351562 68.65801239013672Q186.2124786376953 72.10308074951172 189.78433227539062 78.62911224365234Q193.46868896484375 85.18314361572266 193.46868896484375 94.59406280517578Q193.46868896484375 103.7529067993164 189.78433227539062 110.30693817138672Q186.2124786376953 116.83296203613281 180.33438110351562 120.27803039550781Q174.456298828125 123.72309875488281 167.53758239746094 123.72309875488281ZM167.53758239746094 115.93668365478516Q174.79379272460938 115.93668365478516 179.1812744140625 110.08287048339844Q183.6531219482422 104.11701965332031 183.6531219482422 94.59406280517578Q183.6531219482422 84.95907592773438 179.1812744140625 78.99322509765625Q174.79379272460938 73.02737426757812 167.53758239746094 73.02737426757812Q160.3938751220703 73.02737426757812 155.89390563964844 78.99322509765625Q151.42205810546875 84.95907592773438 151.42205810546875 94.59406280517578Q151.42205810546875 104.11701965332031 155.89390563964844 110.08287048339844Q160.3938751220703 115.93668365478516 167.53758239746094 115.93668365478516ZM229.9747314453125 123.72309875488281Q223.16851806640625 123.72309875488281 217.17791748046875 120.27803039550781Q211.29983520507812 116.83296203613281 207.615478515625 110.30693817138672Q204.0436248779297 103.7529067993164 204.0436248779297 94.59406280517578Q204.0436248779297 85.18314361572266 207.615478515625 78.62911224365234Q211.29983520507812 72.10308074951172 217.17791748046875 68.65801239013672Q223.16851806640625 65.21294403076172 229.9747314453125 65.21294403076172Q236.8934326171875 65.21294403076172 242.7715301513672 68.65801239013672Q248.6496124267578 72.10308074951172 252.22146606445312 78.62911224365234Q255.90582275390625 85.18314361572266 255.90582275390625 94.59406280517578Q255.90582275390625 103.7529067993164 252.22146606445312 110.30693817138672Q248.6496124267578 116.83296203613281 242.7715301513672 120.27803039550781Q236.8934326171875 123.72309875488281 229.9747314453125 123.72309875488281ZM229.9747314453125 115.93668365478516Q237.23094177246094 115.93668365478516 241.618408203125 110.08287048339844Q246.0902557373047 104.11701965332031 246.0902557373047 94.59406280517578Q246.0902557373047 84.95907592773438 241.618408203125 78.99322509765625Q237.23094177246094 73.02737426757812 229.9747314453125 73.02737426757812Q222.83102416992188 73.02737426757812 218.33103942871094 78.99322509765625Q213.85919189453125 84.95907592773438 213.85919189453125 94.59406280517578Q213.85919189453125 104.11701965332031 218.33103942871094 110.08287048339844Q222.83102416992188 115.93668365478516 229.9747314453125 115.93668365478516Z" fill-rule="nonzero" fill="#253650" fill-opacity="1" stroke="none"/></g></g></g></g></defs><defs><clipPath id="face-17" clipPathUnits="userSpaceOnUse"><path d="M538.997885 615.038512L602.830323 434.76225L709.675828 456.427229ZM645.84339 636.703491L538.997885 615.038512L709.675828 456.427229Z"/></clipPath></defs><g clip-path="url(#face-17)" opacity="1"><g transform="matrix(-63.832438 180.276262 -106.845505 -21.664979 709.675828 456.427229)"><use xlink:href="#surface-6"/></g></g></g></svg>