<svg xmlns="http://www.w3.org/2000/svg" xmlns:xlink="http://www.w3.org/1999/xlink" width="1200" height="949" viewBox="0 0 1200 949" role="img"><title>D2 isometric diagram</title><rect width="100%" height="100%" fill="#f5f7fb"/><defs><filter id="ground-softness" filterUnits="userSpaceOnUse" x="0" y="0" width="1200" height="949" color-interpolation-filters="sRGB"><feGaussianBlur stdDeviation="0.672948 0.452353"/></filter></defs><g filter="url(#ground-softness)"><g opacity="0.079373"><path d="M240.149647 190.665404L1107.059199 366.447972L1083.80944 362.102563L240.027767 191.009617ZM1107.059199 366.447972L1106.48246 366.699953L1083.80944 362.102563ZM1107.059199 366.447972L918.648053 898.560766L922.99899 884.895951L1106.48246 366.699953ZM918.648053 898.560766L918.193193 898.468534L922.99899 884.895951ZM918.071313 898.812747L73.83478 727.62757L51.7385 722.778199L918.648053 898.560766ZM73.83478 727.62757L51.161761 723.03018L51.7385 722.778199ZM51.161761 723.03018L234.645231 204.834182L240.149647 190.665404L51.7385 722.778199ZM234.645231 204.834182L239.572907 190.917386L240.149647 190.665404ZM399.471894 305.90353L529.508327 332.270915L391.816301 327.524538ZM391.816301 327.524538L529.508327 332.270915L483.080812 352.555418L389.660606 333.612676ZM529.508327 332.270915L486.922246 452.542985L483.080812 352.555418ZM486.922246 452.542985L450.30602 445.118342L483.080812 352.555418ZM440.494731 472.827488L356.885813 426.1756L486.922246 452.542985ZM440.494731 472.827488L310.458299 446.460103L356.885813 426.1756ZM310.458299 446.460103L399.471894 305.90353L356.885813 426.1756ZM310.458299 446.460103L353.04438 326.188033L399.471894 305.90353ZM625.83161 351.802312L753.459961 377.681412L618.207623 373.334058ZM618.207623 373.334058L753.459961 377.681412L707.032447 397.965915L616.020322 379.511458ZM753.459961 377.681412L710.87388 497.953482L707.032447 397.965915ZM710.87388 497.953482L674.257654 490.528838L707.032447 397.965915ZM664.446366 518.237985L583.245529 472.074382L710.87388 497.953482ZM664.446366 518.237985L536.818015 492.358884L583.245529 472.074382ZM536.818015 492.358884L625.83161 351.802312L583.245529 472.074382ZM536.818015 492.358884L579.404096 372.086814L625.83161 351.802312ZM849.783245 397.212808L977.411595 423.091908L842.159257 418.744555ZM842.159257 418.744555L977.411595 423.091908L930.984081 443.376411L839.971956 424.921954ZM977.411595 423.091908L934.825514 543.363978L930.984081 443.376411ZM934.825514 543.363978L898.209288 535.939335L930.984081 443.376411ZM888.398 563.648481L807.197164 517.484878L934.825514 543.363978ZM888.398 563.648481L760.769649 537.769381L807.197164 517.484878ZM760.769649 537.769381L849.783245 397.212808L807.197164 517.484878ZM760.769649 537.769381L803.35573 417.497311L849.783245 397.212808ZM331.076067 499.067764L461.1125 525.435149L323.420474 520.688772ZM323.420474 520.688772L461.1125 525.435149L414.684985 545.719652L321.264779 526.77691ZM461.1125 525.435149L418.526419 645.707219L414.684985 545.719652ZM418.526419 645.707219L381.910193 638.282575L414.684985 545.719652ZM372.098904 665.991722L288.489986 619.339834L418.526419 645.707219ZM372.098904 665.991722L242.062472 639.624336L288.489986 619.339834ZM242.062472 639.624336L331.076067 499.067764L288.489986 619.339834ZM242.062472 639.624336L284.648553 519.352266L331.076067 499.067764ZM557.435783 544.966545L685.064134 570.845645L549.811796 566.498292ZM549.811796 566.498292L685.064134 570.845645L638.63662 591.130148L547.624495 572.675691ZM685.064134 570.845645L642.478053 691.117715L638.63662 591.130148ZM642.478053 691.117715L605.861827 683.693072L638.63662 591.130148ZM596.050539 711.402218L514.849702 665.238615L642.478053 691.117715ZM596.050539 711.402218L468.422188 685.523118L514.849702 665.238615ZM468.422188 685.523118L557.435783 544.966545L514.849702 665.238615ZM468.422188 685.523118L511.008269 565.251048L557.435783 544.966545Z" fill="#243754"/><defs><g id="surface-0"><defs></defs><g transform="matrix(0.01818181818181818 0 0 0.014705882352941176 0.01818181818181818 0.014705882352941176)"><g transform="matrix(1 0 0 1 0 0)"><g transform="matrix(1 0 0 1 0 0)"><rect x="-1" y="-1" width="55" height="68" rx="0" ry="0" fill="#000000" fill-opacity="0" stroke="none"/></g><g transform="matrix(1 0 0 1 0 0)"><g transform="matrix(1 0 0 1 0 0)"><rect x="0" y="0" width="53" height="66" rx="0" ry="0" fill="#dce5eb" fill-opacity="1" stroke="none"/></g></g></g></g></g></defs><defs><clipPath id="shadow-clip-39"><path d="M980.493758 421.74529L936.61719 545.661968L848.049243 394.88962Z"/></clipPath><filter id="shadow-ink-39" color-interpolation-filters="sRGB"><feColorMatrix values="0 0 0 0 0.14117647 0 0 0 0 0.21568627 0 0 0 0 0.32941176 0 0 0 1 0"/></filter></defs><g clip-path="url(#shadow-clip-39)"><g transform="matrix(132.444515 26.85567 -43.876568 123.916678 848.049243 394.88962)" filter="url(#shadow-ink-39)"><use xlink:href="#surface-0"/></g></g><defs><g id="surface-1"><defs></defs><g transform="matrix(0.0027624309392265192 0 0 0.0034013605442176874 0.0027624309392265192 0.0034013605442176874)"><g transform="matrix(1 0 0 1 0 0)"><g transform="matrix(1 0 0 1 0 0)"><rect x="-1" y="-1" width="362" height="294" rx="0" ry="0" fill="#000000" fill-opacity="0" stroke="none"/></g><g transform="matrix(1 0 0 1 0 0)"><g transform="matrix(1 0 0 1 0 0)"><rect x="0" y="0" width="360" height="292" rx="0" ry="0" fill="#e3e9fd" fill-opacity="1" stroke="#0d32b2" stroke-opacity="1" stroke-width="2" stroke-linecap="butt" stroke-linejoin="round" stroke-miterlimit="4"/></g></g></g></g></g></defs><defs><clipPath id="shadow-clip-9"><path d="M781.502967 298.482051L841.210025 310.588804L760.769649 537.769381L685.944303 655.922054L663.312095 632.277988ZM803.35573 417.497311L841.210025 310.588804L897.423209 321.987107L849.783245 397.212808ZM390.898674 219.279526L357.709622 313.012405L238.386808 188.354815ZM390.898674 219.279526L447.111858 230.677829L399.471894 305.90353L365.226653 320.865513L357.709622 313.012405ZM557.551333 253.071555L617.25839 265.178308L536.818015 492.358884L533.856752 497.034856L488.095963 449.228159ZM399.471894 305.90353L447.111858 230.677829L478.644026 237.071582L481.930861 322.62367ZM483.080812 352.555418L459.448021 419.299403L421.368879 379.517789ZM389.660606 333.612676L483.080812 352.555418L421.368879 379.517789L386.357564 342.941162ZM529.508327 332.270915L481.930861 322.62367L478.644026 237.071582L557.551333 253.071555ZM579.404096 372.086814L617.25839 265.178308L626.183368 266.988018L629.235367 346.427623L625.83161 351.802312ZM573.434241 499.783528L635.611538 512.391169L637.486669 561.1984L585.108159 550.577651L563.45774 527.959269ZM583.245529 472.074382L591.633697 448.384428L632.467045 430.544055L634.461587 482.459421ZM591.633697 448.384428L616.020322 379.511458L630.620154 382.471854L632.467045 430.544055ZM625.83161 351.802312L629.235367 346.427623L629.470203 352.540106ZM638.63662 591.130148L634.664153 602.349232L628.26338 595.662288ZM638.63662 591.130148L628.26338 595.662288L620.382156 587.428705ZM536.818015 492.358884L573.434241 499.783528L563.45774 527.959269L533.856752 497.034856ZM685.064134 570.845645L637.486669 561.1984L636.308478 530.531623L710.87388 497.953482L710.681891 498.495699ZM664.446366 518.237985L636.308478 530.531623L635.611538 512.391169ZM674.257654 490.528838L634.461587 482.459421L632.467045 430.544055L707.032447 397.965915ZM632.467045 430.544055L630.620154 382.471854L707.032447 397.965915ZM629.470203 352.540106L626.183368 266.988018L702.595661 282.482079L705.882496 368.034167ZM705.882496 368.034167L702.595661 282.482079L781.502967 298.482051L753.459961 377.681412ZM1005.454601 343.892548L1110.112525 365.113953L920.410891 900.871355L838.528227 815.327818ZM772.99925 614.066995L934.825514 543.363978L838.528227 815.327818L738.673872 711.009098ZM849.783245 397.212808L897.423209 321.987107L926.547295 327.892575L929.83413 413.444663ZM888.398 563.648481L772.99925 614.066995L797.385875 545.194024ZM898.209288 535.939335L807.197164 517.484878L815.585331 493.794925L930.984081 443.376411ZM815.585331 493.794925L839.971956 424.921954L930.984081 443.376411ZM977.411595 423.091908L929.83413 413.444663L926.547295 327.892575L1005.454601 343.892548ZM760.769649 537.769381L797.385875 545.194024L738.673872 711.009098L685.944303 655.922054Z"/></clipPath><filter id="shadow-ink-9" color-interpolation-filters="sRGB"><feColorMatrix values="0 0 0 0 0.14117647 0 0 0 0 0.21568627 0 0 0 0 0.32941176 0 0 0 1 0"/></filter></defs><g clip-path="url(#shadow-clip-9)"><g transform="matrix(871.725716 176.759137 -189.701633 535.757403 238.386808 188.354815)" filter="url(#shadow-ink-9)"><use xlink:href="#surface-1"/></g></g><defs><clipPath id="shadow-clip-38"><path d="M936.61719 545.661968L804.172675 518.806298L848.049243 394.88962Z"/></clipPath><filter id="shadow-ink-38" color-interpolation-filters="sRGB"><feColorMatrix values="0 0 0 0 0.14117647 0 0 0 0 0.21568627 0 0 0 0 0.32941176 0 0 0 1 0"/></filter></defs><g clip-path="url(#shadow-clip-38)"><g transform="matrix(132.444515 26.85567 -43.876568 123.916678 848.049243 394.88962)" filter="url(#shadow-ink-38)"><use xlink:href="#surface-0"/></g></g><defs><g id="surface-2"><defs></defs><g transform="matrix(0.01818181818181818 0 0 0.014705882352941176 0.01818181818181818 0.014705882352941176)"><g transform="matrix(1 0 0 1 0 0)"><g transform="matrix(1 0 0 1 0 0)"><rect x="-1" y="-1" width="55" height="68" rx="0" ry="0" fill="#000000" fill-opacity="0" stroke="none"/></g><g transform="matrix(1 0 0 1 0 0)"><g transform="matrix(1 0 0 1 0 0)"><rect x="0" y="0" width="53" height="66" rx="0" ry="0" fill="#dce5eb" fill-opacity="1" stroke="none"/></g></g></g></g></g></defs><defs><clipPath id="shadow-clip-29"><path d="M756.542124 376.334794L712.665555 500.251472L624.097609 349.479124Z"/></clipPath><filter id="shadow-ink-29" color-interpolation-filters="sRGB"><feColorMatrix values="0 0 0 0 0.14117647 0 0 0 0 0.21568627 0 0 0 0 0.32941176 0 0 0 1 0"/></filter></defs><g clip-path="url(#shadow-clip-29)"><g transform="matrix(132.444515 26.85567 -43.876568 123.916678 624.097609 349.479124)" filter="url(#shadow-ink-29)"><use xlink:href="#surface-2"/></g></g><defs><clipPath id="shadow-clip-28"><path d="M712.665555 500.251472L580.22104 473.395802L624.097609 349.479124Z"/></clipPath><filter id="shadow-ink-28" color-interpolation-filters="sRGB"><feColorMatrix values="0 0 0 0 0.14117647 0 0 0 0 0.21568627 0 0 0 0 0.32941176 0 0 0 1 0"/></filter></defs><g clip-path="url(#shadow-clip-28)"><g transform="matrix(132.444515 26.85567 -43.876568 123.916678 624.097609 349.479124)" filter="url(#shadow-ink-28)"><use xlink:href="#surface-2"/></g></g><defs><g id="surface-3"><defs></defs><g transform="matrix(0.017857142857142856 0 0 0.014705882352941176 0.017857142857142856 0.014705882352941176)"><g transform="matrix(1 0 0 1 0 0)"><g transform="matrix(1 0 0 1 0 0)"><rect x="-1" y="-1" width="56" height="68" rx="0" ry="0" fill="#000000" fill-opacity="0" stroke="none"/></g><g transform="matrix(1 0 0 1 0 0)"><g transform="matrix(1 0 0 1 0 0)"><rect x="0" y="0" width="54" height="66" rx="0" ry="0" fill="#dce5eb" fill-opacity="1" stroke="none"/></g></g></g></g></g></defs><defs><clipPath id="shadow-clip-19"><path d="M532.590489 330.924297L488.713921 454.840975L397.737892 303.580342Z"/></clipPath><filter id="shadow-ink-19" color-interpolation-filters="sRGB"><feColorMatrix values="0 0 0 0 0.14117647 0 0 0 0 0.21568627 0 0 0 0 0.32941176 0 0 0 1 0"/></filter></defs><g clip-path="url(#shadow-clip-19)"><g transform="matrix(134.852597 27.343955 -43.876568 123.916678 397.737892 303.580342)" filter="url(#shadow-ink-19)"><use xlink:href="#surface-3"/></g></g><defs><g id="surface-4"><defs></defs><g transform="matrix(0.01818181818181818 0 0 0.014705882352941176 0.01818181818181818 0.014705882352941176)"><g transform="matrix(1 0 0 1 0 0)"><g transform="matrix(1 0 0 1 0 0)"><rect x="-1" y="-1" width="55" height="68" rx="0" ry="0" fill="#000000" fill-opacity="0" stroke="none"/></g><g transform="matrix(1 0 0 1 0 0)"><g transform="matrix(1 0 0 1 0 0)"><rect x="0" y="0" width="53" height="66" rx="0" ry="0" fill="#dce5eb" fill-opacity="1" stroke="none"/></g></g></g></g></g></defs><defs><clipPath id="shadow-clip-59"><path d="M688.146297 569.499027L644.269728 693.415705L555.701782 542.643357Z"/></clipPath><filter id="shadow-ink-59" color-interpolation-filters="sRGB"><feColorMatrix values="0 0 0 0 0.14117647 0 0 0 0 0.21568627 0 0 0 0 0.32941176 0 0 0 1 0"/></filter></defs><g clip-path="url(#shadow-clip-59)"><g transform="matrix(132.444515 26.85567 -43.876568 123.916678 555.701782 542.643357)" filter="url(#shadow-ink-59)"><use xlink:href="#surface-4"/></g></g><defs><clipPath id="shadow-clip-8"><path d="M663.312095 632.277988L920.410891 900.871355L591.801334 834.239454ZM642.478053 691.117715L591.801334 834.239454L402.673242 795.8901ZM357.709622 313.012405L310.458299 446.460103L124.843304 739.554742L48.685175 724.112218L238.386808 188.354815ZM353.04438 326.188033L357.709622 313.012405L365.226653 320.865513ZM488.095963 449.228159L534.809798 498.030512L434.224274 782.105235L402.673242 795.8901L367.849699 788.828957ZM253.646829 717.744255L418.526419 645.707219L367.849699 788.828957L237.813266 762.461572ZM364.789216 505.903752L412.356844 485.121126L413.535034 515.787904ZM372.098904 665.991722L253.646829 717.744255L278.678698 647.04898ZM406.942062 567.587301L288.489986 619.339834L296.23291 597.472185L414.684985 545.719652ZM296.23291 597.472185L321.264779 526.77691L414.684985 545.719652ZM288.489986 619.339834L406.942062 567.587301L381.910193 638.282575ZM413.535034 515.787904L412.356844 485.121126L486.922246 452.542985L475.248166 485.513047L461.1125 525.435149ZM440.494731 472.827488L364.789216 505.903752L331.076067 499.067764L347.074525 453.884746ZM356.885813 426.1756L386.357564 342.941162L433.844929 392.551629ZM450.30602 445.118342L356.885813 426.1756L433.844929 392.551629L459.448021 419.299403ZM310.458299 446.460103L242.062472 639.624336L172.63954 749.246347L124.843304 739.554742ZM284.648553 519.352266L310.458299 446.460103L347.074525 453.884746L331.076067 499.067764ZM242.062472 639.624336L278.678698 647.04898L237.813266 762.461572L172.63954 749.246347ZM511.008269 565.251048L534.809798 498.030512L573.160824 538.096166ZM557.435783 544.966545L573.160824 538.096166L585.108159 550.577651ZM505.038414 692.947761L596.050539 711.402218L480.651789 761.820732ZM514.849702 665.238615L523.23787 641.548662L628.26338 595.662288L634.664153 602.349232L605.861827 683.693072ZM523.23787 641.548662L547.624495 572.675691L620.382156 587.428705L628.26338 595.662288ZM468.422188 685.523118L505.038414 692.947761L480.651789 761.820732L434.224274 782.105235Z"/></clipPath><filter id="shadow-ink-8" color-interpolation-filters="sRGB"><feColorMatrix values="0 0 0 0 0.14117647 0 0 0 0 0.21568627 0 0 0 0 0.32941176 0 0 0 1 0"/></filter></defs><g clip-path="url(#shadow-clip-8)"><g transform="matrix(871.725716 176.759137 -189.701633 535.757403 238.386808 188.354815)" filter="url(#shadow-ink-8)"><use xlink:href="#surface-1"/></g></g><defs><clipPath id="shadow-clip-18"><path d="M488.713921 454.840975L353.861324 427.49702L397.737892 303.580342Z"/></clipPath><filter id="shadow-ink-18" color-interpolation-filters="sRGB"><feColorMatrix values="0 0 0 0 0.14117647 0 0 0 0 0.21568627 0 0 0 0 0.32941176 0 0 0 1 0"/></filter></defs><g clip-path="url(#shadow-clip-18)"><g transform="matrix(134.852597 27.343955 -43.876568 123.916678 397.737892 303.580342)" filter="url(#shadow-ink-18)"><use xlink:href="#surface-3"/></g></g><defs><clipPath id="shadow-clip-58"><path d="M644.269728 693.415705L511.825213 666.560035L555.701782 542.643357Z"/></clipPath><filter id="shadow-ink-58" color-interpolation-filters="sRGB"><feColorMatrix values="0 0 0 0 0.14117647 0 0 0 0 0.21568627 0 0 0 0 0.32941176 0 0 0 1 0"/></filter></defs><g clip-path="url(#shadow-clip-58)"><g transform="matrix(132.444515 26.85567 -43.876568 123.916678 555.701782 542.643357)" filter="url(#shadow-ink-58)"><use xlink:href="#surface-4"/></g></g><defs><g id="surface-5"><defs></defs><g transform="matrix(0.017857142857142856 0 0 0.014705882352941176 0.017857142857142856 0.014705882352941176)"><g transform="matrix(1 0 0 1 0 0)"><g transform="matrix(1 0 0 1 0 0)"><rect x="-1" y="-1" width="56" height="68" rx="0" ry="0" fill="#000000" fill-opacity="0" stroke="none"/></g><g transform="matrix(1 0 0 1 0 0)"><g transform="matrix(1 0 0 1 0 0)"><rect x="0" y="0" width="54" height="66" rx="0" ry="0" fill="#dce5eb" fill-opacity="1" stroke="none"/></g></g></g></g></g></defs><defs><clipPath id="shadow-clip-49"><path d="M464.194662 524.088531L420.318094 648.005209L329.342065 496.744576Z"/></clipPath><filter id="shadow-ink-49" color-interpolation-filters="sRGB"><feColorMatrix values="0 0 0 0 0.14117647 0 0 0 0 0.21568627 0 0 0 0 0.32941176 0 0 0 1 0"/></filter></defs><g clip-path="url(#shadow-clip-49)"><g transform="matrix(134.852597 27.343955 -43.876568 123.916678 329.342065 496.744576)" filter="url(#shadow-ink-49)"><use xlink:href="#surface-5"/></g></g><defs><clipPath id="shadow-clip-48"><path d="M420.318094 648.005209L285.465497 620.661254L329.342065 496.744576Z"/></clipPath><filter id="shadow-ink-48" color-interpolation-filters="sRGB"><feColorMatrix values="0 0 0 0 0.14117647 0 0 0 0 0.21568627 0 0 0 0 0.32941176 0 0 0 1 0"/></filter></defs><g clip-path="url(#shadow-clip-48)"><g transform="matrix(134.852597 27.343955 -43.876568 123.916678 329.342065 496.744576)" filter="url(#shadow-ink-48)"><use xlink:href="#surface-5"/></g></g></g></g><g opacity="1"><defs><pattern id="paint-cover-0" patternUnits="userSpaceOnUse" x="46.49777" y="183.369613" width="1057.320698" height="731.08171" viewBox="46.49777 183.369613 1057.320698 731.08171" preserveAspectRatio="none"><path d="M235.908916 184.369613L1102.818469 360.152181L235.908916 205.555962ZM1102.818469 360.152181L1095.819298 379.919313L235.908916 205.555962ZM914.407322 913.451323L47.49777 716.482408L914.407322 892.264975ZM914.407322 913.451323L47.49777 737.668756L47.49777 716.482408Z" fill="#a0a5b3" stroke="#a0a5b3" stroke-width="0.8" stroke-linejoin="round"/><path d="M1102.818469 381.338529L914.407322 892.264975L1102.818469 360.152181ZM1102.818469 381.338529L914.407322 913.451323L914.407322 892.264975ZM54.246245 717.850791L47.49777 716.482408L235.908916 184.369613ZM54.246245 717.850791L235.908916 184.369613L235.908916 205.555962L54.49694 717.901624Z" fill="#8b909d" stroke="#8b909d" stroke-width="0.8" stroke-linejoin="round"/></pattern></defs><path d="M235.908916 184.369613L1102.818469 360.152181L235.908916 205.555962ZM1102.818469 360.152181L1095.819298 379.919313L235.908916 205.555962ZM914.407322 913.451323L47.49777 716.482408L914.407322 892.264975ZM914.407322 913.451323L47.49777 737.668756L47.49777 716.482408ZM1102.818469 381.338529L914.407322 892.264975L1102.818469 360.152181ZM1102.818469 381.338529L914.407322 913.451323L914.407322 892.264975ZM54.246245 717.850791L47.49777 716.482408L235.908916 184.369613ZM54.246245 717.850791L235.908916 184.369613L235.908916 205.555962L54.49694 717.901624Z" fill="url(#paint-cover-0)" fill-opacity="1"/></g><g opacity="1"><defs><g id="surface-6"><defs></defs><g transform="matrix(0.0007017543859649122 0 0 0.006060606060606061 0 0)"><g transform="matrix(1 0 0 1 0 0)"><g transform="matrix(1 0 0 1 0 0)"><path d="M12.469059944152832 90.99373626708984L34.507877349853516 90.99373626708984L34.507877349853516 70.58722686767578Q34.507877349853516 67.73355102539062 34.72315216064453 63.74916458129883Q34.965335845947266 59.79170227050781 35.072975158691406 57.0187873840332L34.61551284790039 57.0187873840332Q33.29695129394531 59.54941177368164 31.87075424194336 61.999267578125Q30.44455337524414 64.42220306396484 28.883808135986328 66.95282745361328L12.469059944152832 90.99373626708984ZM34.507877349853516 117.67295837402344L34.507877349853516 98.26254272460938L2.889305353164673 98.26254272460938L2.889305353164673 92.3128890991211L32.97404098510742 47.32704544067383L43.118892669677734 47.32704544067383L43.118892669677734 90.99373626708984L52.698646545410156 90.99373626708984L52.698646545410156 98.26254272460938L43.118892669677734 98.26254272460938L43.118892669677734 117.67295837402344L34.507877349853516 117.67295837402344Z" fill-rule="nonzero" fill="#253650" fill-opacity="1" stroke="none"/></g></g></g></g></defs><defs><clipPath id="face-3" clipPathUnits="userSpaceOnUse"><path d="M1128.455322 288.844586L256.729606 112.085448L283.829839 35.548677ZM1155.555556 212.307814L1128.455322 288.844586L283.829839 35.548677Z"/></clipPath></defs><g clip-path="url(#face-3)" opacity="1"><g transform="matrix(871.725716 176.759137 -27.100233 76.536772 283.829839 35.548677)"><use xlink:href="#surface-6"/></g></g></g><g opacity="1"><defs><clipPath id="face-4" clipPathUnits="userSpaceOnUse"><path d="M314.5453 266.052797L211.783431 245.215854L234.146078 182.059024ZM627.271463 665.404052L627.271463 592.760561L713.552587 682.899208ZM409.352841 461.33324L403.815256 488.643032L271.656224 461.84525L145.840117 431.453674L153.621041 409.478704ZM345.157438 655.34919L304.376669 770.522679L44.444444 717.816427L85.225214 602.642938ZM345.157438 655.34919L368.149486 660.01127L548.654 758.529123L528.328303 815.933176L304.376669 770.522679ZM498.01594 507.744031L405.369522 485.297573L413.553265 462.184957L523.653415 484.509877L557.423825 519.790121ZM569.109073 700.759687L769.553254 741.403596L916.170161 894.575564L528.328303 815.933176ZM368.149486 660.01127L569.109073 700.759687L548.654 758.529123ZM314.5453 266.052797L333.843882 286.214194L297.49326 388.876013L171.703329 358.41051L211.783431 245.215854ZM297.49326 388.876013L296.743081 390.994678L296.611679 391.323627L169.19735 365.487923L171.703329 358.41051ZM270.81586 464.218614L229.097433 582.040247L103.307502 551.574744L143.387604 438.380087ZM229.097433 582.040247L228.347253 584.158912L228.215852 584.48786L100.801523 558.652157L103.307502 551.574744ZM271.656224 461.84525L270.81586 464.218614L143.387604 438.380087L145.840117 431.453674ZM455.457662 627.937582L454.70697 630.057693L454.575569 630.386642L403.319828 619.993556L403.319828 615.271052ZM587.152917 701.874658L601.888863 660.257242L713.552587 682.899208L766.531939 738.247201ZM627.271463 665.404052L601.888863 660.257242L626.188697 591.629386L627.271463 592.760561ZM586.312553 704.248023L587.152917 701.874658L766.531939 738.247201L769.553254 741.403596ZM403.319828 543.160932L403.319828 619.993556L377.937228 614.846746ZM455.457662 627.937582L403.319828 615.271052L403.319828 543.160932L420.523309 494.574676L497.175577 510.117396ZM431.59711 463.299928L446.333055 421.682512L467.652748 426.005489L520.632099 481.353483ZM446.333055 421.682512L450.972566 408.579557L467.652748 426.005489ZM296.600112 435.926693L296.600112 438.470458L153.621041 409.478704L154.461405 407.105339ZM296.600112 393.865046L296.600112 435.926693L154.461405 407.105339L168.356986 367.861288ZM296.600112 391.321281L296.600112 393.865046L168.356986 367.861288L169.19735 365.487923ZM454.564001 677.533473L368.149486 660.01127L362.95012 657.173499L363.201283 656.464162L454.564001 674.989708ZM377.096864 617.220111L454.564001 632.928061L454.564001 674.989708L363.201283 656.464162ZM377.937228 614.846746L454.564001 630.384296L454.564001 632.928061L377.096864 617.220111ZM522.959828 484.369239L430.756746 465.673293L431.59711 463.299928L520.632099 481.353483L522.959828 483.785281ZM228.204285 629.090927L228.204285 631.634691L85.225214 602.642938L86.065578 600.269573ZM228.204285 587.029279L228.204285 629.090927L86.065578 600.269573L99.961159 561.025522ZM228.204285 584.485515L228.204285 587.029279L99.961159 561.025522L100.801523 558.652157ZM405.812859 485.404985L498.01594 507.744031L497.175577 510.117396L405.812859 491.591849ZM405.812859 536.12009L405.812859 491.591849L420.523309 494.574676ZM362.360919 658.837527L362.95012 657.173499L368.149486 660.01127ZM403.815256 488.643032L409.352841 461.33324L413.553265 462.184957L404.160192 488.712975ZM405.812859 485.404985L405.812859 489.048085L404.160192 488.712975L405.369522 485.297573ZM228.347253 584.158912L228.229779 584.490684L228.215852 584.48786ZM228.204285 584.562686L228.204285 584.485515L228.229779 584.490684ZM296.743081 390.994678L296.625606 391.326451L296.611679 391.323627ZM296.600112 391.398453L296.600112 391.321281L296.625606 391.326451ZM454.70697 630.057693L454.589496 630.389466L454.575569 630.386642ZM454.589496 630.389466L454.564001 630.461468L454.564001 630.384296ZM484.899313 232.90406L472.211083 295.478799L340.052051 268.681016L310.146293 261.457115L234.146078 182.059024ZM790.363402 359.990294L476.650962 283.98376L494.078303 234.765277L932.802582 323.725054L920.114352 386.299792ZM696.882089 337.341557L696.162717 340.889295L566.411767 314.579797L473.765349 292.133339L476.650962 283.98376ZM633.304475 506.743737L627.76689 534.053529L557.423825 519.790121L523.653415 484.509877ZM861.456534 553.00595L919.618924 564.799492L919.618924 884.835529L916.170161 894.575564L787.945105 760.617723ZM752.94858 465.657637L774.510658 359.31961L789.523038 362.363659ZM339.211687 271.054381L333.843882 286.214194L314.5453 266.052797ZM340.052051 268.681016L339.211687 271.054381L314.5453 266.052797L310.146293 261.457115ZM471.715656 422.106818L523.853489 434.773349L523.102797 436.89346L522.971396 437.222408L471.715656 426.829322ZM695.66729 395.407195L695.66729 472.239819L670.28469 467.093009ZM695.66729 395.407195L712.870771 346.820939L774.510658 359.31961L752.94858 465.657637L747.054431 482.303956L746.92303 482.632905L695.66729 472.239819ZM627.271463 588.571429L627.271463 592.760561L626.188697 591.629386ZM627.271463 588.571429L654.70838 511.08379L861.456534 553.00595L787.945105 760.617723L627.271463 592.760561ZM919.618924 440.817692L959.185052 329.074606L1105.871794 358.818161L919.618924 884.835529ZM879.500379 554.120921L894.236324 512.503505L919.618924 517.650315L919.618924 562.255727ZM894.236324 512.503505L919.618924 440.817692L919.618924 517.650315ZM878.660015 556.494286L879.500379 554.120921L919.618924 562.255727L919.618924 564.799492ZM471.715656 349.996699L471.715656 426.829322L467.652748 426.005489L450.972566 408.579557ZM523.853489 434.773349L471.715656 422.106818L471.715656 349.996699L488.919136 301.410442L565.571404 316.953162ZM669.444326 469.466374L746.911462 485.174324L746.911462 527.235971L655.548744 508.710425ZM746.911462 485.174324L669.444326 469.466374L670.28469 467.093009L746.911462 482.630559ZM746.911462 529.779736L654.70838 511.08379L655.548744 508.710425L746.911462 527.235971ZM522.959828 481.825475L522.959828 483.785281L520.632099 481.353483ZM522.959828 439.763827L522.959828 481.825475L520.632099 481.353483L470.674063 429.161884ZM522.959828 437.220063L522.959828 439.763827L470.674063 429.161884L467.652748 426.005489ZM698.16032 337.651248L790.363402 359.990294L789.523038 362.363659L698.16032 343.838112ZM698.16032 388.366353L698.16032 343.838112L712.870771 346.820939ZM936.003382 394.544528L922.111954 389.625834L922.111954 381.702257L941.981571 325.58627L959.185052 329.074606ZM922.111954 389.625834L936.003382 394.544528L922.111954 433.776849ZM629.764493 536.97034L629.764493 529.455994L637.5049 507.595453L641.178601 508.340367ZM629.764493 581.530586L629.764493 536.97034L641.178601 508.340367L654.70838 511.08379ZM474.208686 292.240751L566.411767 314.579797L565.571404 316.953162L474.208686 298.427616ZM488.100114 303.723535L474.208686 298.804841L474.208686 298.427616L488.919136 301.410442ZM474.208686 298.804841L488.100114 303.723535L474.208686 342.955856ZM920.114352 386.299792L932.802582 323.725054L941.981571 325.58627L920.459288 386.369734ZM922.111954 386.704844L920.459288 386.369734L922.111954 381.702257ZM472.211083 295.478799L484.899313 232.90406L494.078303 234.765277L472.556019 295.548741ZM474.208686 292.240751L474.208686 295.883851L472.556019 295.548741L473.765349 292.133339ZM698.16032 341.294348L696.162717 340.889295L696.882089 337.341557L698.16032 337.651248ZM627.76689 534.053529L633.304475 506.743737L637.5049 507.595453L628.111827 534.123471ZM629.764493 534.458581L628.111827 534.123471L629.764493 529.455994ZM523.102797 436.89346L522.985323 437.225232L522.971396 437.222408ZM522.985323 437.225232L522.959828 437.297234L522.959828 437.220063ZM747.054431 482.303956L746.936957 482.635729L746.92303 482.632905ZM746.911462 482.707731L746.911462 482.630559L746.936957 482.635729Z"/></clipPath></defs><defs><filter id="light-4" color-interpolation-filters="linearRGB"><feComponentTransfer><feFuncR type="linear" slope="0.972121" intercept="0"/><feFuncG type="linear" slope="0.974697" intercept="0"/><feFuncB type="linear" slope="0.978132" intercept="0"/></feComponentTransfer></filter></defs><g clip-path="url(#face-4)" opacity="1"><g transform="matrix(871.725716 176.759137 -189.701633 535.757403 234.146078 182.059024)" filter="url(#light-4)"><use xlink:href="#surface-1"/></g></g></g><g opacity="1"><defs><pattern id="paint-cover-14" patternUnits="userSpaceOnUse" x="298.093142" y="296.922106" width="174.622514" height="166.877482" viewBox="298.093142 296.922106 174.622514 166.877482" preserveAspectRatio="none"><path d="M471.715656 342.527518L429.129575 418.194176L471.715656 297.922106ZM471.715656 342.527518L429.129575 462.799588L429.129575 418.194176Z" fill="#a1a8ac" stroke="#a1a8ac" stroke-width="0.8" stroke-linejoin="round"/><path d="M429.129575 462.799588L299.093142 391.826791L429.129575 418.194176ZM429.129575 462.799588L299.093142 436.432203L299.093142 391.826791Z" fill="#b8c0c5" stroke="#b8c0c5" stroke-width="0.8" stroke-linejoin="round"/></pattern></defs><path d="M471.715656 342.527518L429.129575 418.194176L471.715656 297.922106ZM471.715656 342.527518L429.129575 462.799588L429.129575 418.194176ZM429.129575 462.799588L299.093142 391.826791L429.129575 418.194176ZM429.129575 462.799588L299.093142 436.432203L299.093142 391.826791Z" fill="url(#paint-cover-14)" fill-opacity="1"/><defs><clipPath id="face-7" clipPathUnits="userSpaceOnUse"><path d="M430.892413 420.47706L296.039816 393.133105L339.916384 269.216427ZM474.768981 296.560382L430.892413 420.47706L339.916384 269.216427Z"/></clipPath></defs><defs><filter id="light-7" color-interpolation-filters="linearRGB"><feComponentTransfer><feFuncR type="linear" slope="0.972121" intercept="0.008392"/><feFuncG type="linear" slope="0.974697" intercept="0.008443"/><feFuncB type="linear" slope="0.978132" intercept="0.00851"/></feComponentTransfer></filter></defs><g clip-path="url(#face-7)" opacity="1"><g transform="matrix(134.852597 27.343955 -43.876568 123.916678 339.916384 269.216427)" filter="url(#light-7)"><use xlink:href="#surface-3"/></g></g><path d="M296.866263 435.98066L296.600112 438.470458L296.600112 435.926693ZM300.302406 394.615757L300.961243 397.672886L296.866263 435.98066L296.600112 435.926693L296.600112 393.865046ZM299.093142 391.826791L298.597714 394.270098L296.600112 393.865046L296.600112 391.826791ZM301.267129 394.811373L300.961243 397.672886L300.302406 394.615757ZM299.093142 436.432203L296.600112 438.470458L296.866263 435.98066ZM299.21401 436.333383L299.093142 436.432203L296.866263 435.98066L300.961243 397.672886ZM301.357372 394.829672L300.961243 397.672886L301.267129 394.811373ZM301.494356 394.857448L299.21401 436.333383L300.961243 397.672886L301.357372 394.829672ZM301.586172 394.876065L301.586172 434.393948L299.21401 436.333383L301.494356 394.857448ZM362.030355 449.070604L428.634147 465.242895L296.600112 438.470458L299.21401 436.333383ZM299.21401 436.333383L301.586172 434.393948L362.030355 449.070604ZM426.636544 462.17075L426.636544 464.757851L362.030355 449.070604ZM426.636544 462.799588L429.129575 462.799588L428.634147 465.242895L426.636544 464.757851ZM426.636544 462.130148L301.586172 434.393948L421.713836 458.75214L426.636544 461.438913ZM426.636544 462.17075L362.030355 449.070604L301.586172 434.393948L426.636544 462.130148ZM426.636544 461.357045L421.713836 458.75214L426.636544 459.750314ZM426.636544 461.357045L426.636544 461.438913L421.713836 458.75214ZM297.580918 388.897243L299.588569 389.383484L299.093142 391.826791L296.743081 390.994678ZM299.588569 389.383484L297.580918 388.897243L343.306394 274.428426L302.401041 389.953766ZM340.052051 268.681016L343.306394 274.428426L296.743081 390.994678ZM468.443338 299.69464L468.407756 299.795131L343.306394 274.428426L340.052051 268.681016ZM470.088484 295.048401L468.443338 299.69464L340.052051 268.681016ZM469.365594 297.089994L470.088484 295.048401L472.211083 295.478799L471.715656 297.922106ZM428.634147 420.637483L298.597714 394.270098L299.588569 389.383484ZM427.502403 415.320471L425.857835 419.965078L299.588569 389.383484ZM426.779513 417.362063L429.129575 418.194176L428.634147 420.637483L425.857835 419.965078ZM431.622605 463.18177L431.637853 463.184861L431.622605 463.227926ZM429.737794 462.799588L431.622605 463.18177L431.622605 463.227926L431.479636 463.631701L429.129575 462.799588ZM443.824777 421.173911L450.102534 403.444202L474.208686 342.955856L446.333055 421.682512ZM431.622605 463.18177L431.622605 455.635417L443.824777 421.173911L446.333055 421.682512L431.637853 463.184861ZM431.622605 462.799588L431.622605 463.18177L429.737794 462.799588ZM431.622605 455.635417L431.622605 449.814952L450.102534 403.444202ZM471.674492 342.520445L474.208686 342.955856L450.102534 403.444202ZM471.674492 342.520445L471.597911 342.736727L464.584612 355.197907ZM469.222625 342.09918L471.674492 342.520445L464.584612 355.197907ZM431.622605 448.720791L431.622605 448.289565L464.584612 355.197907L471.597911 342.736727ZM431.622605 449.417518L431.622605 448.720791L471.597911 342.736727ZM450.102534 403.444202L431.622605 449.814952L431.622605 449.417518L471.597911 342.736727ZM471.715656 320.010643L474.208686 297.922106L474.208686 342.955856L471.715656 342.527518ZM471.715656 329.561294L471.715656 342.527518L471.674492 342.520445ZM469.222625 342.09918L471.715656 320.010643L471.715656 329.561294ZM471.674492 342.520445L469.222625 342.09918L471.715656 329.561294ZM472.060616 298.04425L471.715656 297.922106L474.208686 297.922106L474.1949 298.04425ZM472.060616 298.04425L474.1949 298.04425L474.112884 298.77092ZM471.715656 305.391287L474.065717 298.754219L474.112884 298.77092L471.715656 320.010643ZM471.697803 305.441705L471.715656 305.391287L471.715656 310.641674ZM471.179684 306.904983L469.222625 342.09918L469.222625 312.432129ZM471.687031 305.472128L471.715656 320.010643L469.222625 342.09918L471.179684 306.904983ZM471.697803 305.441705L471.715656 310.641674L471.715656 320.010643L471.687031 305.472128ZM431.527688 419.043303L431.622605 419.076911L431.622605 462.799588L426.636544 462.799588ZM431.527688 419.043303L431.552635 418.820122L431.622605 418.622514L431.622605 419.076911ZM426.636544 430.48909L429.129575 418.194176L431.527688 419.043303L426.636544 462.799588ZM431.479636 419.026289L431.552635 418.820122L431.527688 419.043303ZM428.634147 420.637483L426.636544 430.48909L426.636544 420.232431ZM426.779513 417.362063L469.365594 297.089994L474.065717 298.754219ZM431.479636 419.026289L426.779513 417.362063L474.065717 298.754219ZM296.600112 391.398453L296.743081 390.994678L299.093142 391.826791ZM296.600112 391.826791L296.600112 391.398453L299.093142 391.826791ZM430.756746 465.673293L428.634147 465.242895L429.129575 462.799588ZM431.479636 463.631701L430.756746 465.673293L429.129575 462.799588ZM474.208686 295.883851L474.208686 297.922106L471.715656 297.922106ZM472.211083 295.478799L474.208686 295.883851L471.715656 297.922106Z" fill="#263c4e" fill-opacity="1"/><defs><g id="surface-7"><defs></defs><g transform="matrix(0.03225806451612903 0 0 0.012195121951219513 0 0)"><g transform="matrix(1 0 0 1 0 0)"><g transform="matrix(1 0 0 1 0 0)"><path d="M11.200016021728516 56.28486251831055Q7.235187530517578 56.28486251831055 4.896224021911621 53.758914947509766Q2.557260751724243 51.17555618286133 2.557260751724243 47.47274398803711Q2.557260751724243 42.88011169433594 6.407993316650391 40.2967529296875Q10.272987365722656 37.71339416503906 18.858694076538086 36.82357406616211Q18.744598388671875 34.88605499267578 17.689212799072266 33.7666015625Q16.690874099731445 32.58973693847656 14.2948637008667 32.58973693847656Q12.483592987060547 32.58973693847656 10.615274429321289 33.307334899902344Q8.746956825256348 34.010581970214844 6.65044641494751 35.24485397338867L3.555598735809326 29.532764434814453Q6.2938971519470215 27.839231491088867 9.388745307922363 26.777183532714844Q12.540640830993652 25.715137481689453 15.934989929199219 25.715137481689453Q21.48289680480957 25.715137481689453 24.46364974975586 28.95868492126465Q27.444400787353516 32.18788146972656 27.444400787353516 38.8902587890625L27.444400787353516 55.58161544799805L20.42751121520996 55.58161544799805L19.842769622802734 52.58205032348633L19.614578247070312 52.58205032348633Q17.803308486938477 54.23252868652344 15.706798553466797 55.29457473754883Q13.653074264526367 56.28486251831055 11.200016021728516 56.28486251831055ZM14.123720169067383 49.58248519897461Q15.57844066619873 49.58248519897461 16.633827209472656 48.9366455078125Q17.746259689331055 48.2333984375 18.858694076538086 47.11394500732422L18.858694076538086 42.004638671875Q14.2948637008667 42.59307098388672 12.540640830993652 43.88475036621094Q10.800680160522461 45.1190185546875 10.800680160522461 46.826904296875Q10.800680160522461 48.2333984375 11.670660972595215 48.9366455078125Q12.611950874328613 49.58248519897461 14.123720169067383 49.58248519897461Z" fill-rule="nonzero" fill="#253650" fill-opacity="1" stroke="none"/></g></g></g></g></defs><defs><clipPath id="face-9" clipPathUnits="userSpaceOnUse"><path d="M388.261669 365.878665L368.997012 361.972386L382.547129 323.704ZM401.811785 327.61028L388.261669 365.878665L382.547129 323.704Z"/></clipPath></defs><g clip-path="url(#face-9)" opacity="1"><g transform="matrix(19.264657 3.906279 -13.550117 38.268386 382.547129 323.704)"><use xlink:href="#surface-7"/></g></g></g><g opacity="1"><defs><pattern id="paint-cover-87" patternUnits="userSpaceOnUse" x="524.452858" y="342.332603" width="172.214432" height="166.877482" viewBox="524.452858 342.332603 172.214432 166.877482" preserveAspectRatio="none"><path d="M695.66729 387.938015L653.081209 463.604673L695.66729 343.332603ZM695.66729 387.938015L653.081209 508.210085L653.081209 463.604673Z" fill="#a1a8ac" stroke="#a1a8ac" stroke-width="0.8" stroke-linejoin="round"/><path d="M653.081209 508.210085L525.452858 437.725572L653.081209 463.604673ZM653.081209 508.210085L525.452858 482.330984L525.452858 437.725572Z" fill="#b8c0c5" stroke="#b8c0c5" stroke-width="0.8" stroke-linejoin="round"/></pattern></defs><path d="M695.66729 387.938015L653.081209 463.604673L695.66729 343.332603ZM695.66729 387.938015L653.081209 508.210085L653.081209 463.604673ZM653.081209 508.210085L525.452858 437.725572L653.081209 463.604673ZM653.081209 508.210085L525.452858 482.330984L525.452858 437.725572Z" fill="url(#paint-cover-87)" fill-opacity="1"/><defs><clipPath id="face-12" clipPathUnits="userSpaceOnUse"><path d="M654.844047 465.887556L522.399532 439.031886L566.276101 315.115208ZM698.720616 341.970878L654.844047 465.887556L566.276101 315.115208Z"/></clipPath></defs><defs><filter id="light-12" color-interpolation-filters="linearRGB"><feComponentTransfer><feFuncR type="linear" slope="0.972121" intercept="0.008392"/><feFuncG type="linear" slope="0.974697" intercept="0.008443"/><feFuncB type="linear" slope="0.978132" intercept="0.00851"/></feComponentTransfer></filter></defs><g clip-path="url(#face-12)" opacity="1"><g transform="matrix(132.444515 26.85567 -43.876568 123.916678 566.276101 315.115208)" filter="url(#light-12)"><use xlink:href="#surface-2"/></g></g><path d="M523.22598 481.879442L522.959828 484.369239L522.959828 481.825475ZM526.662123 440.514539L527.320959 443.571668L523.22598 481.879442L522.959828 481.825475L522.959828 439.763827ZM525.452858 437.725572L524.957431 440.16888L522.959828 439.763827L522.959828 437.725572ZM527.626846 440.710155L527.320959 443.571668L526.662123 440.514539ZM525.452858 482.330984L522.959828 484.369239L523.22598 481.879442ZM525.573727 482.232165L525.452858 482.330984L523.22598 481.879442L527.320959 443.571668ZM527.718479 440.728735L527.320959 443.571668L527.626846 440.710155ZM527.854916 440.756401L525.573727 482.232165L527.320959 443.571668L527.718479 440.728735ZM527.945888 440.774847L527.945888 480.292729L525.573727 482.232165L527.854916 440.756401ZM587.244405 494.73708L652.585781 510.653392L522.959828 484.369239L525.573727 482.232165ZM525.573727 482.232165L527.945888 480.292729L587.244405 494.73708ZM650.588179 508.210085L653.081209 508.210085L652.585781 510.653392L650.375252 510.114935ZM650.588179 507.581247L650.588179 508.210085L650.375252 510.114935L587.244405 494.73708ZM650.588179 507.539734L527.945888 480.292729L645.802799 504.190482L650.588179 506.833274ZM650.588179 507.581247L587.244405 494.73708L527.945888 480.292729L650.588179 507.539734ZM650.588179 506.752189L645.802799 504.190482L650.588179 505.16081ZM650.588179 506.833274L645.802799 504.190482L650.588179 506.752189ZM523.941182 434.794653L525.948286 435.282265L525.452858 437.725572L523.102797 436.89346ZM525.948286 435.282265L523.941182 434.794653L569.666111 320.327207L528.760758 435.852548ZM566.411767 314.579797L569.666111 320.327207L523.102797 436.89346ZM692.395629 345.103282L692.35939 345.205627L569.666111 320.327207L566.411767 314.579797ZM694.040118 340.458898L692.395629 345.103282L566.411767 314.579797ZM693.317229 342.50049L694.040118 340.458898L696.162717 340.889295L695.66729 343.332603ZM652.585781 466.04798L524.957431 440.16888L525.948286 435.282265ZM636.269822 457.652076L653.081209 463.604673L652.585781 466.04798L525.948286 435.282265ZM650.731148 462.77256L636.269822 457.652076L651.454037 460.730968ZM655.574239 508.592266L655.589487 508.595358L655.574239 508.638423ZM653.689428 508.210085L655.574239 508.592266L655.574239 508.638423L655.43127 509.042197L653.081209 508.210085ZM667.776411 466.584407L674.054168 448.854699L698.16032 388.366353L670.28469 467.093009ZM655.574239 501.045914L667.776411 466.584407L670.28469 467.093009L655.589487 508.595358L655.574239 508.592266ZM655.574239 508.210085L655.574239 508.592266L653.689428 508.210085ZM655.574239 501.045914L655.574239 495.225449L674.054168 448.854699ZM695.626126 387.930942L698.16032 388.366353L674.054168 448.854699ZM695.626126 387.930942L695.549545 388.147223L688.536246 400.608404ZM693.17426 387.509676L695.626126 387.930942L688.536246 400.608404ZM655.574239 494.131287L655.574239 493.700062L688.536246 400.608404L695.549545 388.147223ZM655.574239 494.828015L655.574239 494.131287L695.549545 388.147223ZM674.054168 448.854699L655.574239 495.225449L655.574239 494.828015L695.549545 388.147223ZM695.66729 365.421139L698.16032 343.332603L698.16032 388.366353L695.66729 387.938015ZM695.66729 374.971791L695.66729 387.938015L695.626126 387.930942ZM693.17426 387.509676L695.66729 365.421139L695.66729 374.971791ZM695.626126 387.930942L693.17426 387.509676L695.66729 374.971791ZM696.01225 343.454747L695.66729 343.332603L698.16032 343.332603L698.146534 343.454747ZM698.017351 344.164715L696.01225 343.454747L698.146534 343.454747L698.085774 343.993091ZM695.66729 350.801783L698.017351 344.164715L698.085774 343.993091L695.66729 365.421139ZM695.649438 350.852202L695.66729 350.801783L695.66729 356.05217ZM695.131318 352.315479L693.17426 387.509676L693.17426 357.842626ZM695.638665 350.882625L695.66729 365.421139L693.17426 387.509676L695.131318 352.315479ZM695.649438 350.852202L695.66729 356.05217L695.66729 365.421139L695.638665 350.882625ZM655.50427 464.230619L655.574239 464.033011L655.574239 508.210085L650.588179 508.210085ZM650.588179 478.114696L655.50427 464.230619L650.588179 508.210085ZM655.43127 464.436785L650.588179 478.114696L650.588179 475.899587L653.081209 463.604673ZM652.585781 466.04798L650.588179 475.899587L650.588179 465.642928ZM650.731148 462.77256L693.317229 342.50049L698.017351 344.164715ZM655.43127 464.436785L650.731148 462.77256L698.017351 344.164715ZM522.959828 437.297234L523.102797 436.89346L525.452858 437.725572ZM522.959828 437.725572L522.959828 437.297234L525.452858 437.725572ZM654.70838 511.08379L652.585781 510.653392L653.081209 508.210085ZM655.43127 509.042197L654.70838 511.08379L653.081209 508.210085ZM698.16032 341.294348L698.16032 343.332603L695.66729 343.332603ZM696.162717 340.889295L698.16032 341.294348L695.66729 343.332603Z" fill="#263c4e" fill-opacity="1"/><defs><g id="surface-8"><defs></defs><g transform="matrix(0.03225806451612903 0 0 0.012195121951219513 0 0)"><g transform="matrix(1 0 0 1 0 0)"><g transform="matrix(1 0 0 1 0 0)"><path d="M17.566329956054688 60.27544403076172Q15.79518985748291 60.27544403076172 13.971571922302246 59.41728973388672Q12.200431823730469 58.49312210083008 10.639204978942871 56.763614654541016L10.41617202758789 56.763614654541016L9.773314476013184 59.6285285949707L3.594003438949585 59.6285285949707L3.594003438949585 21.724557876586914L11.491975784301758 21.724557876586914L11.491975784301758 31.019018173217773L11.282062530517578 35.138153076171875Q12.843290328979492 33.725502014160156 14.666908264160156 32.972965240478516Q16.49052619934082 32.1544189453125 18.3272647857666 32.1544189453125Q21.541555404663086 32.1544189453125 23.916194915771484 33.831119537353516Q26.2777156829834 35.50782012939453 27.510953903198242 38.597171783447266Q28.796669006347656 41.62051010131836 28.796669006347656 45.726444244384766Q28.796669006347656 50.320865631103516 27.182964324951172 53.62145233154297Q25.582378387451172 56.869232177734375 22.997825622558594 58.5987434387207Q20.46575164794922 60.27544403076172 17.566329956054688 60.27544403076172ZM15.742712020874023 53.79308319091797Q17.78936195373535 53.79308319091797 19.232513427734375 51.891944885253906Q20.688783645629883 50.00400924682617 20.688783645629883 45.898075103759766Q20.688783645629883 38.64997863769531 16.070701599121094 38.64997863769531Q13.696061134338379 38.64997863769531 11.491975784301758 41.07921600341797L11.491975784301758 52.063575744628906Q12.567779541015625 53.027347564697266 13.643583297729492 53.41021728515625Q14.719386100769043 53.79308319091797 15.742712020874023 53.79308319091797Z" fill-rule="nonzero" fill="#253650" fill-opacity="1" stroke="none"/></g></g></g></g></defs><defs><clipPath id="face-14" clipPathUnits="userSpaceOnUse"><path d="M613.417344 411.533304L594.152687 407.627025L607.702804 369.358639ZM626.967461 373.264919L613.417344 411.533304L607.702804 369.358639Z"/></clipPath></defs><g clip-path="url(#face-14)" opacity="1"><g transform="matrix(19.264657 3.906279 -13.550117 38.268386 607.702804 369.358639)"><use xlink:href="#surface-8"/></g></g></g><g opacity="1"><defs><pattern id="paint-cover-160" patternUnits="userSpaceOnUse" x="748.404492" y="387.743099" width="172.214432" height="166.877482" viewBox="748.404492 387.743099 172.214432 166.877482" preserveAspectRatio="none"><path d="M919.618924 433.348511L877.032843 509.015169L919.618924 388.743099ZM919.618924 433.348511L877.032843 553.620581L877.032843 509.015169Z" fill="#a1a8ac" stroke="#a1a8ac" stroke-width="0.8" stroke-linejoin="round"/><path d="M877.032843 553.620581L749.404492 483.136069L877.032843 509.015169ZM877.032843 553.620581L749.404492 527.741481L749.404492 483.136069Z" fill="#b8c0c5" stroke="#b8c0c5" stroke-width="0.8" stroke-linejoin="round"/></pattern></defs><path d="M919.618924 433.348511L877.032843 509.015169L919.618924 388.743099ZM919.618924 433.348511L877.032843 553.620581L877.032843 509.015169ZM877.032843 553.620581L749.404492 483.136069L877.032843 509.015169ZM877.032843 553.620581L749.404492 527.741481L749.404492 483.136069Z" fill="url(#paint-cover-160)" fill-opacity="1"/><defs><clipPath id="face-17" clipPathUnits="userSpaceOnUse"><path d="M878.795682 511.298053L746.351167 484.442383L790.227735 360.525705ZM922.67225 387.381375L878.795682 511.298053L790.227735 360.525705Z"/></clipPath></defs><defs><filter id="light-17" color-interpolation-filters="linearRGB"><feComponentTransfer><feFuncR type="linear" slope="0.972121" intercept="0.008392"/><feFuncG type="linear" slope="0.974697" intercept="0.008443"/><feFuncB type="linear" slope="0.978132" intercept="0.00851"/></feComponentTransfer></filter></defs><g clip-path="url(#face-17)" opacity="1"><g transform="matrix(132.444515 26.85567 -43.876568 123.916678 790.227735 360.525705)" filter="url(#light-17)"><use xlink:href="#surface-0"/></g></g><path d="M747.177614 527.289939L746.911462 529.779736L746.911462 527.235971ZM750.613757 485.925035L751.272593 488.982164L747.177614 527.289939L746.911462 527.235971L746.911462 485.174324ZM749.404492 483.136069L748.909065 485.579376L746.911462 485.174324L746.911462 483.136069ZM750.613757 485.925035L751.57848 486.120651L751.272593 488.982164ZM749.404492 527.741481L746.911462 529.779736L747.177614 527.289939ZM749.525361 527.642661L749.404492 527.741481L747.177614 527.289939L751.272593 488.982164ZM751.670114 486.139232L751.272593 488.982164L751.57848 486.120651ZM751.806551 486.166897L749.525361 527.642661L751.272593 488.982164L751.670114 486.139232ZM751.897522 486.185343L751.897522 525.703226L749.525361 527.642661L751.806551 486.166897ZM811.19604 540.147576L876.537416 556.063888L746.911462 529.779736L749.525361 527.642661ZM749.525361 527.642661L751.897522 525.703226L811.19604 540.147576ZM874.539813 553.620581L877.032843 553.620581L876.537416 556.063888L874.326886 555.525432ZM874.539813 552.991743L874.539813 553.620581L874.326886 555.525432L811.19604 540.147576ZM874.539813 552.95023L751.897522 525.703226L869.754433 549.600979L874.539813 552.243771ZM874.539813 552.991743L811.19604 540.147576L751.897522 525.703226L874.539813 552.95023ZM874.539813 552.162686L869.754433 549.600979L874.539813 550.571307ZM874.539813 552.162686L874.539813 552.243771L869.754433 549.600979ZM752.169874 469.497996L749.404492 483.136069L747.054431 482.303956ZM749.89992 480.692762L752.169874 469.497996L793.617745 365.737704L752.712392 481.263044ZM790.363402 359.990294L793.617745 365.737704L747.054431 482.303956ZM916.347263 390.513778L916.311025 390.616124L793.617745 365.737704L790.363402 359.990294ZM917.991753 385.869394L916.347263 390.513778L790.363402 359.990294ZM917.268863 387.910987L917.991753 385.869394L920.114352 386.299792L919.618924 388.743099ZM876.537416 511.458476L748.909065 485.579376L749.89992 480.692762ZM875.405672 506.141464L873.761782 510.784155L749.89992 480.692762ZM874.682782 508.183057L877.032843 509.015169L876.537416 511.458476L873.761782 510.784155ZM879.525873 554.002763L879.541122 554.005855L879.525873 554.048919ZM877.641063 553.620581L879.525873 554.002763L879.525873 554.048919L879.382904 554.452694L877.032843 553.620581ZM891.728046 511.994904L898.005802 494.265196L922.111954 433.776849L894.236324 512.503505ZM879.525873 546.456411L891.728046 511.994904L894.236324 512.503505L879.541122 554.005855L879.525873 554.002763ZM879.525873 553.620581L879.525873 554.002763L877.641063 553.620581ZM879.525873 546.456411L879.525873 540.635945L898.005802 494.265196ZM919.57776 433.341439L922.111954 433.776849L898.005802 494.265196ZM919.57776 433.341439L919.501179 433.55772L912.487881 446.018901ZM917.125894 432.920173L919.57776 433.341439L912.487881 446.018901ZM879.525873 539.541784L879.525873 539.110558L912.487881 446.018901L919.501179 433.55772ZM879.525873 540.238511L879.525873 539.541784L919.501179 433.55772ZM898.005802 494.265196L879.525873 540.635945L879.525873 540.238511L919.501179 433.55772ZM919.618924 410.831636L922.111954 388.743099L922.111954 433.776849L919.618924 433.348511ZM919.618924 420.382287L919.618924 433.348511L919.57776 433.341439ZM917.125894 432.920173L919.618924 410.831636L919.618924 420.382287ZM919.57776 433.341439L917.125894 432.920173L919.618924 420.382287ZM919.963884 388.865243L919.618924 388.743099L922.111954 388.743099L922.098168 388.865243ZM919.963884 388.865243L922.098168 388.865243L922.016153 389.591913ZM919.618924 396.21228L921.968985 389.575212L922.016153 389.591913L919.618924 410.831636ZM919.601072 396.262698L919.618924 396.21228L919.618924 401.462667ZM919.082953 397.725976L917.125894 432.920173L917.125894 403.253122ZM919.5903 396.293121L919.618924 410.831636L917.125894 432.920173L919.082953 397.725976ZM919.601072 396.262698L919.618924 401.462667L919.618924 410.831636L919.5903 396.293121ZM879.455904 509.641115L879.525873 509.443507L879.525873 553.620581L874.539813 553.620581ZM874.539813 511.053424L879.192575 511.996861L874.539813 553.620581ZM878.660015 511.888874L879.455904 509.641115L879.192575 511.996861ZM879.382904 509.847282L878.660015 511.888874L876.537416 511.458476L877.032843 509.015169ZM874.682782 508.183057L917.268863 387.910987L921.968985 389.575212ZM879.382904 509.847282L874.682782 508.183057L921.968985 389.575212ZM746.911462 482.707731L747.054431 482.303956L749.404492 483.136069ZM746.911462 483.136069L746.911462 482.707731L749.404492 483.136069ZM878.660015 556.494286L876.537416 556.063888L877.032843 553.620581ZM879.382904 554.452694L878.660015 556.494286L877.032843 553.620581ZM922.111954 386.704844L922.111954 388.743099L919.618924 388.743099ZM920.114352 386.299792L922.111954 386.704844L919.618924 388.743099Z" fill="#263c4e" fill-opacity="1"/><defs><g id="surface-9"><defs></defs><g transform="matrix(0.03225806451612903 0 0 0.012195121951219513 0 0)"><g transform="matrix(1 0 0 1 0 0)"><g transform="matrix(1 0 0 1 0 0)"><path d="M18.444091796875 57.222347259521484Q14.160400390625 57.222347259521484 10.694091796875 55.34878158569336Q7.288330078125 53.414283752441406 5.244873046875 49.80424118041992Q3.246826171875 46.118038177490234 3.246826171875 41Q3.246826171875 35.8210334777832 5.487060546875 32.21099090576172Q7.712158203125 28.58571434020996 11.375244140625 26.712146759033203Q15.038330078125 24.777650833129883 19.246337890625 24.777650833129883Q22.107177734375 24.777650833129883 24.271728515625 25.7220516204834Q26.496826171875 26.65121841430664 28.237548828125 28.083049774169922L23.968994140625 34.00839614868164Q21.789306640625 32.21099090576172 19.806396484375 32.21099090576172Q16.521728515625 32.21099090576172 14.538818359375 34.571990966796875Q12.616455078125 36.948219299316406 12.616455078125 41Q12.616455078125 44.990848541259766 14.538818359375 47.428009033203125Q16.521728515625 49.80424118041992 19.503662109375 49.80424118041992Q20.987060546875 49.80424118041992 22.409912109375 49.179718017578125Q23.832763671875 48.494266510009766 25.013427734375 47.549869537353516L28.615966796875 53.5361442565918Q26.315185546875 55.54680252075195 23.651123046875 56.4150390625Q20.987060546875 57.222347259521484 18.444091796875 57.222347259521484Z" fill-rule="nonzero" fill="#253650" fill-opacity="1" stroke="none"/></g></g></g></g></defs><defs><clipPath id="face-19" clipPathUnits="userSpaceOnUse"><path d="M837.368978 456.943801L818.104322 453.037522L831.654438 414.769136ZM850.919095 418.675415L837.368978 456.943801L831.654438 414.769136Z"/></clipPath></defs><g clip-path="url(#face-19)" opacity="1"><g transform="matrix(19.264657 3.906279 -13.550117 38.268386 831.654438 414.769136)"><use xlink:href="#surface-9"/></g></g></g><g opacity="1"><defs><pattern id="paint-cover-233" patternUnits="userSpaceOnUse" x="229.697315" y="490.08634" width="174.622514" height="166.877482" viewBox="229.697315 490.08634 174.622514 166.877482" preserveAspectRatio="none"><path d="M403.319828 535.691752L360.733747 611.35841L403.319828 491.08634ZM403.319828 535.691752L360.733747 655.963822L360.733747 611.35841Z" fill="#a1a8ac" stroke="#a1a8ac" stroke-width="0.8" stroke-linejoin="round"/><path d="M360.733747 655.963822L230.697315 584.991024L360.733747 611.35841ZM360.733747 655.963822L230.697315 629.596436L230.697315 584.991024Z" fill="#b8c0c5" stroke="#b8c0c5" stroke-width="0.8" stroke-linejoin="round"/></pattern></defs><path d="M403.319828 535.691752L360.733747 611.35841L403.319828 491.08634ZM403.319828 535.691752L360.733747 655.963822L360.733747 611.35841ZM360.733747 655.963822L230.697315 584.991024L360.733747 611.35841ZM360.733747 655.963822L230.697315 629.596436L230.697315 584.991024Z" fill="url(#paint-cover-233)" fill-opacity="1"/><defs><clipPath id="face-22" clipPathUnits="userSpaceOnUse"><path d="M362.496586 613.641293L227.643989 586.297338L271.520557 462.38066ZM406.373154 489.724615L362.496586 613.641293L271.520557 462.38066Z"/></clipPath></defs><defs><filter id="light-22" color-interpolation-filters="linearRGB"><feComponentTransfer><feFuncR type="linear" slope="0.972121" intercept="0.008392"/><feFuncG type="linear" slope="0.974697" intercept="0.008443"/><feFuncB type="linear" slope="0.978132" intercept="0.00851"/></feComponentTransfer></filter></defs><g clip-path="url(#face-22)" opacity="1"><g transform="matrix(134.852597 27.343955 -43.876568 123.916678 271.520557 462.38066)" filter="url(#light-22)"><use xlink:href="#surface-5"/></g></g><path d="M228.470436 629.144894L228.204285 631.634691L228.204285 629.090927ZM231.906579 587.779991L232.565416 590.83712L228.470436 629.144894L228.204285 629.090927L228.204285 587.029279ZM230.697315 584.991024L230.201887 587.434332L228.204285 587.029279L228.204285 584.991024ZM232.871302 587.975607L232.565416 590.83712L231.906579 587.779991ZM230.697315 629.596436L228.204285 631.634691L228.470436 629.144894ZM230.818183 629.497617L230.697315 629.596436L228.470436 629.144894L232.565416 590.83712ZM232.961545 587.993905L232.565416 590.83712L232.871302 587.975607ZM233.098529 588.021682L230.818183 629.497617L232.565416 590.83712L232.961545 587.993905ZM233.190345 588.040299L233.190345 627.558182L230.818183 629.497617L233.098529 588.021682ZM293.634528 642.234837L360.23832 658.407129L228.204285 631.634691L230.818183 629.497617ZM230.818183 629.497617L233.190345 627.558182L293.634528 642.234837ZM360.733747 655.963822L360.23832 658.407129L350.17583 655.963822ZM358.240717 655.334984L358.240717 655.963822L350.17583 655.963822L293.634528 642.234837ZM358.240717 655.294381L233.190345 627.558182L353.318009 651.916373L358.240717 654.603147ZM358.240717 655.334984L293.634528 642.234837L233.190345 627.558182L358.240717 655.294381ZM358.240717 654.521279L353.318009 651.916373L358.240717 652.914547ZM358.240717 654.521279L358.240717 654.603147L353.318009 651.916373ZM229.18509 582.061477L231.192742 582.547717L230.697315 584.991024L228.347253 584.158912ZM231.192742 582.547717L229.18509 582.061477L274.910567 467.59266L234.005214 583.118ZM271.656224 461.84525L274.910567 467.59266L228.347253 584.158912ZM400.047511 492.858874L400.011929 492.959364L274.910567 467.59266L271.656224 461.84525ZM401.692657 488.212635L400.047511 492.858874L271.656224 461.84525ZM400.969767 490.254227L401.692657 488.212635L403.815256 488.643032L403.319828 491.08634ZM360.23832 613.801717L230.201887 587.434332L231.192742 582.547717ZM343.92236 605.405813L360.733747 611.35841L360.23832 613.801717L231.192742 582.547717ZM358.383686 610.526297L343.92236 605.405813L359.106576 608.484705ZM363.226778 656.346003L363.242026 656.349095L363.226778 656.39216ZM361.341967 655.963822L363.226778 656.346003L363.226778 656.39216L363.083809 656.795934L360.733747 655.963822ZM375.42895 614.338144L381.706706 596.608436L405.812859 536.12009L377.937228 614.846746ZM363.226778 656.346003L363.226778 648.799651L375.42895 614.338144L377.937228 614.846746L363.242026 656.349095ZM363.226778 655.963822L363.226778 656.346003L361.341967 655.963822ZM363.226778 648.799651L363.226778 642.979186L381.706706 596.608436ZM403.278665 535.684679L405.812859 536.12009L381.706706 596.608436ZM403.278665 535.684679L403.202083 535.90096L396.188785 548.362141ZM400.826798 535.263413L403.278665 535.684679L396.188785 548.362141ZM363.226778 641.885024L363.226778 641.453799L396.188785 548.362141L403.202083 535.90096ZM363.226778 642.581752L363.226778 641.885024L403.202083 535.90096ZM381.706706 596.608436L363.226778 642.979186L363.226778 642.581752L403.202083 535.90096ZM403.319828 513.174876L405.812859 491.08634L405.812859 536.12009L403.319828 535.691752ZM403.319828 522.725528L403.319828 535.691752L403.278665 535.684679ZM400.826798 535.263413L403.319828 513.174876L403.319828 522.725528ZM403.278665 535.684679L400.826798 535.263413L403.319828 522.725528ZM403.664789 491.208484L403.319828 491.08634L405.812859 491.08634L405.799073 491.208484ZM405.66989 491.918452L403.664789 491.208484L405.799073 491.208484L405.738312 491.746828ZM403.319828 498.55552L405.66989 491.918452L405.738312 491.746828L403.319828 513.174876ZM403.301976 498.605939L403.319828 498.55552L403.319828 503.805907ZM402.783857 500.069216L400.826798 535.263413L400.826798 505.596363ZM403.291204 498.636362L403.319828 513.174876L400.826798 535.263413L402.783857 500.069216ZM403.301976 498.605939L403.319828 503.805907L403.319828 513.174876L403.291204 498.636362ZM363.156808 611.984356L363.226778 611.786748L363.226778 655.963822L358.240717 655.963822ZM358.240717 625.868433L363.156808 611.984356L358.240717 655.963822ZM363.083809 612.190522L358.240717 625.868433L358.240717 623.653324L360.733747 611.35841ZM360.23832 613.801717L358.240717 623.653324L358.240717 613.396665ZM358.383686 610.526297L400.969767 490.254227L405.66989 491.918452ZM363.083809 612.190522L358.383686 610.526297L405.66989 491.918452ZM228.204285 584.562686L228.347253 584.158912L230.697315 584.991024ZM228.204285 584.991024L228.204285 584.562686L230.697315 584.991024ZM362.360919 658.837527L360.23832 658.407129L360.733747 655.963822ZM363.083809 656.795934L362.360919 658.837527L360.733747 655.963822ZM405.812859 489.048085L405.812859 491.08634L403.319828 491.08634ZM403.815256 488.643032L405.812859 489.048085L403.319828 491.08634Z" fill="#263c4e" fill-opacity="1"/><defs><g id="surface-10"><defs></defs><g transform="matrix(0.02857142857142857 0 0 0.012195121951219513 0 0)"><g transform="matrix(1 0 0 1 0 0)"><g transform="matrix(1 0 0 1 0 0)"><path d="M14.795665740966797 62.73280334472656Q9.20917797088623 62.73280334472656 5.815793514251709 58.535099029541016Q2.481682777404785 54.26296615600586 2.481682777404785 46.879764556884766Q2.481682777404785 41.93778610229492 4.245057106018066 38.40992736816406Q6.052886009216309 34.807640075683594 8.912812232971191 32.91718292236328Q11.832011222839355 31.02672576904297 14.988303184509277 31.02672576904297Q17.462953567504883 31.02672576904297 19.167055130004883 31.890085220336914Q20.871156692504883 32.738555908203125 22.382619857788086 34.19733428955078L22.026981353759766 29.567949295043945L22.026981353759766 19.267194747924805L30.947580337524414 19.267194747924805L30.947580337524414 62.00341796875L23.656991958618164 62.00341796875L23.049442291259766 59.01143264770508L22.812349319458008 59.01143264770508Q21.226795196533203 60.60417938232422 19.1077823638916 61.70570755004883Q16.98876953125 62.73280334472656 14.795665740966797 62.73280334472656ZM17.107315063476562 55.424034118652344Q18.559505462646484 55.424034118652344 19.71533203125 54.81372833251953Q20.930429458618164 54.20342254638672 22.026981353759766 52.67021942138672L22.026981353759766 40.30038070678711Q20.871156692504883 39.198856353759766 19.537511825561523 38.76717758178711Q18.263141632080078 38.35038375854492 17.04804229736328 38.35038375854492Q14.914212226867676 38.35038375854492 13.284201622009277 40.41946792602539Q11.639373779296875 42.42900466918945 11.639373779296875 46.76068115234375Q11.639373779296875 51.21144104003906 13.032291412353516 53.340065002441406Q14.499300003051758 55.424034118652344 17.107315063476562 55.424034118652344Z" fill-rule="nonzero" fill="#253650" fill-opacity="1" stroke="none"/></g></g></g></g></defs><defs><clipPath id="face-24" clipPathUnits="userSpaceOnUse"><path d="M321.069883 559.287041L299.397144 554.892477L312.94726 516.624091ZM334.619999 521.018656L321.069883 559.287041L312.94726 516.624091Z"/></clipPath></defs><g clip-path="url(#face-24)" opacity="1"><g transform="matrix(21.672739 4.394564 -13.550117 38.268386 312.94726 516.624091)"><use xlink:href="#surface-10"/></g></g></g><g opacity="1"><defs><pattern id="paint-cover-306" patternUnits="userSpaceOnUse" x="456.057031" y="535.496836" width="172.214432" height="166.877482" viewBox="456.057031 535.496836 172.214432 166.877482" preserveAspectRatio="none"><path d="M627.271463 581.102248L584.685382 656.768906L627.271463 536.496836ZM627.271463 581.102248L584.685382 701.374318L584.685382 656.768906Z" fill="#a1a8ac" stroke="#a1a8ac" stroke-width="0.8" stroke-linejoin="round"/><path d="M584.685382 701.374318L457.057031 630.889806L584.685382 656.768906ZM584.685382 701.374318L457.057031 675.495218L457.057031 630.889806Z" fill="#b8c0c5" stroke="#b8c0c5" stroke-width="0.8" stroke-linejoin="round"/></pattern></defs><path d="M627.271463 581.102248L584.685382 656.768906L627.271463 536.496836ZM627.271463 581.102248L584.685382 701.374318L584.685382 656.768906ZM584.685382 701.374318L457.057031 630.889806L584.685382 656.768906ZM584.685382 701.374318L457.057031 675.495218L457.057031 630.889806Z" fill="url(#paint-cover-306)" fill-opacity="1"/><defs><clipPath id="face-27" clipPathUnits="userSpaceOnUse"><path d="M586.44822 659.05179L454.003705 632.19612L497.880274 508.279442ZM630.324789 535.135112L586.44822 659.05179L497.880274 508.279442Z"/></clipPath></defs><defs><filter id="light-27" color-interpolation-filters="linearRGB"><feComponentTransfer><feFuncR type="linear" slope="0.972121" intercept="0.008392"/><feFuncG type="linear" slope="0.974697" intercept="0.008443"/><feFuncB type="linear" slope="0.978132" intercept="0.00851"/></feComponentTransfer></filter></defs><g clip-path="url(#face-27)" opacity="1"><g transform="matrix(132.444515 26.85567 -43.876568 123.916678 497.880274 508.279442)" filter="url(#light-27)"><use xlink:href="#surface-4"/></g></g><path d="M454.830152 675.043676L454.564001 677.533473L454.564001 674.989708ZM458.266296 633.678772L458.925132 636.735901L454.830152 675.043676L454.564001 674.989708L454.564001 632.928061ZM457.057031 630.889806L456.561604 633.333113L454.564001 632.928061L454.564001 630.889806ZM459.231019 633.874388L458.925132 636.735901L458.266296 633.678772ZM457.057031 675.495218L454.564001 677.533473L454.830152 675.043676ZM457.1779 675.396398L457.057031 675.495218L454.830152 675.043676L458.925132 636.735901ZM459.322652 633.892969L458.925132 636.735901L459.231019 633.874388ZM459.459089 633.920634L457.1779 675.396398L458.925132 636.735901L459.322652 633.892969ZM459.550061 633.93908L459.550061 673.456963L457.1779 675.396398L459.459089 633.920634ZM518.848578 687.901313L584.189954 703.817625L454.564001 677.533473L457.1779 675.396398ZM457.1779 675.396398L459.550061 673.456963L518.848578 687.901313ZM582.192352 701.374318L584.685382 701.374318L584.189954 703.817625L581.979425 703.279169ZM582.192352 700.74548L582.192352 701.374318L581.979425 703.279169L518.848578 687.901313ZM582.192352 700.703967L459.550061 673.456963L577.406971 697.354716L582.192352 699.997508ZM582.192352 700.74548L518.848578 687.901313L459.550061 673.456963L582.192352 700.703967ZM582.192352 699.916423L577.406971 697.354716L582.192352 698.325044ZM582.192352 699.997508L577.406971 697.354716L582.192352 699.916423ZM455.545355 627.958887L457.552459 628.446499L457.057031 630.889806L454.70697 630.057693ZM457.552459 628.446499L455.545355 627.958887L501.270284 513.491441L460.36493 629.016781ZM498.01594 507.744031L501.270284 513.491441L454.70697 630.057693ZM623.999802 538.267515L623.963563 538.369861L501.270284 513.491441L498.01594 507.744031ZM625.644291 533.623131L623.999802 538.267515L498.01594 507.744031ZM624.921402 535.664724L625.644291 533.623131L627.76689 534.053529L627.271463 536.496836ZM584.189954 659.212213L456.561604 633.333113L457.552459 628.446499ZM567.873995 650.81631L584.685382 656.768906L584.189954 659.212213L457.552459 628.446499ZM582.335321 655.936794L567.873995 650.81631L583.05821 653.895201ZM587.178412 701.7565L587.19366 701.759592L587.178412 701.802656ZM585.293601 701.374318L587.178412 701.7565L587.178412 701.802656L587.035443 702.206431L584.685382 701.374318ZM599.380584 659.748641L605.658341 642.018933L629.764493 581.530586L601.888863 660.257242ZM587.178412 694.210148L599.380584 659.748641L601.888863 660.257242L587.19366 701.759592L587.178412 701.7565ZM585.293601 701.374318L587.178412 701.374318L587.178412 701.7565L585.807908 701.478604ZM587.178412 694.210148L587.178412 688.389682L605.658341 642.018933ZM627.230299 581.095176L629.764493 581.530586L605.658341 642.018933ZM627.230299 581.095176L627.153718 581.311457L620.140419 593.772638ZM624.778433 580.67391L627.230299 581.095176L620.140419 593.772638ZM587.178412 687.295521L587.178412 686.864295L620.140419 593.772638L627.153718 581.311457ZM587.178412 687.992248L587.178412 687.295521L627.153718 581.311457ZM605.658341 642.018933L587.178412 688.389682L587.178412 687.992248L627.153718 581.311457ZM627.271463 558.585373L629.764493 536.496836L629.764493 581.530586L627.271463 581.102248ZM627.271463 568.136024L627.271463 581.102248L627.230299 581.095176ZM624.778433 580.67391L627.271463 558.585373L627.271463 568.136024ZM627.230299 581.095176L624.778433 580.67391L627.271463 568.136024ZM627.616423 536.61898L627.271463 536.496836L629.764493 536.496836L629.750707 536.61898ZM629.621524 537.328949L627.616423 536.61898L629.750707 536.61898L629.689947 537.157324ZM627.271463 543.966017L629.621524 537.328949L629.689947 537.157324L627.271463 558.585373ZM627.253611 544.016435L627.271463 543.966017L627.271463 549.216404ZM626.735491 545.479713L624.778433 580.67391L624.778433 551.006859ZM627.242838 544.046858L627.271463 558.585373L624.778433 580.67391L626.735491 545.479713ZM627.253611 544.016435L627.271463 549.216404L627.271463 558.585373L627.242838 544.046858ZM587.083495 657.618033L587.178412 657.651641L587.178412 701.374318L582.192352 701.374318ZM587.083495 657.618033L587.108443 657.394852L587.178412 657.197244L587.178412 657.651641ZM582.192352 671.278929L587.108443 657.394852L582.192352 701.374318ZM587.035443 657.601019L582.192352 671.278929L582.192352 669.06382L584.685382 656.768906ZM584.189954 659.212213L582.192352 669.06382L582.192352 658.807161ZM582.335321 655.936794L624.921402 535.664724L629.621524 537.328949ZM587.035443 657.601019L582.335321 655.936794L629.621524 537.328949ZM454.564001 630.461468L454.70697 630.057693L457.057031 630.889806ZM454.564001 630.889806L454.564001 630.461468L457.057031 630.889806ZM586.312553 704.248023L584.189954 703.817625L584.685382 701.374318ZM587.035443 702.206431L586.312553 704.248023L584.685382 701.374318ZM629.764493 534.458581L629.764493 536.496836L627.271463 536.496836ZM627.76689 534.053529L629.764493 534.458581L627.271463 536.496836Z" fill="#263c4e" fill-opacity="1"/><defs><g id="surface-11"><defs></defs><g transform="matrix(0.03225806451612903 0 0 0.012195121951219513 0 0)"><g transform="matrix(1 0 0 1 0 0)"><g transform="matrix(1 0 0 1 0 0)"><path d="M17.168724060058594 56.55137634277344Q12.946125984191895 56.55137634277344 9.550634384155273 54.69689178466797Q6.169652938842773 52.8424072265625 4.210715293884277 49.38167953491211Q2.237267017364502 45.906349182128906 2.237267017364502 41Q2.237267017364502 36.15205764770508 4.210715293884277 32.69132995605469Q6.227695465087891 29.215999603271484 9.434548377990723 27.36151695251465Q12.641402244567871 25.448623657226562 16.152978897094727 25.448623657226562Q20.375577926635742 25.448623657226562 23.103580474853516 27.36151695251465Q25.90413475036621 29.215999603271484 27.268136978149414 32.443092346191406Q28.6901798248291 35.626380920410156 28.6901798248291 39.68579864501953Q28.6901798248291 40.824771881103516 28.574094772338867 41.963748931884766Q28.458009719848633 43.02970886230469 28.3419246673584 43.56999206542969L10.682464599609375 43.56999206542969Q11.277400970458984 46.81168746948242 13.352423667907715 48.35952377319336Q15.441957473754883 49.84895324707031 18.344087600708008 49.84895324707031Q21.507408142089844 49.84895324707031 24.714262008666992 47.87765121459961L27.616392135620117 53.20746612548828Q25.36724090576172 54.75530242919922 22.566686630249023 55.660640716552734Q19.780641555786133 56.55137634277344 17.168724060058594 56.55137634277344ZM10.624422073364258 37.77290725708008L21.260726928710938 37.77290725708008Q21.260726928710938 35.319732666015625 20.07085418701172 33.77189636230469Q18.939023971557617 32.15104675292969 16.327106475830078 32.15104675292969Q14.310127258300781 32.15104675292969 12.699444770812988 33.58206558227539Q11.103273391723633 34.95467758178711 10.624422073364258 37.77290725708008Z" fill-rule="nonzero" fill="#253650" fill-opacity="1" stroke="none"/></g></g></g></g></defs><defs><clipPath id="face-29" clipPathUnits="userSpaceOnUse"><path d="M545.021517 604.697538L525.75686 600.791259L539.306977 562.522873ZM558.571634 566.429152L545.021517 604.697538L539.306977 562.522873Z"/></clipPath></defs><g clip-path="url(#face-29)" opacity="1"><g transform="matrix(19.264657 3.906279 -13.550117 38.268386 539.306977 562.522873)"><use xlink:href="#surface-11"/></g></g></g><g opacity="1"><defs><g id="surface-12"><defs></defs><g transform="matrix(0.0009140767824497258 0 0 0.0070921985815602835 0 0)"><g transform="matrix(1 0 0 1 0 0)"><g transform="matrix(1 0 0 1 0 0)"><path d="M9.789789199829102 99.20769500732422L9.789789199829102 46.235477447509766L17.214689254760742 46.235477447509766L17.989229202270508 55.84018325805664L18.309728622436523 55.84018325805664Q21.060680389404297 50.81167984008789 24.986797332763672 47.885040283203125Q28.939620971679688 44.931793212890625 33.42660903930664 44.931793212890625Q36.57818603515625 44.931793212890625 39.115474700927734 46.02263259887695L37.352725982666016 53.87135314941406Q36.04402160644531 53.44565963745117 34.94898223876953 53.206207275390625Q33.85394287109375 52.99335861206055 32.22473907470703 52.99335861206055Q28.832788467407227 52.99335861206055 25.093629837036133 55.733760833740234Q21.488012313842773 58.44755554199219 18.763769149780273 65.20543670654297L18.763769149780273 99.20769500732422L9.789789199829102 99.20769500732422ZM67.34611511230469 100.51138305664062Q60.88271713256836 100.51138305664062 55.19385528564453 97.23886108398438Q49.61182403564453 93.96634674072266 46.113040924072266 87.7671890258789Q42.72108840942383 81.54141998291016 42.72108840942383 72.84131622314453Q42.72108840942383 63.90175247192383 46.113040924072266 57.675987243652344Q49.61182403564453 51.47682571411133 55.19385528564453 48.20431137084961Q60.88271713256836 44.931793212890625 67.34611511230469 44.931793212890625Q73.91635131835938 44.931793212890625 79.49838256835938 48.20431137084961Q85.08041381835938 51.47682571411133 88.47235870361328 57.675987243652344Q91.97114562988281 63.90175247192383 91.97114562988281 72.84131622314453Q91.97114562988281 81.54141998291016 88.47235870361328 87.7671890258789Q85.08041381835938 93.96634674072266 79.49838256835938 97.23886108398438Q73.91635131835938 100.51138305664062 67.34611511230469 100.51138305664062ZM67.34611511230469 93.11495971679688Q74.23685455322266 93.11495971679688 78.4033432006836 87.5543441772461Q82.64995574951172 81.88729858398438 82.64995574951172 72.84131622314453Q82.64995574951172 63.688907623291016 78.4033432006836 58.0218620300293Q74.23685455322266 52.354820251464844 67.34611511230469 52.354820251464844Q60.562217712402344 52.354820251464844 56.28889465332031 58.0218620300293Q52.04227828979492 63.688907623291016 52.04227828979492 72.84131622314453Q52.04227828979492 81.88729858398438 56.28889465332031 87.5543441772461Q60.562217712402344 93.11495971679688 67.34611511230469 93.11495971679688ZM113.95205688476562 99.20769500732422L99.18238067626953 46.235477447509766L108.37002563476562 46.235477447509766L116.24897003173828 76.85879516601562Q117.13034057617188 80.58361053466797 117.90487670898438 84.28182220458984Q118.6527099609375 87.87361145019531 119.42725372314453 91.57182312011719L119.85458374023438 91.57182312011719Q120.73595428466797 87.87361145019531 121.6173324584961 84.28182220458984Q122.49870300292969 80.58361053466797 123.48690795898438 76.85879516601562L131.6863555908203 46.235477447509766L140.41995239257812 46.235477447509766L148.7529296875 76.85879516601562Q149.7411346435547 80.58361053466797 150.59580993652344 84.28182220458984Q151.58401489257812 87.87361145019531 152.4653778076172 91.57182312011719L152.89271545410156 91.57182312011719Q153.7740936279297 87.87361145019531 154.5486297607422 84.28182220458984Q155.4300079345703 80.58361053466797 156.17784118652344 76.85879516601562L163.94993591308594 46.235477447509766L172.49659729003906 46.235477447509766L158.26107788085938 99.20769500732422L147.33740234375 99.20769500732422L139.672119140625 70.76605987548828Q138.6839141845703 66.96142578125 137.8025360107422 63.23660659790039Q137.05471801757812 59.538394927978516 136.06651306152344 55.52091598510742L135.6124725341797 55.52091598510742Q134.75779724121094 59.538394927978516 133.87643432617188 63.3430290222168Q132.99505615234375 67.0678482055664 131.90000915527344 70.87248229980469L124.44841003417969 99.20769500732422L113.95205688476562 99.20769500732422ZM197.97628784179688 100.51138305664062Q192.28741455078125 100.51138305664062 187.15943908691406 98.43612670898438Q182.00473022460938 96.25444793701172 178.18545532226562 93.22138214111328L182.6724395751953 87.20846557617188Q186.1712188720703 89.94886779785156 189.88368225097656 91.78466796875Q193.59613037109375 93.54065704345703 198.29678344726562 93.54065704345703Q203.55831909179688 93.54065704345703 206.17572021484375 91.14612579345703Q208.81983947753906 88.64517974853516 208.81983947753906 85.2662353515625Q208.81983947753906 82.52584075927734 206.95025634765625 80.69003295898438Q205.18751525878906 78.82762908935547 202.3564453125 77.63036346435547Q199.6322021484375 76.32667541503906 196.66757202148438 75.23583984375Q192.9551239013672 73.82572937011719 189.3227996826172 72.06974792480469Q185.71717834472656 70.20733642578125 183.42027282714844 67.38711547851562Q181.1233673095703 64.43386840820312 181.1233673095703 59.964088439941406Q181.1233673095703 53.55208206176758 185.9575653076172 49.29515075683594Q190.87188720703125 44.931793212890625 199.4986572265625 44.931793212890625Q204.43968200683594 44.931793212890625 208.68629455566406 46.68777847290039Q212.95962524414062 48.41715621948242 216.0310821533203 50.91810607910156L211.6509246826172 56.585147857666016Q208.9266815185547 54.5364990234375 205.96205139160156 53.206207275390625Q202.9974365234375 51.90251922607422 199.4986572265625 51.90251922607422Q194.4774932861328 51.90251922607422 192.07376098632812 54.19062423706055Q189.77684020996094 56.47872543334961 189.77684020996094 59.538394927978516Q189.77684020996094 62.039344787597656 191.4060516357422 63.688907623291016Q193.0619659423828 65.20543670654297 195.6793670654297 66.40270233154297Q198.29678344726562 67.49353790283203 201.2613983154297 68.69080352783203Q205.0806884765625 70.10091400146484 208.81983947753906 71.96331787109375Q212.53228759765625 73.71930694580078 214.93603515625 76.75237274169922Q217.4466094970703 79.70561981201172 217.4466094970703 84.70751953125Q217.4466094970703 88.96444702148438 215.1497039794922 92.55623626708984Q212.95962524414062 96.14802551269531 208.5794677734375 98.32970428466797Q204.33285522460938 100.51138305664062 197.97628784179688 100.51138305664062ZM247.1996307373047 99.20769500732422L247.1996307373047 93.85992431640625Q257.69598388671875 83.4038314819336 265.0140380859375 75.55510711669922Q272.35882568359375 67.59996032714844 276.1781005859375 61.29438018798828Q280.02410888671875 54.855770111083984 280.02410888671875 49.29515075683594Q280.02410888671875 43.308837890625 276.7389831542969 39.477596282958984Q273.453857421875 35.6729621887207 266.77679443359375 35.6729621887207Q262.3966369628906 35.6729621887207 258.6841735839844 38.17390823364258Q254.97174072265625 40.56843566894531 251.90028381347656 44.05379867553711L246.74559020996094 38.94548034667969Q251.12574768066406 34.156429290771484 256.0667724609375 31.30960464477539Q261.0879211425781 28.382963180541992 267.871826171875 28.382963180541992Q277.620361328125 28.382963180541992 283.1756896972656 34.05000686645508Q288.7576904296875 39.58401870727539 288.7576904296875 48.86945724487305Q288.7576904296875 55.38788604736328 285.0452575683594 62.14576721191406Q281.43963623046875 68.79722595214844 274.9762268066406 76.22025299072266Q268.6463623046875 83.51025390625 260.3133850097656 92.13054656982422Q263.1711730957031 91.91769409179688 266.2426452636719 91.6782455444336Q269.2873840332031 91.46540069580078 272.038330078125 91.46540069580078L292.2565002441406 91.46540069580078L292.2565002441406 99.20769500732422L247.1996307373047 99.20769500732422ZM349.03826904296875 100.51138305664062Q342.04071044921875 100.51138305664062 336.3518371582031 97.23886108398438Q330.6629943847656 93.96634674072266 327.37786865234375 87.7671890258789Q324.0927429199219 81.54141998291016 324.0927429199219 72.84131622314453Q324.0927429199219 63.90175247192383 327.5915222167969 57.675987243652344Q331.2238464355469 51.47682571411133 337.0195617675781 48.20431137084961Q342.9220886230469 44.931793212890625 349.70599365234375 44.931793212890625Q354.9407958984375 44.931793212890625 358.6799621582031 46.7942008972168Q362.4992370605469 48.6300048828125 365.2502136230469 51.15755844116211L360.6296691894531 57.03744888305664Q358.332763671875 54.96219253540039 355.71533203125 53.658504486083984Q353.20477294921875 52.354820251464844 350.0264892578125 52.354820251464844Q345.218994140625 52.354820251464844 341.39971923828125 54.96219253540039Q337.6605529785156 57.46314239501953 335.4704895019531 62.14576721191406Q333.4139404296875 66.72196960449219 333.4139404296875 72.84131622314453Q333.4139404296875 81.88729858398438 337.90093994140625 87.5543441772461Q342.4947509765625 93.11495971679688 349.81280517578125 93.11495971679688Q353.5252685546875 93.11495971679688 356.70355224609375 91.57182312011719Q359.8818359375 89.94886779785156 362.28558349609375 87.7671890258789L366.2117004394531 93.75350189208984Q362.6060791015625 96.91959381103516 358.2259216308594 98.7820053100586Q353.8724670410156 100.51138305664062 349.03826904296875 100.51138305664062ZM396.3119201660156 100.51138305664062Q389.8485107421875 100.51138305664062 384.15966796875 97.23886108398438Q378.57763671875 93.96634674072266 375.078857421875 87.7671890258789Q371.6868896484375 81.54141998291016 371.6868896484375 72.84131622314453Q371.6868896484375 63.90175247192383 375.078857421875 57.675987243652344Q378.57763671875 51.47682571411133 384.15966796875 48.20431137084961Q389.8485107421875 44.931793212890625 396.3119201660156 44.931793212890625Q402.8821716308594 44.931793212890625 408.46417236328125 48.20431137084961Q414.04620361328125 51.47682571411133 417.43817138671875 57.675987243652344Q420.93695068359375 63.90175247192383 420.93695068359375 72.84131622314453Q420.93695068359375 81.54141998291016 417.43817138671875 87.7671890258789Q414.04620361328125 93.96634674072266 408.46417236328125 97.23886108398438Q402.8821716308594 100.51138305664062 396.3119201660156 100.51138305664062ZM396.3119201660156 93.11495971679688Q403.2026672363281 93.11495971679688 407.369140625 87.5543441772461Q411.6157531738281 81.88729858398438 411.6157531738281 72.84131622314453Q411.6157531738281 63.688907623291016 407.369140625 58.0218620300293Q403.2026672363281 52.354820251464844 396.3119201660156 52.354820251464844Q389.52801513671875 52.354820251464844 385.25469970703125 58.0218620300293Q381.0080871582031 63.688907623291016 381.0080871582031 72.84131622314453Q381.0080871582031 81.88729858398438 385.25469970703125 87.5543441772461Q389.52801513671875 93.11495971679688 396.3119201660156 93.11495971679688ZM444.4402160644531 100.51138305664062Q439.4190673828125 100.51138305664062 437.1221618652344 97.45171356201172Q434.9320983886719 94.31222534179688 434.9320983886719 88.53875732421875L434.9320983886719 21.625080108642578L443.90606689453125 21.625080108642578L443.90606689453125 89.17729949951172Q443.90606689453125 91.25254821777344 444.6539001464844 92.23696899414062Q445.4284362792969 93.11495971679688 446.4166564941406 93.11495971679688Q446.8439636230469 93.11495971679688 447.1911926269531 93.11495971679688Q447.6184997558594 93.00853729248047 448.39306640625 92.8755111694336L449.5949401855469 99.63339233398438Q448.71356201171875 100.08568572998047 447.5116882324219 100.29853820800781Q446.309814453125 100.51138305664062 444.4402160644531 100.51138305664062ZM478.3597412109375 100.51138305664062Q469.919921875 100.51138305664062 465.9938049316406 95.29663848876953Q462.0409851074219 89.94886779785156 462.0409851074219 79.81204223632812L462.0409851074219 46.235477447509766L471.1217956542969 46.235477447509766L471.1217956542969 78.61477661132812Q471.1217956542969 86.01119995117188 473.418701171875 89.39014434814453Q475.82244873046875 92.76908111572266 481.083984375 92.76908111572266Q485.2504577636719 92.76908111572266 488.40203857421875 90.7204360961914Q491.6871643066406 88.53875732421875 495.3996276855469 83.82952117919922L495.3996276855469 46.235477447509766L504.37359619140625 46.235477447509766L504.37359619140625 99.20769500732422L496.9486999511719 99.20769500732422L496.1741638183594 90.93328094482422L495.8536682128906 90.93328094482422Q492.1412048339844 95.29663848876953 487.9747009277344 97.90400695800781Q483.8082275390625 100.51138305664062 478.3597412109375 100.51138305664062ZM522.321533203125 99.20769500732422L522.321533203125 46.235477447509766L529.7464599609375 46.235477447509766L530.52099609375 53.87135314941406L530.8414916992188 53.87135314941406Q534.3402709960938 50.06671905517578 538.5067749023438 47.53916549682617Q542.6732788085938 44.931793212890625 547.3739013671875 44.931793212890625Q553.4901123046875 44.931793212890625 556.882080078125 47.67219161987305Q560.380859375 50.279563903808594 562.0367431640625 55.0686149597168Q566.176513671875 50.59883499145508 570.4498901367188 47.77861785888672Q574.7232055664062 44.931793212890625 579.5307006835938 44.931793212890625Q587.7301025390625 44.931793212890625 591.6829223632812 50.279563903808594Q595.7158813476562 55.52091598510742 595.7158813476562 65.63113403320312L595.7158813476562 99.20769500732422L586.7418823242188 99.20769500732422L586.7418823242188 66.8283920288086Q586.7418823242188 59.43197250366211 584.3381958007812 56.05303192138672Q581.9344482421875 52.67409133911133 576.9132690429688 52.67409133911133Q571.0107421875 52.67409133911133 563.5591430664062 60.84208297729492L563.5591430664062 99.20769500732422L554.5851440429688 99.20769500732422L554.5851440429688 66.8283920288086Q554.5851440429688 59.43197250366211 552.181396484375 56.05303192138672Q549.7776489257812 52.67409133911133 544.6229858398438 52.67409133911133Q538.720458984375 52.67409133911133 531.2955322265625 60.84208297729492L531.2955322265625 99.20769500732422L522.321533203125 99.20769500732422ZM613.0228271484375 99.20769500732422L613.0228271484375 46.235477447509766L620.44775390625 46.235477447509766L621.2222900390625 53.87135314941406L621.5427856445312 53.87135314941406Q625.3887939453125 50.06671905517578 629.6353759765625 47.53916549682617Q633.90869140625 44.931793212890625 639.3839111328125 44.931793212890625Q647.7969970703125 44.931793212890625 651.6430053710938 50.279563903808594Q655.5691528320312 55.52091598510742 655.5691528320312 65.63113403320312L655.5691528320312 99.20769500732422L646.5951538085938 99.20769500732422L646.5951538085938 66.8283920288086Q646.5951538085938 59.43197250366211 644.19140625 56.05303192138672Q641.7876586914062 52.67409133911133 636.5528564453125 52.67409133911133Q632.4931640625 52.67409133911133 629.2080688476562 54.74934387207031Q626.02978515625 56.82460021972656 621.996826171875 60.84208297729492L621.996826171875 99.20769500732422L613.0228271484375 99.20769500732422ZM686.764404296875 100.51138305664062Q681.0755615234375 100.51138305664062 675.9475708007812 98.43612670898438Q670.7928466796875 96.25444793701172 666.9735717773438 93.22138214111328L671.4605712890625 87.20846557617188Q674.9593505859375 89.94886779785156 678.6718139648438 91.78466796875Q682.3842163085938 93.54065704345703 687.0848999023438 93.54065704345703Q692.346435546875 93.54065704345703 694.9638061523438 91.14612579345703Q697.6079711914062 88.64517974853516 697.6079711914062 85.2662353515625Q697.6079711914062 82.52584075927734 695.7384033203125 80.69003295898438Q693.9756469726562 78.82762908935547 691.14453125 77.63036346435547Q688.4202880859375 76.32667541503906 685.4556884765625 75.23583984375Q681.7432250976562 73.82572937011719 678.1109008789062 72.06974792480469Q674.5053100585938 70.20733642578125 672.2083740234375 67.38711547851562Q669.9114990234375 64.43386840820312 669.9114990234375 59.964088439941406Q669.9114990234375 53.55208206176758 674.7456665039062 49.29515075683594Q679.6599731445312 44.931793212890625 688.2867431640625 44.931793212890625Q693.227783203125 44.931793212890625 697.4744262695312 46.68777847290039Q701.7477416992188 48.41715621948242 704.8192138671875 50.91810607910156L700.4390258789062 56.585147857666016Q697.7147827148438 54.5364990234375 694.7501831054688 53.206207275390625Q691.7855224609375 51.90251922607422 688.2867431640625 51.90251922607422Q683.265625 51.90251922607422 680.8618774414062 54.19062423706055Q678.56494140625 56.47872543334961 678.56494140625 59.538394927978516Q678.56494140625 62.039344787597656 680.1941528320312 63.688907623291016Q681.85009765625 65.20543670654297 684.4674682617188 66.40270233154297Q687.0848999023438 67.49353790283203 690.0494995117188 68.69080352783203Q693.8687744140625 70.10091400146484 697.6079711914062 71.96331787109375Q701.3203735351562 73.71930694580078 703.72412109375 76.75237274169922Q706.2347412109375 79.70561981201172 706.2347412109375 84.70751953125Q706.2347412109375 88.96444702148438 703.9378051757812 92.55623626708984Q701.7477416992188 96.14802551269531 697.3675537109375 98.32970428466797Q693.1209716796875 100.51138305664062 686.764404296875 100.51138305664062ZM757.4345092773438 100.51138305664062Q749.1015014648438 100.51138305664062 743.5194702148438 97.5847396850586Q737.9641723632812 94.52507019042969 734.4386596679688 90.7204360961914L739.0592041015625 84.8139419555664Q742.2107543945312 88.08645629882812 746.4840698242188 90.58740234375Q750.7574462890625 93.11495971679688 756.8735961914062 93.11495971679688Q763.2301635742188 93.11495971679688 767.2631225585938 89.62959289550781Q771.3228149414062 86.11762237548828 771.3228149414062 80.34416198730469Q771.3228149414062 76.22025299072266 769.1326904296875 73.16058349609375Q767.0494384765625 69.99449157714844 762.1351318359375 68.26510620117188Q757.32763671875 66.50912475585938 748.9946899414062 66.50912475585938L748.9946899414062 59.64481735229492Q756.4462890625 59.64481735229492 760.7196044921875 57.91543960571289Q765.0730590820312 56.159454345703125 766.942626953125 53.206207275390625Q768.8121948242188 50.279563903808594 768.8121948242188 46.68777847290039Q768.8121948242188 41.552852630615234 765.527099609375 38.6262092590332Q762.3488159179688 35.6729621887207 756.7667846679688 35.6729621887207Q752.3865966796875 35.6729621887207 748.6741943359375 37.64179229736328Q745.0685424804688 39.58401870727539 741.8902587890625 42.75011444091797L737.082763671875 37.08306884765625Q741.11572265625 33.27843475341797 746.0567626953125 30.8839111328125Q750.9710693359375 28.382963180541992 757.0872802734375 28.382963180541992Q766.1680908203125 28.382963180541992 772.0973510742188 33.065589904785156Q777.9998779296875 37.64179229736328 777.9998779296875 46.02263259887695Q777.9998779296875 52.354820251464844 774.5010986328125 56.3723030090332Q771.0023193359375 60.41638946533203 765.3134155273438 62.59806823730469L765.3134155273438 63.02376174926758Q771.643310546875 64.43386840820312 776.0234375 69.01007080078125Q780.4036254882812 73.47985076904297 780.4036254882812 80.69003295898438Q780.4036254882812 86.78276824951172 777.3321533203125 91.25254821777344Q774.2606811523438 95.72233581542969 769.02587890625 98.11685943603516Q763.8711547851562 100.51138305664062 757.4345092773438 100.51138305664062ZM831.2828369140625 118.3905029296875Q824.4989624023438 107.37568664550781 820.6529541015625 95.40306091308594Q816.8336791992188 83.29740905761719 816.8336791992188 68.90364837646484Q816.8336791992188 54.5364990234375 820.6529541015625 42.430843353271484Q824.4989624023438 30.32518768310547 831.2828369140625 19.443401336669922L836.8381958007812 22.05077362060547Q830.50830078125 32.40044403076172 827.3300170898438 44.506099700927734Q824.2586059570312 56.47872543334961 824.2586059570312 68.90364837646484Q824.2586059570312 81.32857513427734 827.3300170898438 93.4342269897461Q830.50830078125 105.40685272216797 836.8381958007812 115.78313446044922L831.2828369140625 118.3905029296875ZM891.6435546875 84.92036437988281L844.7171020507812 66.61554718017578L844.7171020507812 59.43197250366211L891.6435546875 41.127159118652344L891.6435546875 48.86945724487305L868.567626953125 57.35671615600586L853.90478515625 62.8109130859375L853.90478515625 63.23660659790039L868.567626953125 68.69080352783203L891.6435546875 77.20467376708984L891.6435546875 84.92036437988281ZM925.3494262695312 100.51138305664062Q918.351806640625 100.51138305664062 912.6629638671875 97.23886108398438Q906.97412109375 93.96634674072266 903.68896484375 87.7671890258789Q900.4038696289062 81.54141998291016 900.4038696289062 72.84131622314453Q900.4038696289062 63.90175247192383 903.9026489257812 57.675987243652344Q907.5349731445312 51.47682571411133 913.3306884765625 48.20431137084961Q919.2332153320312 44.931793212890625 926.01708984375 44.931793212890625Q931.251953125 44.931793212890625 934.9910888671875 46.7942008972168Q938.8103637695312 48.6300048828125 941.5613403320312 51.15755844116211L936.9407958984375 57.03744888305664Q934.6438598632812 54.96219253540039 932.0264892578125 53.658504486083984Q929.515869140625 52.354820251464844 926.3375854492188 52.354820251464844Q921.5300903320312 52.354820251464844 917.7108154296875 54.96219253540039Q913.9716796875 57.46314239501953 911.7816162109375 62.14576721191406Q909.7250366210938 66.72196960449219 909.7250366210938 72.84131622314453Q909.7250366210938 81.88729858398438 914.2120361328125 87.5543441772461Q918.8058471679688 93.11495971679688 926.1239624023438 93.11495971679688Q929.8363647460938 93.11495971679688 933.0146484375 91.57182312011719Q936.1929321289062 89.94886779785156 938.5966796875 87.7671890258789L942.5228271484375 93.75350189208984Q938.9171752929688 96.91959381103516 934.5370483398438 98.7820053100586Q930.18359375 100.51138305664062 925.3494262695312 100.51138305664062ZM965.4385375976562 100.51138305664062Q958.761474609375 100.51138305664062 954.2744750976562 96.60032653808594Q949.894287109375 92.55623626708984 949.894287109375 85.47908782958984Q949.894287109375 76.75237274169922 957.6663818359375 72.1761703491211Q965.5453491210938 67.49353790283203 982.505126953125 65.63113403320312Q982.505126953125 62.25218963623047 981.5169067382812 59.21912384033203Q980.635498046875 56.159454345703125 978.2318115234375 54.29704666137695Q975.9348754882812 52.354820251464844 971.5546875 52.354820251464844Q966.9608764648438 52.354820251464844 962.9012451171875 54.084197998046875Q958.8682861328125 55.84018325805664 955.6900024414062 58.0218620300293L952.1912231445312 51.79609680175781Q955.9036865234375 49.401573181152344 961.2720336914062 47.21989440917969Q966.7472534179688 44.931793212890625 973.0770874023438 44.931793212890625Q982.8256225585938 44.931793212890625 987.2057495117188 50.91810607910156Q991.5859375 56.82460021972656 991.5859375 66.72196960449219L991.5859375 99.20769500732422L984.1343383789062 99.20769500732422L983.3597412109375 92.8755111694336L983.0392456054688 92.8755111694336Q979.3268432617188 95.9351806640625 974.83984375 98.22328186035156Q970.4596557617188 100.51138305664062 965.4385375976562 100.51138305664062ZM968.055908203125 93.32780456542969Q971.8751831054688 93.32780456542969 975.2671508789062 91.46540069580078Q978.6591186523438 89.62959289550781 982.505126953125 86.25065612792969L982.505126953125 71.53762817382812Q969.2578125 73.16058349609375 963.8894653320312 76.43309783935547Q958.6546020507812 79.70561981201172 958.6546020507812 84.8139419555664Q958.6546020507812 89.28372192382812 961.3788452148438 91.35897827148438Q964.1030883789062 93.32780456542969 968.055908203125 93.32780456542969ZM1008.3052978515625 121.55659484863281L1008.3052978515625 46.235477447509766L1015.730224609375 46.235477447509766L1016.5047607421875 52.354820251464844L1016.8252563476562 52.354820251464844Q1020.4575805664062 49.29515075683594 1024.7042236328125 47.11347198486328Q1029.0843505859375 44.931793212890625 1033.7850341796875 44.931793212890625Q1044.067626953125 44.931793212890625 1049.43603515625 52.354820251464844Q1054.804443359375 59.64481735229492 1054.804443359375 71.96331787109375Q1054.804443359375 80.90288543701172 1051.519287109375 87.34149169921875Q1048.3409423828125 93.75350189208984 1043.0794677734375 97.13243865966797Q1037.9515380859375 100.51138305664062 1031.8353271484375 100.51138305664062Q1028.0960693359375 100.51138305664062 1024.3836669921875 98.888427734375Q1020.778076171875 97.23886108398438 1017.0656127929688 94.41864776611328L1017.279296875 103.67747497558594L1017.279296875 121.55659484863281L1008.3052978515625 121.55659484863281ZM1030.2862548828125 93.00853729248047Q1036.8564453125 93.00853729248047 1041.1297607421875 87.44791412353516Q1045.5098876953125 81.78087615966797 1045.5098876953125 71.96331787109375Q1045.5098876953125 63.23660659790039 1042.224853515625 57.91543960571289Q1039.0465087890625 52.46124267578125 1031.488037109375 52.46124267578125Q1028.0960693359375 52.46124267578125 1024.5972900390625 54.29704666137695Q1021.2053833007812 56.159454345703125 1017.279296875 59.64481735229492L1017.279296875 87.44791412353516Q1020.8848876953125 90.4809799194336 1024.27685546875 91.78466796875Q1027.6688232421875 93.00853729248047 1030.2862548828125 93.00853729248047ZM1069.7877197265625 118.3905029296875L1064.2056884765625 115.78313446044922Q1070.5355224609375 105.40685272216797 1073.6070556640625 93.4342269897461Q1076.7852783203125 81.32857513427734 1076.7852783203125 68.90364837646484Q1076.7852783203125 56.47872543334961 1073.6070556640625 44.506099700927734Q1070.5355224609375 32.40044403076172 1064.2056884765625 22.05077362060547L1069.7877197265625 19.443401336669922Q1076.544921875 30.32518768310547 1080.390869140625 42.430843353271484Q1084.210205078125 54.5364990234375 1084.210205078125 68.90364837646484Q1084.210205078125 83.29740905761719 1080.390869140625 95.40306091308594Q1076.544921875 107.37568664550781 1069.7877197265625 118.3905029296875Z" fill-rule="nonzero" fill="#253650" fill-opacity="1" stroke="none"/></g></g></g></g></defs><defs><clipPath id="face-30" clipPathUnits="userSpaceOnUse"><path d="M818.902175 863.123995L149.455354 727.38079L172.684126 661.777843ZM842.130947 797.521048L818.902175 863.123995L172.684126 661.777843Z"/></clipPath></defs><g clip-path="url(#face-30)" opacity="1"><g transform="matrix(669.446821 135.743205 -23.228771 65.602947 172.684126 661.777843)"><use xlink:href="#surface-12"/></g></g></g></svg>